<svg width="227" height="48" viewBox="0 0 227 48" fill="none" xmlns="http://www.w3.org/2000/svg">
<path d="M46.7187 1.13163V46.7741H1.13029V1.13163H46.7187ZM47.9432 0H0V48H47.9432V0Z" fill="white"/>
<path d="M62.9195 15.8431C63.7672 14.9 67.4407 11.1279 68.1942 10.2792C68.8535 9.43048 69.4187 8.86467 69.4187 8.39316C69.4187 8.11025 69.3245 7.92164 69.0419 7.92164C68.8535 7.92164 68.7593 7.82734 68.7593 7.73304C68.7593 7.54443 68.8535 7.54443 69.1361 7.54443C69.7012 7.54443 71.0199 7.63874 71.6793 7.63874C72.4328 7.63874 73.8456 7.54443 74.5992 7.54443C74.8817 7.54443 75.0701 7.63874 75.0701 7.73304C75.0701 7.92164 74.9759 7.92164 74.6934 7.92164C74.3166 7.92164 73.7515 8.01595 73.2805 8.20455C72.527 8.48746 71.6793 9.05327 70.6432 10.0906C69.8896 10.845 66.122 14.6171 65.1801 15.5602C66.122 16.7861 71.0199 22.067 71.9618 23.0101C73.0921 24.0474 74.2224 25.179 75.5411 25.7448C76.2946 26.0277 76.7656 26.122 77.1423 26.122C77.3307 26.122 77.4249 26.2163 77.4249 26.3106C77.4249 26.4992 77.3307 26.5935 76.8598 26.5935H74.6934C73.9398 26.5935 73.4689 26.5935 72.9979 26.4992C71.6793 26.4049 70.9257 25.8391 69.8896 24.8961C68.7593 23.9531 63.8614 18.1063 63.2963 17.3519L63.0137 16.9747H62.9195V19.2379C62.9195 21.5012 62.9195 23.5759 63.0137 24.6132C63.1079 25.2733 63.2963 25.8391 63.9556 25.9334C64.3324 26.0277 64.8975 26.0277 65.1801 26.0277C65.3685 26.0277 65.4627 26.122 65.4627 26.2163C65.4627 26.4049 65.2743 26.4992 64.9917 26.4992C63.5788 26.4992 61.9776 26.4049 61.4124 26.4049C60.8473 26.4049 59.2461 26.4992 58.21 26.4992C57.9274 26.4992 57.739 26.4049 57.739 26.2163C57.739 26.122 57.8332 26.0277 58.1158 26.0277C58.4925 26.0277 58.7751 25.9334 59.0577 25.9334C59.5286 25.8391 59.717 25.2733 59.8112 24.5189C59.9054 23.4816 59.9054 21.5012 59.9054 19.1436V14.7114C59.9054 10.9393 59.9054 10.1849 59.8112 9.43048C59.717 8.58176 59.5286 8.20455 58.7751 8.01595C58.5867 7.92164 58.1158 7.92164 57.8332 7.92164C57.5506 7.92164 57.3622 7.82734 57.3622 7.73304C57.3622 7.54443 57.5506 7.54443 57.9274 7.54443C59.2461 7.54443 60.8473 7.63874 61.4124 7.63874C61.9776 7.63874 63.5788 7.54443 64.4266 7.54443C64.8033 7.54443 64.9917 7.63874 64.9917 7.73304C64.9917 7.92164 64.8033 7.92164 64.6149 7.92164C64.3324 7.92164 64.2382 7.92164 63.9556 8.01595C63.2963 8.11025 63.1079 8.58176 63.0137 9.43048C62.9195 10.2792 62.9195 10.9393 62.9195 14.7114V15.8431Z" fill="white"/>
<path d="M79.7797 20.0866C79.6855 20.0866 79.5913 20.1809 79.5913 20.2752L78.1784 23.6701C77.8958 24.3302 77.8016 24.896 77.8016 25.1789C77.8016 25.6504 77.99 25.9333 78.8377 25.9333H79.2145C79.4971 25.9333 79.5913 26.0276 79.5913 26.1219C79.5913 26.3105 79.4029 26.4048 79.1203 26.4048C78.2726 26.4048 77.2365 26.3105 76.483 26.3105C76.2004 26.3105 74.7875 26.4048 73.5631 26.4048C73.2805 26.4048 73.0921 26.3105 73.0921 26.1219C73.0921 25.9333 73.1863 25.9333 73.3747 25.9333C73.5631 25.9333 73.9398 25.9333 74.1282 25.839C75.2585 25.6504 75.7294 24.8017 76.2946 23.5758L82.6054 8.01584C82.888 7.26142 83.0763 6.97852 83.2647 6.97852C83.4531 6.97852 83.6415 7.16712 83.9241 7.82724C84.4892 9.24178 88.5394 19.2378 90.1406 23.1043C91.0826 25.3675 91.8361 25.7447 92.307 25.839C92.6838 25.9333 93.0606 25.9333 93.3431 25.9333C93.5315 25.9333 93.6257 25.9333 93.6257 26.1219C93.6257 26.3105 93.4373 26.4048 92.4954 26.4048C91.5535 26.4048 89.7639 26.4048 87.7859 26.3105C87.3149 26.3105 87.0324 26.3105 87.0324 26.1219C87.0324 25.9333 87.1265 25.9333 87.4091 25.9333C87.5975 25.839 87.7859 25.6504 87.5975 25.3675L85.6195 20.1809C85.5253 20.0866 85.5253 19.9923 85.3369 19.9923H79.7797V20.0866ZM84.9602 18.7663C85.0543 18.7663 85.1485 18.672 85.0543 18.5777L82.7938 12.4481C82.7938 12.3538 82.6996 12.2595 82.6996 12.2595C82.6996 12.2595 82.6054 12.3538 82.5112 12.4481L80.1564 18.5777C80.1564 18.672 80.1564 18.7663 80.2506 18.7663H84.9602Z" fill="white"/>
<path d="M97.7702 7.73287C97.8643 7.26136 97.9585 7.07275 98.2411 7.07275C98.5237 7.07275 98.6179 7.16706 98.9004 7.82717L105.776 21.784L112.558 7.63857C112.746 7.26136 112.841 7.07275 113.123 7.07275C113.406 7.07275 113.5 7.35566 113.594 7.82717L115.855 23.1985C116.043 24.8016 116.326 25.4618 117.079 25.7447C117.833 25.9333 118.304 26.0276 118.681 26.0276C118.869 26.0276 119.057 26.0276 119.057 26.2162C119.057 26.4048 118.775 26.4991 118.398 26.4991C117.739 26.4991 114.348 26.4048 113.312 26.4048C112.747 26.3105 112.558 26.3105 112.558 26.1219C112.558 26.0276 112.652 25.9333 112.841 25.839C113.029 25.7447 113.029 25.4618 112.935 24.8016L111.428 13.8625H111.334L105.871 25.0845C105.305 26.3105 105.211 26.4991 104.929 26.4991C104.74 26.4991 104.458 26.0276 104.081 25.2731C103.516 24.1415 101.538 20.2751 101.161 19.615C100.973 19.0492 99.4656 16.1258 98.5237 14.2397H98.4295L97.1108 24.0472C97.0166 24.5187 97.0166 24.8016 97.0166 25.2731C97.0166 25.7447 97.2992 25.9333 97.7702 26.1219C98.2411 26.2162 98.6179 26.2162 98.8062 26.2162C98.9946 26.2162 99.183 26.3105 99.183 26.4048C99.183 26.5934 98.9946 26.6877 98.6179 26.6877C97.5818 26.6877 96.4515 26.5934 95.9805 26.5934C95.5096 26.5934 94.2851 26.6877 93.5316 26.6877C93.249 26.6877 93.0606 26.5934 93.0606 26.4048C93.0606 26.3105 93.249 26.2162 93.4374 26.2162C93.6257 26.2162 93.8141 26.2162 94.1909 26.1219C94.8502 25.9333 95.1328 24.9902 95.227 24.1415L97.7702 7.73287Z" fill="white"/>
<path d="M123.013 14.7114C123.013 10.9393 123.013 10.1849 122.919 9.43048C122.825 8.58176 122.637 8.20455 121.883 8.01595C121.695 7.92164 121.224 7.92164 120.941 7.92164C120.659 7.92164 120.47 7.82734 120.47 7.73304C120.47 7.54443 120.659 7.54443 121.035 7.54443C122.354 7.54443 123.955 7.63874 124.426 7.63874C125.651 7.63874 126.593 7.54443 127.44 7.54443C131.961 7.54443 132.809 9.9963 132.809 11.3165C132.809 13.3912 131.585 14.6171 130.266 15.7488C132.338 16.4089 134.787 18.2006 134.787 21.2183C134.787 23.8588 132.715 26.6879 128.1 26.6879C127.817 26.6879 127.064 26.5935 126.31 26.5935C125.556 26.4992 124.803 26.4992 124.426 26.4992C124.144 26.4992 123.578 26.4992 123.013 26.4992C122.448 26.4992 121.789 26.5935 121.318 26.5935C121.035 26.5935 120.847 26.4992 120.847 26.3106C120.847 26.2163 120.941 26.122 121.224 26.122C121.6 26.122 121.883 26.0277 122.166 26.0277C122.637 25.9334 122.825 25.3676 122.919 24.6132C123.013 23.5759 123.013 21.5955 123.013 19.2379V14.7114ZM126.027 15.1829C126.027 15.3715 126.122 15.4658 126.216 15.4658C126.404 15.5602 126.781 15.5602 127.44 15.5602C128.288 15.5602 128.853 15.4658 129.23 15.0886C129.889 14.5228 130.266 13.6741 130.266 12.4482C130.266 10.7507 129.324 8.58176 127.158 8.58176C126.781 8.58176 126.593 8.58176 126.31 8.67606C126.122 8.77037 126.122 8.86467 126.122 9.14758V15.1829H126.027ZM129.324 17.1633C128.759 16.7861 128.194 16.5975 127.252 16.5975C126.781 16.5975 126.593 16.5975 126.216 16.5975C126.122 16.5975 126.027 16.6918 126.027 16.7861V22.7271C126.027 24.4246 126.122 24.8018 126.875 25.179C127.534 25.4619 128.1 25.4619 128.665 25.4619C129.795 25.4619 131.679 24.8961 131.679 22.2556C131.773 20.6525 131.208 18.4835 129.324 17.1633Z" fill="white"/>
<path d="M137.519 16.9745C137.519 12.6365 140.344 7.16699 147.88 7.16699C154.096 7.16699 158.052 10.8448 158.052 16.5972C158.052 22.3497 154.002 26.8762 147.691 26.8762C140.439 26.7819 137.519 21.4067 137.519 16.9745ZM154.473 17.446C154.473 11.7878 151.271 8.29862 147.126 8.29862C144.206 8.29862 141.004 9.90177 141.004 16.1257C141.004 21.3124 143.924 25.4617 148.727 25.4617C150.423 25.556 154.473 24.7073 154.473 17.446Z" fill="white"/>
<path d="M174.159 19.1436C174.159 22.3499 174.159 24.0474 174.724 24.5189C175.195 24.8961 175.76 25.0847 177.738 25.0847C179.057 25.0847 180.093 25.0847 180.658 24.4246C180.941 24.1417 181.223 23.3873 181.317 22.9157C181.317 22.7271 181.412 22.5385 181.6 22.5385C181.788 22.5385 181.788 22.6328 181.788 23.0101C181.788 23.293 181.6 25.179 181.412 25.9334C181.223 26.4992 181.129 26.5935 179.81 26.5935C178.021 26.5935 176.702 26.4992 175.572 26.4992C174.441 26.4049 173.5 26.4049 172.558 26.4049C172.275 26.4049 171.71 26.4049 171.145 26.4049C170.58 26.4049 169.92 26.4992 169.449 26.4992C169.167 26.4992 168.978 26.4049 168.978 26.2163C168.978 26.122 169.073 26.0277 169.355 26.0277C169.732 26.0277 170.015 25.9334 170.297 25.9334C170.768 25.8391 170.956 25.2733 171.051 24.5189C171.145 23.4816 171.145 21.5012 171.145 19.1436V14.7114C171.145 10.9393 171.145 10.1849 171.051 9.43048C170.956 8.58176 170.768 8.20455 170.015 8.01595C169.826 7.92164 169.544 7.92164 169.167 7.92164C168.884 7.92164 168.696 7.82734 168.696 7.73304C168.696 7.54443 168.884 7.54443 169.261 7.54443C170.485 7.54443 171.993 7.63874 172.652 7.63874C173.217 7.63874 175.101 7.54443 176.043 7.54443C176.42 7.54443 176.608 7.63874 176.608 7.73304C176.608 7.92164 176.42 7.92164 176.137 7.92164C175.854 7.92164 175.478 7.92164 175.195 8.01595C174.536 8.11025 174.347 8.58176 174.253 9.43048C174.159 10.2792 174.159 10.9393 174.159 14.7114V19.1436Z" fill="white"/>
<path d="M187.722 20.0866C187.628 20.0866 187.534 20.1809 187.534 20.2752L186.215 23.6701C185.933 24.3302 185.839 24.896 185.839 25.1789C185.839 25.6504 186.027 25.9333 186.875 25.9333H187.251C187.534 25.9333 187.628 26.0276 187.628 26.1219C187.628 26.3105 187.44 26.4048 187.157 26.4048C186.31 26.4048 185.273 26.3105 184.52 26.3105C184.237 26.3105 182.824 26.4048 181.6 26.4048C181.317 26.4048 181.129 26.3105 181.129 26.1219C181.129 25.9333 181.223 25.9333 181.412 25.9333C181.6 25.9333 181.977 25.9333 182.165 25.839C183.295 25.6504 183.766 24.8017 184.332 23.5758L190.642 8.01584C190.925 7.26142 191.113 6.97852 191.302 6.97852C191.49 6.97852 191.678 7.16712 191.961 7.82724C192.526 9.24178 196.576 19.2378 198.178 23.1043C199.119 25.3675 199.873 25.7447 200.344 25.839C200.721 25.9333 201.097 25.9333 201.38 25.9333C201.568 25.9333 201.663 25.9333 201.663 26.1219C201.663 26.3105 201.474 26.4048 200.532 26.4048C199.59 26.4048 197.801 26.4048 195.823 26.3105C195.352 26.3105 195.069 26.3105 195.069 26.1219C195.069 25.9333 195.163 25.9333 195.446 25.9333C195.634 25.839 195.823 25.6504 195.634 25.3675L193.656 20.1809C193.562 20.0866 193.562 19.9923 193.374 19.9923H187.722V20.0866ZM192.809 18.7663C192.903 18.7663 192.997 18.672 192.903 18.5777L190.642 12.4481C190.642 12.3538 190.548 12.2595 190.548 12.2595C190.548 12.2595 190.454 12.3538 190.36 12.4481L188.099 18.5777C188.099 18.672 188.099 18.7663 188.193 18.7663H192.809Z" fill="white"/>
<path d="M200.909 9.902C200.627 8.95897 200.344 8.39316 199.967 8.11025C199.685 7.92164 199.214 7.92164 198.931 7.92164C198.649 7.92164 198.554 7.92164 198.554 7.73304C198.554 7.54443 198.743 7.54443 199.119 7.54443C200.438 7.54443 201.757 7.63874 202.039 7.63874C202.228 7.63874 203.358 7.54443 204.865 7.54443C205.242 7.54443 205.43 7.63874 205.43 7.73304C205.43 7.92164 205.242 7.92164 204.959 7.92164C204.771 7.92164 204.488 7.92164 204.3 8.01595C204.112 8.11025 204.017 8.29885 204.017 8.58176C204.017 8.86467 204.3 9.80769 204.583 10.845C205.054 12.5425 207.314 20.0867 207.785 21.5012H207.879L212.683 8.48746C212.966 7.82734 213.154 7.54443 213.342 7.54443C213.625 7.54443 213.719 7.92164 214.096 8.77037L219.276 21.4069H219.371C219.841 19.7095 221.819 13.1083 222.667 10.1849C222.856 9.61909 222.95 9.05327 222.95 8.77037C222.95 8.39316 222.761 8.01595 221.725 8.01595C221.443 8.01595 221.254 7.92164 221.254 7.82734C221.254 7.63874 221.443 7.63874 221.819 7.63874C223.138 7.63874 224.174 7.73304 224.457 7.73304C224.645 7.73304 225.681 7.63874 226.529 7.63874C226.812 7.63874 227 7.73304 227 7.82734C227 8.01595 226.906 8.11025 226.623 8.11025C226.341 8.11025 226.058 8.11025 225.776 8.20455C225.21 8.39316 224.928 9.43048 224.363 10.845C223.232 14.0513 220.595 21.9727 219.371 25.7448C219.088 26.5935 218.994 26.9708 218.617 26.9708C218.334 26.9708 218.24 26.6879 217.863 25.7448L212.683 13.1083H212.589C212.118 14.4285 208.821 23.293 207.691 25.6505C207.22 26.6879 207.126 26.9708 206.749 26.9708C206.466 26.9708 206.372 26.6879 206.184 26.0277L200.909 9.902Z" fill="white"/>
<path d="M59.8112 39.8899C59.8112 41.0215 59.8112 41.8703 59.9054 42.3418C59.9054 42.719 59.9996 42.9076 60.3763 43.0019C60.5647 43.0019 60.7531 43.0019 60.9415 43.0019C61.1298 43.0019 61.1298 43.0019 61.1298 43.0962C61.1298 43.1905 61.0357 43.1905 60.8473 43.1905C60.0937 43.1905 59.4344 43.1905 59.0576 43.1905C58.6809 43.1905 58.0215 43.1905 57.5506 43.1905C57.3622 43.1905 57.268 43.1905 57.268 43.0962C57.268 43.0019 57.268 43.0019 57.4564 43.0019C57.6448 43.0019 57.739 43.0019 57.8332 43.0019C58.0215 43.0019 58.1157 42.719 58.2099 42.3418C58.3041 41.8703 58.3041 41.0215 58.3041 39.8899V37.9095C58.3041 36.1178 58.3041 35.8349 58.3041 35.4577C58.3041 35.0805 58.2099 34.8919 57.8332 34.7976C57.739 34.7976 57.5506 34.7976 57.3622 34.7976C57.268 34.7976 57.1738 34.7976 57.1738 34.7033C57.1738 34.609 57.268 34.609 57.4564 34.609C57.739 34.609 58.1157 34.609 58.3983 34.609C58.6809 34.609 58.9635 34.609 59.1518 34.609C59.6228 34.609 61.8834 34.609 62.1659 34.609C62.3543 34.609 62.5427 34.609 62.6369 34.609C62.7311 34.609 62.7311 34.5146 62.8253 34.5146C62.8253 34.5146 62.9195 34.5147 62.9195 34.609C62.9195 34.7033 62.8253 34.7976 62.8253 35.0805C62.8253 35.1748 62.8253 35.8349 62.7311 36.0235C62.7311 36.1178 62.7311 36.2121 62.6369 36.2121C62.5427 36.2121 62.5427 36.1178 62.5427 36.0235C62.5427 35.9292 62.5427 35.7406 62.4485 35.552C62.3543 35.3634 62.1659 35.1748 61.695 35.1748H59.9054C59.8112 35.1748 59.8112 35.1748 59.8112 35.3634V38.2868C59.8112 38.3811 59.8112 38.3811 59.9054 38.3811H61.4124C61.6008 38.3811 61.7892 38.3811 61.8834 38.3811C62.0718 38.3811 62.2601 38.2868 62.3543 38.1924C62.4485 38.0981 62.4485 38.0981 62.5427 38.0981C62.5427 38.0981 62.6369 38.0981 62.6369 38.1924C62.6369 38.2868 62.5427 38.5697 62.5427 38.9469C62.5427 39.1355 62.5427 39.7013 62.5427 39.7956C62.5427 39.8899 62.5427 39.9842 62.4485 39.9842C62.3543 39.9842 62.3543 39.8899 62.3543 39.7956C62.3543 39.7013 62.3543 39.607 62.2601 39.4184C62.1659 39.2298 62.0718 39.0412 61.695 39.0412C61.4124 39.0412 60.1879 39.0412 59.9996 39.0412C59.9054 39.0412 59.9054 39.0412 59.9054 39.1355V39.8899H59.8112Z" fill="#9C9C9C"/>
<path d="M66.8755 38.8527C66.8755 36.8723 68.1942 34.3262 71.585 34.3262C74.4108 34.3262 76.2004 36.0236 76.2004 38.6641C76.2004 41.3046 74.3166 43.3792 71.3967 43.3792C68.1942 43.3792 66.8755 40.9274 66.8755 38.8527ZM74.5991 39.1356C74.5991 36.5894 73.0921 34.9863 71.2083 34.9863C69.8896 34.9863 68.3825 35.7407 68.3825 38.5698C68.3825 40.9274 69.7012 42.9077 71.8676 42.9077C72.7153 42.8134 74.5991 42.4362 74.5991 39.1356Z" fill="#9C9C9C"/>
<path d="M81.1925 37.8152C81.1925 36.0235 81.1925 35.7406 81.1925 35.3634C81.1925 34.9862 81.0983 34.7976 80.7215 34.7033C80.6273 34.7033 80.439 34.7033 80.2506 34.7033C80.1564 34.7033 80.0622 34.7033 80.0622 34.609C80.0622 34.5147 80.1564 34.5146 80.3448 34.5146C80.9099 34.5146 81.6634 34.5146 81.946 34.5146C82.3228 34.5146 83.1705 34.5146 83.5473 34.5146C84.3008 34.5146 85.0543 34.609 85.6195 34.9862C85.902 35.1748 86.373 35.8349 86.373 36.5893C86.373 37.438 85.9962 38.1924 84.8659 39.1355C85.902 40.4557 86.6556 41.493 87.3149 42.1532C87.9742 42.8133 88.4452 42.9076 88.6336 42.9076C88.7278 42.9076 88.8219 42.9076 88.9161 42.9076C89.0103 42.9076 89.0103 42.9076 89.0103 43.0019C89.0103 43.0962 88.9161 43.0962 88.8219 43.0962H87.6917C87.0323 43.0962 86.7497 43.0019 86.4672 42.9076C85.9962 42.6247 85.5253 42.0589 84.8659 41.2101C84.395 40.55 83.924 39.7956 83.7356 39.607C83.6414 39.5127 83.6414 39.5127 83.5473 39.5127H82.5112C82.417 39.5127 82.417 39.5127 82.417 39.607V39.7956C82.417 40.8329 82.417 41.7759 82.5112 42.2475C82.5112 42.6247 82.6053 42.8133 82.9821 42.9076C83.1705 42.9076 83.4531 42.9076 83.5473 42.9076C83.6414 42.9076 83.6415 42.9076 83.6415 43.0019C83.6415 43.0962 83.5473 43.0962 83.4531 43.0962C82.7937 43.0962 81.946 43.0962 81.7576 43.0962C81.5693 43.0962 80.8157 43.0962 80.3448 43.0962C80.1564 43.0962 80.1564 43.0962 80.1564 43.0019C80.1564 42.9076 80.1564 42.9076 80.3448 42.9076C80.5332 42.9076 80.6273 42.9076 80.7215 42.9076C80.9099 42.9076 81.0041 42.6247 81.0983 42.2475C81.1925 41.7759 81.1925 40.8329 81.1925 39.7956V37.8152ZM82.5112 38.7583C82.5112 38.8526 82.5112 38.9469 82.6053 38.9469C82.8879 39.0412 83.1705 39.0412 83.4531 39.0412C83.924 39.0412 84.0182 39.0412 84.3008 38.8526C84.6775 38.5697 84.9601 38.0981 84.9601 37.1551C84.9601 35.552 83.924 35.0805 83.1705 35.0805C82.8879 35.0805 82.6995 35.0805 82.6053 35.0805C82.5112 35.0805 82.5112 35.1748 82.5112 35.2691V38.7583Z" fill="#9C9C9C"/>
<path d="M99.8423 35.1749H98.1468C97.4875 35.1749 97.2049 35.2692 97.0165 35.5521C96.9223 35.7407 96.8282 35.835 96.8282 35.9293C96.8282 36.0236 96.734 36.0236 96.734 36.0236C96.6398 36.0236 96.6398 35.9293 96.6398 35.835C96.6398 35.6464 96.8282 34.6091 96.9223 34.5148C96.9223 34.3262 97.0165 34.3262 97.0165 34.3262C97.1107 34.3262 97.2049 34.4205 97.4875 34.4205C97.8643 34.4205 98.241 34.5148 98.6178 34.5148H103.139C103.516 34.5148 103.798 34.5148 103.892 34.4205C104.081 34.4205 104.175 34.3262 104.175 34.3262C104.269 34.3262 104.269 34.4205 104.269 34.6091C104.269 34.892 104.269 35.6464 104.269 35.9293C104.269 36.0236 104.269 36.1179 104.175 36.1179C104.081 36.1179 104.081 36.0236 104.081 35.9293V35.835C104.081 35.5521 103.704 35.1749 102.762 35.1749H101.349V39.89C101.349 40.9273 101.349 41.8704 101.444 42.3419C101.444 42.6248 101.538 42.9077 101.914 43.002C102.103 43.002 102.291 43.002 102.48 43.002C102.574 43.002 102.668 43.002 102.668 43.0963C102.668 43.1906 102.574 43.1906 102.48 43.1906C101.726 43.1906 100.973 43.1906 100.69 43.1906C100.407 43.1906 99.7481 43.1906 99.2771 43.1906C99.0887 43.1906 99.0887 43.1906 99.0887 43.0963C99.0887 43.002 99.0887 43.002 99.2771 43.002C99.4655 43.002 99.5597 43.002 99.6539 43.002C99.8423 43.002 99.9364 42.7191 100.031 42.3419C100.125 41.8704 100.125 40.9273 100.125 39.89V35.1749H99.8423Z" fill="#9C9C9C"/>
<path d="M114.913 38.1924L115.007 37.9095C115.007 36.1177 115.007 35.8348 115.007 35.4576C115.007 35.0804 114.913 34.8918 114.536 34.7975C114.442 34.7975 114.253 34.7975 114.065 34.7975C113.971 34.7975 113.877 34.7975 113.877 34.7032C113.877 34.6089 113.971 34.6089 114.159 34.6089C114.819 34.6089 115.478 34.6089 115.855 34.6089C116.137 34.6089 116.891 34.6089 117.268 34.6089C117.456 34.6089 117.55 34.6089 117.55 34.7032C117.55 34.7975 117.456 34.7975 117.362 34.7975C117.268 34.7975 117.173 34.7975 116.985 34.7975C116.702 34.8918 116.608 35.0804 116.514 35.4576C116.514 35.8348 116.514 36.1177 116.514 37.9095V39.8898C116.514 40.9272 116.514 41.8702 116.608 42.3417C116.608 42.6246 116.702 42.9075 117.079 43.0018C117.268 43.0018 117.456 43.0018 117.644 43.0018C117.739 43.0018 117.833 43.0018 117.833 43.0961C117.833 43.1904 117.739 43.1904 117.644 43.1904C116.891 43.1904 116.137 43.1904 115.855 43.1904C115.572 43.1904 114.913 43.1904 114.442 43.1904C114.253 43.1904 114.159 43.1904 114.159 43.0961C114.159 43.0018 114.159 43.0018 114.348 43.0018C114.536 43.0018 114.63 43.0018 114.724 43.0018C114.913 43.0018 115.007 42.7189 115.101 42.3417C115.195 41.8702 115.195 40.9272 115.195 39.8898V38.8525C115.195 38.8525 115.195 38.7582 115.101 38.7582H110.674C110.674 38.7582 110.58 38.7582 110.58 38.8525V39.8898C110.58 40.9272 110.58 41.8702 110.674 42.3417C110.674 42.6246 110.768 42.9075 111.145 43.0018C111.334 43.0018 111.522 43.0018 111.71 43.0018C111.805 43.0018 111.899 43.0018 111.899 43.0961C111.899 43.1904 111.805 43.1904 111.71 43.1904C110.957 43.1904 110.203 43.1904 109.921 43.1904C109.638 43.1904 108.979 43.1904 108.508 43.1904C108.319 43.1904 108.319 43.1904 108.319 43.0961C108.319 43.0018 108.319 43.0018 108.508 43.0018C108.696 43.0018 108.79 43.0018 108.885 43.0018C109.073 43.0018 109.167 42.7189 109.261 42.3417C109.356 41.8702 109.356 40.9272 109.356 39.8898V37.9095C109.356 36.1177 109.356 35.8348 109.356 35.4576C109.356 35.0804 109.261 34.8918 108.885 34.7975C108.79 34.7975 108.602 34.7975 108.414 34.7975C108.319 34.7975 108.225 34.7975 108.225 34.7032C108.225 34.6089 108.319 34.6089 108.508 34.6089C109.167 34.6089 109.827 34.6089 110.203 34.6089C110.486 34.6089 111.239 34.6089 111.616 34.6089C111.805 34.6089 111.899 34.6089 111.899 34.7032C111.899 34.7975 111.805 34.7975 111.71 34.7975C111.616 34.7975 111.522 34.7975 111.334 34.7975C111.051 34.8918 110.957 35.0804 110.863 35.4576C110.863 35.8348 110.863 36.1177 110.863 37.9095V38.1924C110.863 38.2867 110.863 38.2867 110.957 38.2867H114.913V38.1924Z" fill="#9C9C9C"/>
<path d="M122.731 37.8153C122.731 36.0236 122.731 35.7406 122.731 35.3634C122.731 34.9862 122.636 34.7976 122.26 34.7033C122.166 34.7033 121.977 34.7033 121.789 34.7033C121.695 34.7033 121.6 34.7033 121.6 34.609C121.6 34.5147 121.695 34.5147 121.883 34.5147C122.166 34.5147 122.542 34.5147 122.825 34.5147C123.107 34.5147 123.39 34.5147 123.578 34.5147C123.955 34.5147 126.216 34.5147 126.498 34.5147C126.687 34.5147 126.875 34.5147 126.969 34.4204C127.063 34.4204 127.063 34.4204 127.158 34.4204C127.252 34.4204 127.252 34.4204 127.252 34.5147C127.252 34.609 127.158 34.7033 127.158 35.2691C127.158 35.3634 127.158 35.9293 127.063 36.0236C127.063 36.1179 127.063 36.1179 126.969 36.1179C126.875 36.1179 126.875 36.0236 126.875 35.9292C126.875 35.8349 126.875 35.6463 126.781 35.552C126.687 35.3634 126.593 35.1748 126.027 35.1748C125.839 35.1748 124.615 35.1748 124.426 35.1748C124.332 35.1748 124.332 35.1748 124.332 35.2691V38.1925C124.332 38.2868 124.332 38.2868 124.426 38.2868C124.709 38.2868 126.027 38.2868 126.31 38.2868C126.593 38.2868 126.781 38.1925 126.875 38.0982C126.969 38.0039 126.969 37.9096 127.063 37.9096C127.063 37.9096 127.158 37.9096 127.158 38.0039C127.158 38.0982 127.158 38.2868 127.063 38.8526C127.063 39.0412 127.063 39.5127 127.063 39.6071C127.063 39.7014 127.063 39.7957 126.969 39.7957C126.875 39.7957 126.875 39.7957 126.875 39.7014C126.875 39.607 126.875 39.4184 126.875 39.3241C126.781 39.1355 126.687 38.9469 126.216 38.8526C126.027 38.8526 124.897 38.8526 124.615 38.8526C124.52 38.8526 124.52 38.8526 124.52 38.9469V39.89C124.52 40.2672 124.52 41.3045 124.52 41.6817C124.52 42.4361 124.709 42.6247 125.933 42.6247C126.216 42.6247 126.687 42.6247 126.969 42.5304C127.252 42.4361 127.44 42.1532 127.44 41.6817C127.44 41.5874 127.44 41.4931 127.534 41.4931C127.629 41.4931 127.629 41.5874 127.629 41.6817C127.629 41.9646 127.534 42.719 127.44 43.0019C127.346 43.2848 127.252 43.2849 126.781 43.2849C125.933 43.2849 125.274 43.2849 124.803 43.2849C124.332 43.2849 123.955 43.2849 123.578 43.2849C123.484 43.2849 123.202 43.2849 122.919 43.2849C122.636 43.2849 122.354 43.2849 122.166 43.2849C121.977 43.2849 121.977 43.2848 121.977 43.1905C121.977 43.0962 121.977 43.0962 122.166 43.0962C122.354 43.0962 122.448 43.0962 122.542 43.0962C122.731 43.0962 122.825 42.8133 122.919 42.4361C123.013 41.9646 123.013 41.0216 123.013 39.9843V37.8153H122.731Z" fill="#9C9C9C"/>
<path d="M138.461 37.8152C138.461 36.0235 138.461 35.7406 138.461 35.3634C138.461 34.9862 138.366 34.7976 137.99 34.7033C137.895 34.7033 137.707 34.7033 137.519 34.7033C137.424 34.7033 137.33 34.7033 137.33 34.609C137.33 34.5147 137.424 34.5146 137.613 34.5146C138.178 34.5146 138.931 34.5146 139.308 34.5146C139.685 34.5146 140.344 34.5146 141.098 34.5146C142.511 34.5146 144.489 34.5146 145.713 35.8349C146.278 36.4007 146.844 37.3437 146.844 38.7583C146.844 40.1728 146.278 41.3044 145.619 41.9646C145.054 42.5304 143.924 43.2848 141.757 43.2848C141.38 43.2848 140.91 43.2848 140.439 43.1905C139.968 43.1905 139.591 43.0962 139.308 43.0962C139.214 43.0962 138.932 43.0962 138.649 43.0962C138.366 43.0962 138.084 43.0962 137.895 43.0962C137.707 43.0962 137.707 43.0962 137.707 43.0019C137.707 42.9076 137.707 42.9076 137.895 42.9076C138.084 42.9076 138.178 42.9076 138.272 42.9076C138.461 42.9076 138.555 42.6247 138.649 42.2475C138.743 41.7759 138.743 40.8329 138.743 39.7956V37.8152H138.461ZM139.968 39.1355C139.968 40.3614 139.968 41.2101 139.968 41.493C139.968 41.7759 139.968 42.2475 140.062 42.3418C140.25 42.5304 140.627 42.8133 141.569 42.8133C142.699 42.8133 143.547 42.6247 144.206 41.9646C144.96 41.3044 145.148 40.2671 145.148 39.1355C145.148 37.6266 144.583 36.6836 144.018 36.2121C142.982 35.1748 141.663 35.0805 140.721 35.0805C140.533 35.0805 140.062 35.0805 139.968 35.1748C139.873 35.1748 139.873 35.2691 139.873 35.3634C139.873 35.7406 139.873 36.7779 139.873 37.6266V39.1355H139.968Z" fill="#9C9C9C"/>
<path d="M151.647 37.8152C151.647 36.0235 151.647 35.7406 151.647 35.3634C151.647 34.9862 151.553 34.7976 151.176 34.7033C151.082 34.7033 150.894 34.7033 150.705 34.7033C150.611 34.7033 150.517 34.7033 150.517 34.609C150.517 34.5147 150.611 34.5146 150.8 34.5146C151.365 34.5146 152.118 34.5146 152.401 34.5146C152.778 34.5146 153.625 34.5146 154.002 34.5146C154.756 34.5146 155.509 34.609 156.074 34.9862C156.357 35.1748 156.828 35.8349 156.828 36.5893C156.828 37.438 156.451 38.1924 155.321 39.1355C156.357 40.4557 157.11 41.493 157.77 42.1532C158.429 42.8133 158.9 42.9076 159.088 42.9076C159.183 42.9076 159.277 42.9076 159.371 42.9076C159.465 42.9076 159.465 42.9076 159.465 43.0019C159.465 43.0962 159.371 43.0962 159.277 43.0962H158.241C157.581 43.0962 157.299 43.0019 157.016 42.9076C156.545 42.6247 156.074 42.0589 155.415 41.2101C154.944 40.55 154.473 39.7956 154.285 39.607C154.19 39.5127 154.19 39.5127 154.096 39.5127H153.06C152.966 39.5127 152.966 39.5127 152.966 39.607V39.7956C152.966 40.8329 152.966 41.7759 153.06 42.2475C153.06 42.6247 153.154 42.8133 153.531 42.9076C153.719 42.9076 154.002 42.9076 154.096 42.9076C154.19 42.9076 154.19 42.9076 154.19 43.0019C154.19 43.0962 154.096 43.0962 154.002 43.0962C153.343 43.0962 152.495 43.0962 152.307 43.0962C152.118 43.0962 151.365 43.0962 150.894 43.0962C150.705 43.0962 150.705 43.0962 150.705 43.0019C150.705 42.9076 150.705 42.9076 150.894 42.9076C151.082 42.9076 151.176 42.9076 151.271 42.9076C151.459 42.9076 151.553 42.6247 151.647 42.2475C151.741 41.7759 151.741 40.8329 151.741 39.7956V37.8152H151.647ZM153.06 38.7583C153.06 38.8526 153.06 38.9469 153.154 38.9469C153.437 39.0412 153.719 39.0412 154.002 39.0412C154.473 39.0412 154.567 39.0412 154.85 38.8526C155.227 38.5697 155.509 38.0981 155.509 37.1551C155.509 35.552 154.473 35.0805 153.719 35.0805C153.437 35.0805 153.249 35.0805 153.154 35.0805C153.06 35.0805 153.06 35.1748 153.06 35.2691V38.7583Z" fill="#9C9C9C"/>
<path d="M162.856 37.8153C162.856 36.0236 162.856 35.7406 162.856 35.3634C162.856 34.9862 162.762 34.7976 162.385 34.7033C162.291 34.7033 162.102 34.7033 161.914 34.7033C161.82 34.7033 161.726 34.7033 161.726 34.609C161.726 34.5147 161.82 34.5147 162.008 34.5147C162.291 34.5147 162.668 34.5147 162.95 34.5147C163.233 34.5147 163.515 34.5147 163.704 34.5147C164.08 34.5147 166.341 34.5147 166.624 34.5147C166.812 34.5147 167 34.5147 167.095 34.4204C167.189 34.4204 167.189 34.4204 167.283 34.4204C167.377 34.4204 167.377 34.4204 167.377 34.5147C167.377 34.609 167.283 34.7033 167.283 35.2691C167.283 35.3634 167.283 35.9293 167.189 36.0236C167.189 36.1179 167.189 36.1179 167.095 36.1179C167 36.1179 167 36.0236 167 35.9292C167 35.8349 167 35.6463 166.906 35.552C166.812 35.3634 166.718 35.1748 166.153 35.1748C165.964 35.1748 164.74 35.1748 164.551 35.1748C164.457 35.1748 164.457 35.1748 164.457 35.2691V38.1925C164.457 38.2868 164.457 38.2868 164.551 38.2868C164.834 38.2868 166.153 38.2868 166.435 38.2868C166.718 38.2868 166.906 38.1925 167 38.0982C167.095 38.0039 167.095 37.9096 167.189 37.9096C167.189 37.9096 167.283 37.9096 167.283 38.0039C167.283 38.0982 167.283 38.2868 167.189 38.8526C167.189 39.0412 167.189 39.5127 167.189 39.6071C167.189 39.7014 167.189 39.7957 167.095 39.7957C167 39.7957 167 39.7957 167 39.7014C167 39.607 167 39.4184 167 39.3241C166.906 39.1355 166.812 38.9469 166.341 38.8526C166.153 38.8526 165.022 38.8526 164.74 38.8526C164.646 38.8526 164.646 38.8526 164.646 38.9469V39.89C164.646 40.2672 164.646 41.3045 164.646 41.6817C164.646 42.4361 164.834 42.6247 166.058 42.6247C166.341 42.6247 166.812 42.6247 167.095 42.5304C167.377 42.4361 167.566 42.1532 167.566 41.6817C167.566 41.5874 167.566 41.4931 167.66 41.4931C167.754 41.4931 167.754 41.5874 167.754 41.6817C167.754 41.9646 167.66 42.719 167.566 43.0019C167.471 43.2848 167.377 43.2849 166.906 43.2849C166.058 43.2849 165.399 43.2849 164.928 43.2849C164.457 43.2849 164.08 43.2849 163.704 43.2849C163.61 43.2849 163.327 43.2849 163.044 43.2849C162.762 43.2849 162.479 43.2849 162.291 43.2849C162.102 43.2849 162.102 43.2848 162.102 43.1905C162.102 43.0962 162.102 43.0962 162.291 43.0962C162.479 43.0962 162.573 43.0962 162.668 43.0962C162.856 43.0962 162.95 42.8133 163.044 42.4361C163.139 41.9646 163.139 41.0216 163.139 39.9843V37.8153H162.856Z" fill="#9C9C9C"/>
<path d="M173.123 40.2672C173.029 40.2672 173.029 40.2672 173.029 40.3615L172.369 41.9647C172.275 42.2476 172.181 42.5305 172.181 42.6248C172.181 42.8134 172.275 43.002 172.652 43.002H172.84C172.934 43.002 173.029 43.002 173.029 43.0963C173.029 43.1906 172.934 43.1906 172.84 43.1906C172.463 43.1906 171.993 43.1906 171.616 43.1906C171.522 43.1906 170.862 43.1906 170.297 43.1906C170.109 43.1906 170.109 43.1906 170.109 43.0963C170.109 43.002 170.109 43.002 170.203 43.002C170.297 43.002 170.485 43.002 170.58 43.002C171.145 42.9077 171.333 42.5305 171.522 41.9647L174.441 34.7977C174.536 34.4205 174.63 34.3262 174.724 34.3262C174.818 34.3262 174.912 34.4205 175.007 34.7034C175.289 35.3635 177.079 39.9843 177.832 41.6818C178.303 42.7191 178.586 42.9077 178.868 42.9077C179.057 42.9077 179.245 42.9077 179.339 42.9077C179.434 42.9077 179.528 42.9077 179.528 43.002C179.528 43.0963 179.434 43.0963 178.963 43.0963C178.586 43.0963 177.738 43.0963 176.796 43.0963C176.608 43.0963 176.419 43.0963 176.419 43.002C176.419 42.9077 176.419 42.9077 176.608 42.9077C176.702 42.9077 176.796 42.8134 176.702 42.6248L175.76 40.2672C175.76 40.1729 175.666 40.1729 175.666 40.1729H173.123V40.2672ZM175.478 39.7014L174.536 36.778C174.536 36.778 174.536 36.6837 174.441 36.6837L174.347 36.778L173.311 39.6071V39.7014H175.478Z" fill="#9C9C9C"/>
<path d="M183.861 34.7033C183.861 34.5147 183.955 34.4204 184.049 34.4204C184.143 34.4204 184.237 34.5147 184.332 34.7976L187.44 41.2102L190.548 34.7033C190.642 34.5147 190.736 34.4204 190.831 34.4204C190.925 34.4204 191.019 34.5147 191.019 34.7976L192.055 41.8703C192.149 42.6247 192.244 42.9076 192.62 43.0019C192.997 43.0962 193.185 43.0962 193.374 43.0962C193.468 43.0962 193.562 43.0962 193.562 43.1905C193.562 43.2848 193.468 43.2849 193.28 43.2849C192.997 43.2849 191.396 43.2848 190.925 43.1905C190.642 43.1905 190.548 43.0962 190.548 43.0962C190.548 43.0019 190.548 43.0019 190.642 43.0019C190.736 43.0019 190.736 42.8133 190.736 42.5304L190.077 37.5324L187.534 42.6247C187.251 43.1905 187.251 43.2849 187.063 43.2849C186.969 43.2849 186.875 43.0962 186.686 42.719C186.404 42.1532 185.462 40.4558 185.368 40.0786C185.273 39.7957 184.614 38.4754 184.143 37.6267L183.578 42.1532C183.578 42.3418 183.578 42.5304 183.578 42.719C183.578 42.9076 183.766 43.0019 183.955 43.0962C184.143 43.0962 184.332 43.1905 184.426 43.1905C184.52 43.1905 184.614 43.1905 184.614 43.2849C184.614 43.3792 184.52 43.3792 184.332 43.3792C183.861 43.3792 183.295 43.3792 183.107 43.3792C182.919 43.3792 182.354 43.3792 181.977 43.3792C181.883 43.3792 181.788 43.3792 181.788 43.2849C181.788 43.1905 181.883 43.1905 181.977 43.1905C182.071 43.1905 182.165 43.1905 182.354 43.1905C182.636 43.0962 182.73 42.719 182.824 42.2475L183.861 34.7033Z" fill="#9C9C9C"/>
<path d="M197.989 37.8153C197.989 36.0236 197.989 35.7406 197.989 35.3634C197.989 34.9862 197.895 34.7976 197.518 34.7033C197.424 34.7033 197.236 34.7033 197.047 34.7033C196.953 34.7033 196.859 34.7033 196.859 34.609C196.859 34.5147 196.953 34.5147 197.141 34.5147C197.424 34.5147 197.801 34.5147 198.083 34.5147C198.366 34.5147 198.649 34.5147 198.837 34.5147C199.214 34.5147 201.474 34.5147 201.757 34.5147C201.945 34.5147 202.134 34.5147 202.228 34.4204C202.322 34.4204 202.322 34.4204 202.416 34.4204C202.51 34.4204 202.51 34.4204 202.51 34.5147C202.51 34.609 202.416 34.7033 202.416 35.2691C202.416 35.3634 202.416 35.9293 202.322 36.0236C202.322 36.1179 202.322 36.1179 202.228 36.1179C202.134 36.1179 202.134 36.0236 202.134 35.9292C202.134 35.8349 202.134 35.6463 202.039 35.552C201.945 35.3634 201.851 35.1748 201.286 35.1748C201.097 35.1748 199.873 35.1748 199.685 35.1748C199.59 35.1748 199.59 35.1748 199.59 35.2691V38.1925C199.59 38.2868 199.59 38.2868 199.685 38.2868C199.967 38.2868 201.286 38.2868 201.568 38.2868C201.851 38.2868 202.039 38.1925 202.134 38.0982C202.228 38.0039 202.228 37.9096 202.322 37.9096C202.322 37.9096 202.416 37.9096 202.416 38.0039C202.416 38.0982 202.416 38.2868 202.322 38.8526C202.322 39.0412 202.322 39.5127 202.322 39.6071C202.322 39.7014 202.322 39.7957 202.228 39.7957C202.134 39.7957 202.134 39.7957 202.134 39.7014C202.134 39.607 202.134 39.4184 202.134 39.3241C202.039 39.1355 201.945 38.9469 201.474 38.8526C201.286 38.8526 200.156 38.8526 199.873 38.8526C199.779 38.8526 199.779 38.8526 199.779 38.9469V39.89C199.779 40.2672 199.779 41.3045 199.779 41.6817C199.779 42.4361 199.967 42.6247 201.192 42.6247C201.474 42.6247 201.945 42.6247 202.228 42.5304C202.51 42.4361 202.699 42.1532 202.699 41.6817C202.699 41.5874 202.699 41.4931 202.793 41.4931C202.887 41.4931 202.887 41.5874 202.887 41.6817C202.887 41.9646 202.793 42.719 202.699 43.0019C202.605 43.2848 202.51 43.2849 202.039 43.2849C201.192 43.2849 200.532 43.2849 200.061 43.2849C199.59 43.2849 199.214 43.2849 198.837 43.2849C198.743 43.2849 198.46 43.2849 198.178 43.2849C197.895 43.2849 197.612 43.2849 197.424 43.2849C197.236 43.2849 197.236 43.2848 197.236 43.1905C197.236 43.0962 197.236 43.0962 197.424 43.0962C197.612 43.0962 197.707 43.0962 197.801 43.0962C197.989 43.0962 198.083 42.8133 198.178 42.4361C198.272 41.9646 198.272 41.0216 198.272 39.9843V37.8153H197.989Z" fill="#9C9C9C"/>
<path d="M207.785 37.8152C207.785 36.0235 207.785 35.7406 207.785 35.3634C207.785 34.9862 207.691 34.7976 207.314 34.7033C207.22 34.7033 207.031 34.7033 206.843 34.7033C206.749 34.7033 206.655 34.7033 206.655 34.609C206.655 34.5147 206.749 34.5146 206.937 34.5146C207.502 34.5146 208.256 34.5146 208.539 34.5146C208.915 34.5146 209.763 34.5146 210.14 34.5146C210.893 34.5146 211.647 34.609 212.212 34.9862C212.495 35.1748 212.966 35.8349 212.966 36.5893C212.966 37.438 212.589 38.1924 211.458 39.1355C212.495 40.4557 213.248 41.493 213.907 42.1532C214.567 42.8133 215.038 42.9076 215.226 42.9076C215.32 42.9076 215.414 42.9076 215.509 42.9076C215.603 42.9076 215.603 42.9076 215.603 43.0019C215.603 43.0962 215.509 43.0962 215.414 43.0962H214.284C213.625 43.0962 213.342 43.0019 213.06 42.9076C212.589 42.6247 212.118 42.0589 211.458 41.2101C210.988 40.55 210.517 39.7956 210.328 39.607C210.234 39.5127 210.234 39.5127 210.14 39.5127H209.104C209.01 39.5127 209.009 39.5127 209.009 39.607V39.7956C209.009 40.8329 209.01 41.7759 209.104 42.2475C209.104 42.6247 209.198 42.8133 209.575 42.9076C209.763 42.9076 210.046 42.9076 210.14 42.9076C210.234 42.9076 210.234 42.9076 210.234 43.0019C210.234 43.0962 210.14 43.0962 210.046 43.0962C209.386 43.0962 208.539 43.0962 208.35 43.0962C208.162 43.0962 207.408 43.0962 206.937 43.0962C206.749 43.0962 206.749 43.0962 206.749 43.0019C206.749 42.9076 206.749 42.9076 206.937 42.9076C207.126 42.9076 207.22 42.9076 207.314 42.9076C207.502 42.9076 207.597 42.6247 207.691 42.2475C207.785 41.7759 207.785 40.8329 207.785 39.7956V37.8152ZM209.104 38.7583C209.104 38.8526 209.104 38.9469 209.198 38.9469C209.48 39.0412 209.763 39.0412 210.046 39.0412C210.517 39.0412 210.611 39.0412 210.893 38.8526C211.27 38.5697 211.553 38.0981 211.553 37.1551C211.553 35.552 210.517 35.0805 209.763 35.0805C209.48 35.0805 209.292 35.0805 209.198 35.0805C209.104 35.0805 209.104 35.1748 209.104 35.2691V38.7583Z" fill="#9C9C9C"/>
<path d="M218.146 43.0963C217.958 43.002 217.958 43.002 217.958 42.7191C217.958 42.059 217.958 41.3989 218.052 41.2103C218.052 41.0217 218.052 40.9274 218.146 40.9274C218.24 40.9274 218.24 41.0217 218.24 41.116C218.24 41.3046 218.24 41.4932 218.334 41.6818C218.617 42.5305 219.276 42.8134 219.936 42.8134C220.972 42.8134 221.443 42.1533 221.443 41.4932C221.443 40.9273 221.254 40.3615 220.312 39.6071L219.747 39.2299C218.523 38.2869 218.052 37.4382 218.052 36.4951C218.052 35.2692 219.088 34.3262 220.689 34.3262C221.443 34.3262 221.914 34.4205 222.196 34.5148C222.29 34.5148 222.385 34.6091 222.385 34.6091C222.385 34.7977 222.385 35.0806 222.385 36.0236C222.385 36.3065 222.385 36.4008 222.29 36.4008C222.196 36.4008 222.196 36.3065 222.196 36.2122C222.196 36.1179 222.102 35.7407 221.914 35.4578C221.725 35.2692 221.443 34.892 220.689 34.892C219.841 34.892 219.276 35.3635 219.276 36.1179C219.276 36.6837 219.559 37.0609 220.501 37.8154L220.783 38.0983C222.196 39.1356 222.667 39.9843 222.667 41.0217C222.667 41.6818 222.385 42.4362 221.631 43.002C221.066 43.3792 220.407 43.4735 219.841 43.4735C219.182 43.3792 218.617 43.2849 218.146 43.0963Z" fill="#9C9C9C"/>
<path d="M16.2008 2.73486C16.0124 2.73486 15.9182 2.73486 15.6357 2.82917C14.5996 3.01777 14.317 3.67789 14.2228 4.99812C14.1286 6.22406 14.1286 12.1651 14.1286 17.9176V19.615H14.317C15.6357 18.2005 21.1929 12.5423 22.229 11.2221C23.2651 9.99616 24.1128 9.05313 24.1128 8.39302C24.1128 8.01581 23.9245 7.7329 23.5477 7.6386C23.1709 7.54429 23.0767 7.44999 23.0767 7.26139C23.0767 6.97848 23.2651 6.88418 23.6419 6.88418C24.3954 6.88418 26.5618 6.97848 27.5979 6.97848C28.8224 6.97848 30.8946 6.88418 32.0249 6.88418C32.4016 6.88418 32.6842 6.97848 32.6842 7.26139C32.6842 7.54429 32.4958 7.6386 32.1191 7.6386C31.5539 7.6386 30.612 7.8272 29.9527 8.01581C28.7282 8.48732 27.5037 9.24174 25.8083 10.8449C24.5838 11.9765 18.9323 17.729 17.6137 19.0492C18.744 20.558 24.207 26.4991 26.8444 29.1396V26.6877C26.8444 20.9353 26.8444 19.8979 26.7502 18.672C26.656 17.3518 26.3734 16.7859 25.1489 16.503C24.8664 16.4087 24.3954 16.4087 23.9245 16.4087C23.5477 16.4087 23.2651 16.3144 23.2651 16.0315C23.2651 15.7486 23.5477 15.6543 24.1128 15.6543C25.9025 15.6543 28.2572 15.7486 29.2933 15.7486C30.2352 15.7486 32.9668 15.6543 34.4738 15.6543C35.039 15.6543 35.2274 15.7486 35.2274 16.0315C35.2274 16.3144 35.039 16.4087 34.568 16.4087C34.1913 16.4087 33.5319 16.4087 33.061 16.503C32.0249 16.6916 31.7423 17.3518 31.6481 18.672C31.5539 19.8979 31.5539 20.9353 31.5539 26.6877V33.3832C32.1191 33.7604 32.7784 34.1376 33.3435 34.3262C34.4738 34.7977 35.2274 34.892 35.6983 34.892C35.9809 34.892 36.1693 34.9863 36.1693 35.1749C36.1693 35.4578 35.9809 35.5522 35.2274 35.5522H31.9307C31.7423 35.5522 31.6481 35.5522 31.4597 35.5522C31.4597 39.2299 31.5539 41.8704 32.2132 42.4362C32.8726 43.0021 33.8145 43.285 36.8286 43.285C38.8066 43.285 40.3137 43.285 41.2556 42.2476C41.7265 41.7761 42.1975 40.7388 42.1975 39.9844C42.1975 39.6072 42.2917 39.4186 42.5742 39.4186C42.8568 39.4186 42.8568 39.6072 42.8568 40.0787C42.8568 40.4559 42.5742 43.285 42.2917 44.4166C42.1975 44.6995 42.1033 44.9824 41.9149 45.171H45.2116V2.73486H16.2008Z" fill="white"/>
<path d="M29.9527 35.8351C29.1991 35.9294 26.8444 35.3635 24.7722 33.1003C23.0767 31.5914 15.6357 22.8213 14.7879 21.6897L14.4112 21.1239H14.2228V24.6131C14.2228 28.1023 14.2228 31.1199 14.317 32.7231C14.4112 33.7604 14.6937 34.6091 15.7298 34.7977C16.295 34.892 17.1427 34.9863 17.6137 34.9863C17.8962 34.9863 18.0846 35.0806 18.0846 35.2692C18.0846 35.5522 17.802 35.6465 17.3311 35.6465C15.1647 35.6465 12.8099 35.5522 11.868 35.5522C11.0203 35.5522 8.57134 35.6465 7.06429 35.6465C6.59333 35.6465 6.31076 35.5522 6.31076 35.2692C6.31076 35.0806 6.49914 34.9863 6.8759 34.9863C7.44105 34.9863 7.912 34.892 8.28877 34.7977C9.04229 34.6091 9.23068 33.7604 9.41906 32.7231C9.60744 31.1199 9.60744 28.1023 9.60744 24.6131V17.9176C9.60744 12.1651 9.60744 6.22406 9.51325 4.99812C9.41906 3.67789 9.13649 3.11207 7.81781 2.82917C7.72362 2.82917 7.44105 2.73486 7.25267 2.73486H2.73151V45.171H23.7361C23.7361 45.0767 23.6419 45.0767 23.6419 44.9824C23.6419 44.7938 23.8303 44.6995 24.207 44.6995C24.7722 44.6995 25.2431 44.6052 25.5257 44.5109C26.2792 44.3223 26.4676 43.5679 26.656 42.4362C26.8444 41.2103 26.8444 38.6641 26.8444 35.9294C28.8224 36.4009 29.9527 35.8351 29.9527 35.8351Z" fill="#00AED4"/>
</svg>
