<svg width="227" height="48" viewBox="0 0 227 48" fill="none" xmlns="http://www.w3.org/2000/svg">
<path d="M46.7187 1.13163V46.7741H1.13029V1.13163H46.7187ZM47.9432 0H0V48H47.9432V0Z" fill="#1A2B56"/>
<path d="M62.9195 15.8428C63.7672 14.8998 67.4407 11.1277 68.1942 10.279C68.8535 9.43027 69.4187 8.86446 69.4187 8.39294C69.4187 8.11003 69.3245 7.92143 69.0419 7.92143C68.8535 7.92143 68.7593 7.82713 68.7593 7.73282C68.7593 7.54422 68.8535 7.54422 69.1361 7.54422C69.7012 7.54422 71.0199 7.63852 71.6793 7.63852C72.4328 7.63852 73.8456 7.54422 74.5992 7.54422C74.8817 7.54422 75.0701 7.63852 75.0701 7.73282C75.0701 7.92143 74.9759 7.92143 74.6934 7.92143C74.3166 7.92143 73.7515 8.01573 73.2805 8.20434C72.527 8.48725 71.6793 9.05306 70.6432 10.0904C69.8896 10.8448 66.122 14.6169 65.1801 15.5599C66.122 16.7859 71.0199 22.0668 71.9618 23.0098C73.0921 24.0472 74.2224 25.1788 75.5411 25.7446C76.2946 26.0275 76.7656 26.1218 77.1423 26.1218C77.3307 26.1218 77.4249 26.2161 77.4249 26.3104C77.4249 26.499 77.3307 26.5933 76.8598 26.5933H74.6934C73.9398 26.5933 73.4689 26.5933 72.9979 26.499C71.6793 26.4047 70.9257 25.8389 69.8896 24.8959C68.7593 23.9529 63.8614 18.1061 63.2963 17.3517L63.0137 16.9745H62.9195V19.2377C62.9195 21.501 62.9195 23.5757 63.0137 24.613C63.1079 25.2731 63.2963 25.8389 63.9556 25.9332C64.3324 26.0275 64.8975 26.0275 65.1801 26.0275C65.3685 26.0275 65.4627 26.1218 65.4627 26.2161C65.4627 26.4047 65.2743 26.499 64.9917 26.499C63.5788 26.499 61.9776 26.4047 61.4124 26.4047C60.8473 26.4047 59.2461 26.499 58.21 26.499C57.9274 26.499 57.739 26.4047 57.739 26.2161C57.739 26.1218 57.8332 26.0275 58.1158 26.0275C58.4925 26.0275 58.7751 25.9332 59.0577 25.9332C59.5286 25.8389 59.717 25.2731 59.8112 24.5187C59.9054 23.4814 59.9054 21.501 59.9054 19.1434V14.7112C59.9054 10.9391 59.9054 10.1847 59.8112 9.43027C59.717 8.58155 59.5286 8.20434 58.7751 8.01573C58.5867 7.92143 58.1158 7.92143 57.8332 7.92143C57.5506 7.92143 57.3622 7.82713 57.3622 7.73282C57.3622 7.54422 57.5506 7.54422 57.9274 7.54422C59.2461 7.54422 60.8473 7.63852 61.4124 7.63852C61.9776 7.63852 63.5788 7.54422 64.4266 7.54422C64.8033 7.54422 64.9917 7.63852 64.9917 7.73282C64.9917 7.92143 64.8033 7.92143 64.6149 7.92143C64.3324 7.92143 64.2382 7.92143 63.9556 8.01573C63.2963 8.11004 63.1079 8.58155 63.0137 9.43027C62.9195 10.279 62.9195 10.9391 62.9195 14.7112V15.8428Z" fill="#1A2B56"/>
<path d="M79.7797 20.0864C79.6855 20.0864 79.5913 20.1808 79.5913 20.2751L78.1784 23.6699C77.8958 24.3301 77.8016 24.8959 77.8016 25.1788C77.8016 25.6503 77.99 25.9332 78.8377 25.9332H79.2145C79.4971 25.9332 79.5913 26.0275 79.5913 26.1218C79.5913 26.3104 79.4029 26.4047 79.1203 26.4047C78.2726 26.4047 77.2365 26.3104 76.483 26.3104C76.2004 26.3104 74.7875 26.4047 73.5631 26.4047C73.2805 26.4047 73.0921 26.3104 73.0921 26.1218C73.0921 25.9332 73.1863 25.9332 73.3747 25.9332C73.5631 25.9332 73.9398 25.9332 74.1282 25.8389C75.2585 25.6503 75.7294 24.8016 76.2946 23.5756L82.6054 8.01572C82.888 7.2613 83.0763 6.97839 83.2647 6.97839C83.4531 6.97839 83.6415 7.167 83.9241 7.82712C84.4892 9.24165 88.5394 19.2377 90.1406 23.1041C91.0826 25.3674 91.8361 25.7446 92.307 25.8389C92.6838 25.9332 93.0606 25.9332 93.3431 25.9332C93.5315 25.9332 93.6257 25.9332 93.6257 26.1218C93.6257 26.3104 93.4373 26.4047 92.4954 26.4047C91.5535 26.4047 89.7639 26.4047 87.7859 26.3104C87.3149 26.3104 87.0324 26.3104 87.0324 26.1218C87.0324 25.9332 87.1265 25.9332 87.4091 25.9332C87.5975 25.8389 87.7859 25.6503 87.5975 25.3674L85.6195 20.1808C85.5253 20.0864 85.5253 19.9921 85.3369 19.9921H79.7797V20.0864ZM84.9602 18.7662C85.0543 18.7662 85.1485 18.6719 85.0543 18.5776L82.7938 12.4479C82.7938 12.3536 82.6996 12.2593 82.6996 12.2593C82.6996 12.2593 82.6054 12.3536 82.5112 12.4479L80.1564 18.5776C80.1564 18.6719 80.1564 18.7662 80.2506 18.7662H84.9602Z" fill="#1A2B56"/>
<path d="M97.7702 7.73281C97.8643 7.2613 97.9585 7.07269 98.2411 7.07269C98.5237 7.07269 98.6179 7.167 98.9004 7.82711L105.776 21.7839L112.558 7.63851C112.746 7.2613 112.841 7.07269 113.123 7.07269C113.406 7.07269 113.5 7.3556 113.594 7.82711L115.855 23.1984C116.043 24.8016 116.326 25.4617 117.079 25.7446C117.833 25.9332 118.304 26.0275 118.681 26.0275C118.869 26.0275 119.057 26.0275 119.057 26.2161C119.057 26.4047 118.775 26.499 118.398 26.499C117.739 26.499 114.348 26.4047 113.312 26.4047C112.747 26.3104 112.558 26.3104 112.558 26.1218C112.558 26.0275 112.652 25.9332 112.841 25.8389C113.029 25.7446 113.029 25.4617 112.935 24.8016L111.428 13.8625H111.334L105.871 25.0845C105.305 26.3104 105.211 26.499 104.929 26.499C104.74 26.499 104.458 26.0275 104.081 25.2731C103.516 24.1415 101.538 20.275 101.161 19.6149C100.973 19.0491 99.4656 16.1257 98.5237 14.2397H98.4295L97.1108 24.0472C97.0166 24.5187 97.0166 24.8016 97.0166 25.2731C97.0166 25.7446 97.2992 25.9332 97.7702 26.1218C98.2411 26.2161 98.6179 26.2161 98.8062 26.2161C98.9946 26.2161 99.183 26.3104 99.183 26.4047C99.183 26.5933 98.9946 26.6876 98.6179 26.6876C97.5818 26.6876 96.4515 26.5933 95.9805 26.5933C95.5096 26.5933 94.2851 26.6876 93.5316 26.6876C93.249 26.6876 93.0606 26.5933 93.0606 26.4047C93.0606 26.3104 93.249 26.2161 93.4374 26.2161C93.6257 26.2161 93.8141 26.2161 94.1909 26.1218C94.8502 25.9332 95.1328 24.9902 95.227 24.1415L97.7702 7.73281Z" fill="#1A2B56"/>
<path d="M123.013 14.7112C123.013 10.9391 123.013 10.1847 122.919 9.43027C122.825 8.58155 122.637 8.20434 121.883 8.01573C121.695 7.92143 121.224 7.92143 120.941 7.92143C120.659 7.92143 120.47 7.82713 120.47 7.73282C120.47 7.54422 120.659 7.54422 121.035 7.54422C122.354 7.54422 123.955 7.63852 124.426 7.63852C125.651 7.63852 126.593 7.54422 127.44 7.54422C131.961 7.54422 132.809 9.99609 132.809 11.3163C132.809 13.391 131.585 14.6169 130.266 15.7485C132.338 16.4087 134.787 18.2004 134.787 21.2181C134.787 23.8586 132.715 26.6876 128.1 26.6876C127.817 26.6876 127.064 26.5933 126.31 26.5933C125.556 26.499 124.803 26.499 124.426 26.499C124.144 26.499 123.578 26.499 123.013 26.499C122.448 26.499 121.789 26.5933 121.318 26.5933C121.035 26.5933 120.847 26.499 120.847 26.3104C120.847 26.2161 120.941 26.1218 121.224 26.1218C121.6 26.1218 121.883 26.0275 122.166 26.0275C122.637 25.9332 122.825 25.3674 122.919 24.613C123.013 23.5757 123.013 21.5953 123.013 19.2377V14.7112ZM126.027 15.1827C126.027 15.3713 126.122 15.4656 126.216 15.4656C126.404 15.5599 126.781 15.5599 127.44 15.5599C128.288 15.5599 128.853 15.4656 129.23 15.0884C129.889 14.5226 130.266 13.6739 130.266 12.448C130.266 10.7505 129.324 8.58155 127.158 8.58155C126.781 8.58155 126.593 8.58155 126.31 8.67585C126.122 8.77015 126.122 8.86446 126.122 9.14736V15.1827H126.027ZM129.324 17.1631C128.759 16.7859 128.194 16.5973 127.252 16.5973C126.781 16.5973 126.593 16.5973 126.216 16.5973C126.122 16.5973 126.027 16.6916 126.027 16.7859V22.7269C126.027 24.4244 126.122 24.8016 126.875 25.1788C127.534 25.4617 128.1 25.4617 128.665 25.4617C129.795 25.4617 131.679 24.8959 131.679 22.2554C131.773 20.6523 131.208 18.4833 129.324 17.1631Z" fill="#1A2B56"/>
<path d="M137.519 16.9745C137.519 12.6365 140.344 7.16699 147.88 7.16699C154.096 7.16699 158.052 10.8448 158.052 16.5972C158.052 22.3497 154.002 26.8762 147.691 26.8762C140.439 26.7819 137.519 21.4067 137.519 16.9745ZM154.473 17.446C154.473 11.7878 151.271 8.29862 147.126 8.29862C144.206 8.29862 141.004 9.90177 141.004 16.1257C141.004 21.3124 143.924 25.4617 148.727 25.4617C150.423 25.556 154.473 24.7073 154.473 17.446Z" fill="#1A2B56"/>
<path d="M174.159 19.1434C174.159 22.3497 174.159 24.0472 174.724 24.5187C175.195 24.8959 175.76 25.0845 177.738 25.0845C179.057 25.0845 180.093 25.0845 180.658 24.4244C180.941 24.1415 181.223 23.387 181.317 22.9155C181.317 22.7269 181.412 22.5383 181.6 22.5383C181.788 22.5383 181.788 22.6326 181.788 23.0098C181.788 23.2927 181.6 25.1788 181.412 25.9332C181.223 26.499 181.129 26.5933 179.81 26.5933C178.021 26.5933 176.702 26.499 175.572 26.499C174.441 26.4047 173.5 26.4047 172.558 26.4047C172.275 26.4047 171.71 26.4047 171.145 26.4047C170.58 26.4047 169.92 26.499 169.449 26.499C169.167 26.499 168.978 26.4047 168.978 26.2161C168.978 26.1218 169.073 26.0275 169.355 26.0275C169.732 26.0275 170.015 25.9332 170.297 25.9332C170.768 25.8389 170.956 25.2731 171.051 24.5187C171.145 23.4814 171.145 21.501 171.145 19.1434V14.7112C171.145 10.9391 171.145 10.1847 171.051 9.43027C170.956 8.58155 170.768 8.20434 170.015 8.01573C169.826 7.92143 169.544 7.92143 169.167 7.92143C168.884 7.92143 168.696 7.82713 168.696 7.73282C168.696 7.54422 168.884 7.54422 169.261 7.54422C170.485 7.54422 171.993 7.63852 172.652 7.63852C173.217 7.63852 175.101 7.54422 176.043 7.54422C176.42 7.54422 176.608 7.63852 176.608 7.73282C176.608 7.92143 176.42 7.92143 176.137 7.92143C175.854 7.92143 175.478 7.92143 175.195 8.01573C174.536 8.11004 174.347 8.58155 174.253 9.43027C174.159 10.279 174.159 10.9391 174.159 14.7112V19.1434Z" fill="#1A2B56"/>
<path d="M187.722 20.0864C187.628 20.0864 187.534 20.1808 187.534 20.2751L186.215 23.6699C185.933 24.3301 185.839 24.8959 185.839 25.1788C185.839 25.6503 186.027 25.9332 186.875 25.9332H187.251C187.534 25.9332 187.628 26.0275 187.628 26.1218C187.628 26.3104 187.44 26.4047 187.157 26.4047C186.31 26.4047 185.273 26.3104 184.52 26.3104C184.237 26.3104 182.824 26.4047 181.6 26.4047C181.317 26.4047 181.129 26.3104 181.129 26.1218C181.129 25.9332 181.223 25.9332 181.412 25.9332C181.6 25.9332 181.977 25.9332 182.165 25.8389C183.295 25.6503 183.766 24.8016 184.332 23.5756L190.642 8.01572C190.925 7.2613 191.113 6.97839 191.302 6.97839C191.49 6.97839 191.678 7.167 191.961 7.82712C192.526 9.24165 196.576 19.2377 198.178 23.1041C199.119 25.3674 199.873 25.7446 200.344 25.8389C200.721 25.9332 201.097 25.9332 201.38 25.9332C201.568 25.9332 201.663 25.9332 201.663 26.1218C201.663 26.3104 201.474 26.4047 200.532 26.4047C199.59 26.4047 197.801 26.4047 195.823 26.3104C195.352 26.3104 195.069 26.3104 195.069 26.1218C195.069 25.9332 195.163 25.9332 195.446 25.9332C195.634 25.8389 195.823 25.6503 195.634 25.3674L193.656 20.1808C193.562 20.0864 193.562 19.9921 193.374 19.9921H187.722V20.0864ZM192.809 18.7662C192.903 18.7662 192.997 18.6719 192.903 18.5776L190.642 12.4479C190.642 12.3536 190.548 12.2593 190.548 12.2593C190.548 12.2593 190.454 12.3536 190.36 12.4479L188.099 18.5776C188.099 18.6719 188.099 18.7662 188.193 18.7662H192.809Z" fill="#1A2B56"/>
<path d="M200.909 9.90178C200.627 8.95876 200.344 8.39294 199.967 8.11004C199.685 7.92143 199.214 7.92143 198.931 7.92143C198.649 7.92143 198.554 7.92143 198.554 7.73282C198.554 7.54422 198.743 7.54422 199.119 7.54422C200.438 7.54422 201.757 7.63852 202.039 7.63852C202.228 7.63852 203.358 7.54422 204.865 7.54422C205.242 7.54422 205.43 7.63852 205.43 7.73282C205.43 7.92143 205.242 7.92143 204.959 7.92143C204.771 7.92143 204.488 7.92143 204.3 8.01573C204.112 8.11004 204.017 8.29864 204.017 8.58155C204.017 8.86446 204.3 9.80748 204.583 10.8448C205.053 12.5423 207.314 20.0865 207.785 21.501H207.879L212.683 8.48725C212.966 7.82713 213.154 7.54422 213.342 7.54422C213.625 7.54422 213.719 7.92143 214.096 8.77015L219.276 21.4067H219.37C219.841 19.7093 221.819 13.1081 222.667 10.1847C222.856 9.61888 222.95 9.05306 222.95 8.77015C222.95 8.39294 222.761 8.01573 221.725 8.01573C221.443 8.01573 221.254 7.92143 221.254 7.82713C221.254 7.63852 221.443 7.63852 221.819 7.63852C223.138 7.63852 224.174 7.73282 224.457 7.73282C224.645 7.73282 225.681 7.63852 226.529 7.63852C226.812 7.63852 227 7.73283 227 7.82713C227 8.01573 226.906 8.11004 226.623 8.11004C226.341 8.11004 226.058 8.11004 225.775 8.20434C225.21 8.39294 224.928 9.43027 224.363 10.8448C223.232 14.0511 220.595 21.9725 219.37 25.7446C219.088 26.5933 218.994 26.9705 218.617 26.9705C218.334 26.9705 218.24 26.6876 217.863 25.7446L212.683 13.1081H212.589C212.118 14.4283 208.821 23.2927 207.691 25.6503C207.22 26.6876 207.126 26.9705 206.749 26.9705C206.466 26.9705 206.372 26.6876 206.184 26.0275L200.909 9.90178Z" fill="#1A2B56"/>
<path d="M59.8112 39.89C59.8112 41.0216 59.8112 41.8703 59.9054 42.3419C59.9054 42.7191 59.9996 42.9077 60.3763 43.002C60.5647 43.002 60.7531 43.002 60.9415 43.002C61.1298 43.002 61.1298 43.002 61.1298 43.0963C61.1298 43.1906 61.0357 43.1906 60.8473 43.1906C60.0937 43.1906 59.4344 43.1906 59.0576 43.1906C58.6809 43.1906 58.0215 43.1906 57.5506 43.1906C57.3622 43.1906 57.268 43.1906 57.268 43.0963C57.268 43.002 57.268 43.002 57.4564 43.002C57.6448 43.002 57.739 43.002 57.8332 43.002C58.0215 43.002 58.1157 42.7191 58.2099 42.3419C58.3041 41.8703 58.3041 41.0216 58.3041 39.89V37.9096C58.3041 36.1179 58.3041 35.835 58.3041 35.4578C58.3041 35.0806 58.2099 34.892 57.8332 34.7977C57.739 34.7977 57.5506 34.7977 57.3622 34.7977C57.268 34.7977 57.1738 34.7976 57.1738 34.7033C57.1738 34.609 57.268 34.609 57.4564 34.609C57.739 34.609 58.1157 34.609 58.3983 34.609C58.6809 34.609 58.9635 34.609 59.1518 34.609C59.6228 34.609 61.8834 34.609 62.1659 34.609C62.3543 34.609 62.5427 34.609 62.6369 34.609C62.7311 34.609 62.7311 34.5147 62.8253 34.5147C62.8253 34.5147 62.9195 34.5147 62.9195 34.609C62.9195 34.7033 62.8253 34.7976 62.8253 35.0806C62.8253 35.1749 62.8253 35.835 62.7311 36.0236C62.7311 36.1179 62.7311 36.2122 62.6369 36.2122C62.5427 36.2122 62.5427 36.1179 62.5427 36.0236C62.5427 35.9293 62.5427 35.7407 62.4485 35.5521C62.3543 35.3635 62.1659 35.1749 61.695 35.1749H59.9054C59.8112 35.1749 59.8112 35.1749 59.8112 35.3635V38.2868C59.8112 38.3811 59.8112 38.3811 59.9054 38.3811H61.4124C61.6008 38.3811 61.7892 38.3811 61.8834 38.3811C62.0718 38.3811 62.2601 38.2868 62.3543 38.1925C62.4485 38.0982 62.4485 38.0982 62.5427 38.0982C62.5427 38.0982 62.6369 38.0982 62.6369 38.1925C62.6369 38.2868 62.5427 38.5698 62.5427 38.947C62.5427 39.1356 62.5427 39.7014 62.5427 39.7957C62.5427 39.89 62.5427 39.9843 62.4485 39.9843C62.3543 39.9843 62.3543 39.89 62.3543 39.7957C62.3543 39.7014 62.3543 39.6071 62.2601 39.4185C62.1659 39.2299 62.0718 39.0413 61.695 39.0413C61.4124 39.0413 60.1879 39.0413 59.9996 39.0413C59.9054 39.0413 59.9054 39.0413 59.9054 39.1356V39.89H59.8112Z" fill="#9C9C9C"/>
<path d="M66.8755 38.8527C66.8755 36.8723 68.1942 34.3261 71.585 34.3261C74.4108 34.3261 76.2004 36.0236 76.2004 38.6641C76.2004 41.3045 74.3166 43.3792 71.3967 43.3792C68.1942 43.3792 66.8755 40.9273 66.8755 38.8527ZM74.5991 39.1356C74.5991 36.5894 73.0921 34.9863 71.2083 34.9863C69.8896 34.9863 68.3825 35.7407 68.3825 38.5698C68.3825 40.9273 69.7012 42.9077 71.8676 42.9077C72.7153 42.8134 74.5991 42.4362 74.5991 39.1356Z" fill="#9C9C9C"/>
<path d="M81.1925 37.8153C81.1925 36.0236 81.1925 35.7407 81.1925 35.3635C81.1925 34.9863 81.0983 34.7976 80.7215 34.7033C80.6273 34.7033 80.439 34.7033 80.2506 34.7033C80.1564 34.7033 80.0622 34.7033 80.0622 34.609C80.0622 34.5147 80.1564 34.5147 80.3448 34.5147C80.9099 34.5147 81.6634 34.5147 81.946 34.5147C82.3228 34.5147 83.1705 34.5147 83.5473 34.5147C84.3008 34.5147 85.0543 34.609 85.6195 34.9863C85.902 35.1749 86.373 35.835 86.373 36.5894C86.373 37.4381 85.9962 38.1925 84.8659 39.1356C85.902 40.4558 86.6556 41.4931 87.3149 42.1532C87.9742 42.8134 88.4452 42.9077 88.6336 42.9077C88.7278 42.9077 88.8219 42.9077 88.9161 42.9077C89.0103 42.9077 89.0103 42.9077 89.0103 43.002C89.0103 43.0963 88.9161 43.0963 88.8219 43.0963H87.6917C87.0323 43.0963 86.7497 43.002 86.4672 42.9077C85.9962 42.6248 85.5253 42.0589 84.8659 41.2102C84.395 40.5501 83.924 39.7957 83.7356 39.6071C83.6414 39.5128 83.6414 39.5128 83.5473 39.5128H82.5112C82.417 39.5128 82.417 39.5128 82.417 39.6071V39.7957C82.417 40.833 82.417 41.776 82.5112 42.2476C82.5112 42.6248 82.6053 42.8134 82.9821 42.9077C83.1705 42.9077 83.4531 42.9077 83.5473 42.9077C83.6414 42.9077 83.6415 42.9077 83.6415 43.002C83.6415 43.0963 83.5473 43.0963 83.4531 43.0963C82.7937 43.0963 81.946 43.0963 81.7576 43.0963C81.5693 43.0963 80.8157 43.0963 80.3448 43.0963C80.1564 43.0963 80.1564 43.0963 80.1564 43.002C80.1564 42.9077 80.1564 42.9077 80.3448 42.9077C80.5332 42.9077 80.6273 42.9077 80.7215 42.9077C80.9099 42.9077 81.0041 42.6248 81.0983 42.2476C81.1925 41.776 81.1925 40.833 81.1925 39.7957V37.8153ZM82.5112 38.7584C82.5112 38.8527 82.5112 38.947 82.6053 38.947C82.8879 39.0413 83.1705 39.0413 83.4531 39.0413C83.924 39.0413 84.0182 39.0413 84.3008 38.8527C84.6775 38.5698 84.9601 38.0982 84.9601 37.1552C84.9601 35.5521 83.924 35.0806 83.1705 35.0806C82.8879 35.0806 82.6995 35.0806 82.6053 35.0806C82.5112 35.0806 82.5112 35.1749 82.5112 35.2692V38.7584Z" fill="#9C9C9C"/>
<path d="M99.8423 35.1749H98.1468C97.4875 35.1749 97.2049 35.2692 97.0165 35.5521C96.9223 35.7407 96.8282 35.835 96.8282 35.9293C96.8282 36.0236 96.734 36.0236 96.734 36.0236C96.6398 36.0236 96.6398 35.9293 96.6398 35.835C96.6398 35.6464 96.8282 34.609 96.9223 34.5147C96.9223 34.3261 97.0165 34.3261 97.0165 34.3261C97.1107 34.3261 97.2049 34.4204 97.4875 34.4204C97.8643 34.4204 98.241 34.5147 98.6178 34.5147H103.139C103.516 34.5147 103.798 34.5147 103.892 34.4204C104.081 34.4204 104.175 34.3261 104.175 34.3261C104.269 34.3261 104.269 34.4204 104.269 34.609C104.269 34.892 104.269 35.6464 104.269 35.9293C104.269 36.0236 104.269 36.1179 104.175 36.1179C104.081 36.1179 104.081 36.0236 104.081 35.9293V35.835C104.081 35.5521 103.704 35.1749 102.762 35.1749H101.349V39.89C101.349 40.9273 101.349 41.8703 101.444 42.3419C101.444 42.6248 101.538 42.9077 101.914 43.002C102.103 43.002 102.291 43.002 102.48 43.002C102.574 43.002 102.668 43.002 102.668 43.0963C102.668 43.1906 102.574 43.1906 102.48 43.1906C101.726 43.1906 100.973 43.1906 100.69 43.1906C100.407 43.1906 99.7481 43.1906 99.2771 43.1906C99.0887 43.1906 99.0887 43.1906 99.0887 43.0963C99.0887 43.002 99.0887 43.002 99.2771 43.002C99.4655 43.002 99.5597 43.002 99.6539 43.002C99.8423 43.002 99.9364 42.7191 100.031 42.3419C100.125 41.8703 100.125 40.9273 100.125 39.89V35.1749H99.8423Z" fill="#9C9C9C"/>
<path d="M114.913 38.1925L115.007 37.9096C115.007 36.1179 115.007 35.835 115.007 35.4578C115.007 35.0805 114.913 34.8919 114.536 34.7976C114.442 34.7976 114.253 34.7976 114.065 34.7976C113.971 34.7976 113.877 34.7976 113.877 34.7033C113.877 34.609 113.971 34.609 114.159 34.609C114.819 34.609 115.478 34.609 115.855 34.609C116.137 34.609 116.891 34.609 117.268 34.609C117.456 34.609 117.55 34.609 117.55 34.7033C117.55 34.7976 117.456 34.7976 117.362 34.7976C117.268 34.7976 117.173 34.7976 116.985 34.7976C116.702 34.8919 116.608 35.0805 116.514 35.4578C116.514 35.835 116.514 36.1179 116.514 37.9096V39.89C116.514 40.9273 116.514 41.8703 116.608 42.3418C116.608 42.6248 116.702 42.9077 117.079 43.002C117.268 43.002 117.456 43.002 117.644 43.002C117.739 43.002 117.833 43.002 117.833 43.0963C117.833 43.1906 117.739 43.1906 117.644 43.1906C116.891 43.1906 116.137 43.1906 115.855 43.1906C115.572 43.1906 114.913 43.1906 114.442 43.1906C114.253 43.1906 114.159 43.1906 114.159 43.0963C114.159 43.002 114.159 43.002 114.348 43.002C114.536 43.002 114.63 43.002 114.724 43.002C114.913 43.002 115.007 42.7191 115.101 42.3418C115.195 41.8703 115.195 40.9273 115.195 39.89V38.8527C115.195 38.8527 115.195 38.7583 115.101 38.7583H110.674C110.674 38.7583 110.58 38.7584 110.58 38.8527V39.89C110.58 40.9273 110.58 41.8703 110.674 42.3418C110.674 42.6248 110.768 42.9077 111.145 43.002C111.334 43.002 111.522 43.002 111.71 43.002C111.805 43.002 111.899 43.002 111.899 43.0963C111.899 43.1906 111.805 43.1906 111.71 43.1906C110.957 43.1906 110.203 43.1906 109.921 43.1906C109.638 43.1906 108.979 43.1906 108.508 43.1906C108.319 43.1906 108.319 43.1906 108.319 43.0963C108.319 43.002 108.319 43.002 108.508 43.002C108.696 43.002 108.79 43.002 108.885 43.002C109.073 43.002 109.167 42.7191 109.261 42.3418C109.356 41.8703 109.356 40.9273 109.356 39.89V37.9096C109.356 36.1179 109.356 35.835 109.356 35.4578C109.356 35.0805 109.261 34.8919 108.885 34.7976C108.79 34.7976 108.602 34.7976 108.414 34.7976C108.319 34.7976 108.225 34.7976 108.225 34.7033C108.225 34.609 108.319 34.609 108.508 34.609C109.167 34.609 109.827 34.609 110.203 34.609C110.486 34.609 111.239 34.609 111.616 34.609C111.805 34.609 111.899 34.609 111.899 34.7033C111.899 34.7976 111.805 34.7976 111.71 34.7976C111.616 34.7976 111.522 34.7976 111.334 34.7976C111.051 34.8919 110.957 35.0805 110.863 35.4578C110.863 35.835 110.863 36.1179 110.863 37.9096V38.1925C110.863 38.2868 110.863 38.2868 110.957 38.2868H114.913V38.1925Z" fill="#9C9C9C"/>
<path d="M122.731 37.8153C122.731 36.0236 122.731 35.7407 122.731 35.3635C122.731 34.9863 122.636 34.7977 122.26 34.7033C122.166 34.7033 121.977 34.7033 121.789 34.7033C121.695 34.7033 121.6 34.7033 121.6 34.609C121.6 34.5147 121.695 34.5147 121.883 34.5147C122.166 34.5147 122.542 34.5147 122.825 34.5147C123.107 34.5147 123.39 34.5147 123.578 34.5147C123.955 34.5147 126.216 34.5147 126.498 34.5147C126.687 34.5147 126.875 34.5147 126.969 34.4204C127.063 34.4204 127.063 34.4204 127.158 34.4204C127.252 34.4204 127.252 34.4204 127.252 34.5147C127.252 34.609 127.158 34.7033 127.158 35.2692C127.158 35.3635 127.158 35.9293 127.063 36.0236C127.063 36.1179 127.063 36.1179 126.969 36.1179C126.875 36.1179 126.875 36.0236 126.875 35.9293C126.875 35.835 126.875 35.6464 126.781 35.5521C126.687 35.3635 126.593 35.1749 126.027 35.1749C125.839 35.1749 124.615 35.1749 124.426 35.1749C124.332 35.1749 124.332 35.1749 124.332 35.2692V38.1925C124.332 38.2868 124.332 38.2868 124.426 38.2868C124.709 38.2868 126.027 38.2868 126.31 38.2868C126.593 38.2868 126.781 38.1925 126.875 38.0982C126.969 38.0039 126.969 37.9096 127.063 37.9096C127.063 37.9096 127.158 37.9096 127.158 38.0039C127.158 38.0982 127.158 38.2868 127.063 38.8527C127.063 39.0413 127.063 39.5128 127.063 39.6071C127.063 39.7014 127.063 39.7957 126.969 39.7957C126.875 39.7957 126.875 39.7957 126.875 39.7014C126.875 39.6071 126.875 39.4185 126.875 39.3242C126.781 39.1356 126.687 38.947 126.216 38.8527C126.027 38.8527 124.897 38.8527 124.615 38.8527C124.52 38.8527 124.52 38.8527 124.52 38.947V39.89C124.52 40.2672 124.52 41.3045 124.52 41.6817C124.52 42.4362 124.709 42.6248 125.933 42.6248C126.216 42.6248 126.687 42.6248 126.969 42.5305C127.252 42.4362 127.44 42.1533 127.44 41.6817C127.44 41.5874 127.44 41.4931 127.534 41.4931C127.629 41.4931 127.629 41.5874 127.629 41.6817C127.629 41.9646 127.534 42.7191 127.44 43.002C127.346 43.2849 127.252 43.2849 126.781 43.2849C125.933 43.2849 125.274 43.2849 124.803 43.2849C124.332 43.2849 123.955 43.2849 123.578 43.2849C123.484 43.2849 123.202 43.2849 122.919 43.2849C122.636 43.2849 122.354 43.2849 122.166 43.2849C121.977 43.2849 121.977 43.2849 121.977 43.1906C121.977 43.0963 121.977 43.0963 122.166 43.0963C122.354 43.0963 122.448 43.0963 122.542 43.0963C122.731 43.0963 122.825 42.8134 122.919 42.4362C123.013 41.9646 123.013 41.0216 123.013 39.9843V37.8153H122.731Z" fill="#9C9C9C"/>
<path d="M138.461 37.8153C138.461 36.0236 138.461 35.7407 138.461 35.3635C138.461 34.9863 138.366 34.7976 137.99 34.7033C137.895 34.7033 137.707 34.7033 137.519 34.7033C137.424 34.7033 137.33 34.7033 137.33 34.609C137.33 34.5147 137.424 34.5147 137.613 34.5147C138.178 34.5147 138.931 34.5147 139.308 34.5147C139.685 34.5147 140.344 34.5147 141.098 34.5147C142.511 34.5147 144.489 34.5147 145.713 35.835C146.278 36.4008 146.844 37.3438 146.844 38.7584C146.844 40.1729 146.278 41.3045 145.619 41.9646C145.054 42.5305 143.924 43.2849 141.757 43.2849C141.38 43.2849 140.91 43.2849 140.439 43.1906C139.968 43.1906 139.591 43.0963 139.308 43.0963C139.214 43.0963 138.932 43.0963 138.649 43.0963C138.366 43.0963 138.084 43.0963 137.895 43.0963C137.707 43.0963 137.707 43.0963 137.707 43.002C137.707 42.9077 137.707 42.9077 137.895 42.9077C138.084 42.9077 138.178 42.9077 138.272 42.9077C138.461 42.9077 138.555 42.6248 138.649 42.2475C138.743 41.776 138.743 40.833 138.743 39.7957V37.8153H138.461ZM139.968 39.1356C139.968 40.3615 139.968 41.2102 139.968 41.4931C139.968 41.776 139.968 42.2476 140.062 42.3419C140.25 42.5305 140.627 42.8134 141.569 42.8134C142.699 42.8134 143.547 42.6248 144.206 41.9646C144.96 41.3045 145.148 40.2672 145.148 39.1356C145.148 37.6267 144.583 36.6837 144.018 36.2122C142.982 35.1749 141.663 35.0806 140.721 35.0806C140.533 35.0806 140.062 35.0806 139.968 35.1749C139.873 35.1749 139.873 35.2692 139.873 35.3635C139.873 35.7407 139.873 36.778 139.873 37.6267V39.1356H139.968Z" fill="#9C9C9C"/>
<path d="M151.647 37.8153C151.647 36.0236 151.647 35.7407 151.647 35.3635C151.647 34.9863 151.553 34.7976 151.176 34.7033C151.082 34.7033 150.894 34.7033 150.705 34.7033C150.611 34.7033 150.517 34.7033 150.517 34.609C150.517 34.5147 150.611 34.5147 150.8 34.5147C151.365 34.5147 152.118 34.5147 152.401 34.5147C152.778 34.5147 153.625 34.5147 154.002 34.5147C154.756 34.5147 155.509 34.609 156.074 34.9863C156.357 35.1749 156.828 35.835 156.828 36.5894C156.828 37.4381 156.451 38.1925 155.321 39.1356C156.357 40.4558 157.11 41.4931 157.77 42.1532C158.429 42.8134 158.9 42.9077 159.088 42.9077C159.183 42.9077 159.277 42.9077 159.371 42.9077C159.465 42.9077 159.465 42.9077 159.465 43.002C159.465 43.0963 159.371 43.0963 159.277 43.0963H158.241C157.581 43.0963 157.299 43.002 157.016 42.9077C156.545 42.6248 156.074 42.0589 155.415 41.2102C154.944 40.5501 154.473 39.7957 154.285 39.6071C154.19 39.5128 154.19 39.5128 154.096 39.5128H153.06C152.966 39.5128 152.966 39.5128 152.966 39.6071V39.7957C152.966 40.833 152.966 41.776 153.06 42.2476C153.06 42.6248 153.154 42.8134 153.531 42.9077C153.719 42.9077 154.002 42.9077 154.096 42.9077C154.19 42.9077 154.19 42.9077 154.19 43.002C154.19 43.0963 154.096 43.0963 154.002 43.0963C153.343 43.0963 152.495 43.0963 152.307 43.0963C152.118 43.0963 151.365 43.0963 150.894 43.0963C150.705 43.0963 150.705 43.0963 150.705 43.002C150.705 42.9077 150.705 42.9077 150.894 42.9077C151.082 42.9077 151.176 42.9077 151.27 42.9077C151.459 42.9077 151.553 42.6248 151.647 42.2476C151.741 41.776 151.741 40.833 151.741 39.7957V37.8153H151.647ZM153.06 38.7584C153.06 38.8527 153.06 38.947 153.154 38.947C153.437 39.0413 153.719 39.0413 154.002 39.0413C154.473 39.0413 154.567 39.0413 154.85 38.8527C155.227 38.5698 155.509 38.0982 155.509 37.1552C155.509 35.5521 154.473 35.0806 153.719 35.0806C153.437 35.0806 153.249 35.0806 153.154 35.0806C153.06 35.0806 153.06 35.1749 153.06 35.2692V38.7584Z" fill="#9C9C9C"/>
<path d="M162.856 37.8153C162.856 36.0236 162.856 35.7407 162.856 35.3635C162.856 34.9863 162.762 34.7977 162.385 34.7033C162.291 34.7033 162.102 34.7033 161.914 34.7033C161.82 34.7033 161.726 34.7033 161.726 34.609C161.726 34.5147 161.82 34.5147 162.008 34.5147C162.291 34.5147 162.668 34.5147 162.95 34.5147C163.233 34.5147 163.515 34.5147 163.704 34.5147C164.08 34.5147 166.341 34.5147 166.624 34.5147C166.812 34.5147 167 34.5147 167.095 34.4204C167.189 34.4204 167.189 34.4204 167.283 34.4204C167.377 34.4204 167.377 34.4204 167.377 34.5147C167.377 34.609 167.283 34.7033 167.283 35.2692C167.283 35.3635 167.283 35.9293 167.189 36.0236C167.189 36.1179 167.189 36.1179 167.095 36.1179C167 36.1179 167 36.0236 167 35.9293C167 35.835 167 35.6464 166.906 35.5521C166.812 35.3635 166.718 35.1749 166.153 35.1749C165.964 35.1749 164.74 35.1749 164.551 35.1749C164.457 35.1749 164.457 35.1749 164.457 35.2692V38.1925C164.457 38.2868 164.457 38.2868 164.551 38.2868C164.834 38.2868 166.153 38.2868 166.435 38.2868C166.718 38.2868 166.906 38.1925 167 38.0982C167.095 38.0039 167.095 37.9096 167.189 37.9096C167.189 37.9096 167.283 37.9096 167.283 38.0039C167.283 38.0982 167.283 38.2868 167.189 38.8527C167.189 39.0413 167.189 39.5128 167.189 39.6071C167.189 39.7014 167.189 39.7957 167.095 39.7957C167 39.7957 167 39.7957 167 39.7014C167 39.6071 167 39.4185 167 39.3242C166.906 39.1356 166.812 38.947 166.341 38.8527C166.153 38.8527 165.022 38.8527 164.74 38.8527C164.646 38.8527 164.646 38.8527 164.646 38.947V39.89C164.646 40.2672 164.646 41.3045 164.646 41.6817C164.646 42.4362 164.834 42.6248 166.058 42.6248C166.341 42.6248 166.812 42.6248 167.095 42.5305C167.377 42.4362 167.566 42.1533 167.566 41.6817C167.566 41.5874 167.566 41.4931 167.66 41.4931C167.754 41.4931 167.754 41.5874 167.754 41.6817C167.754 41.9646 167.66 42.7191 167.566 43.002C167.471 43.2849 167.377 43.2849 166.906 43.2849C166.058 43.2849 165.399 43.2849 164.928 43.2849C164.457 43.2849 164.08 43.2849 163.704 43.2849C163.61 43.2849 163.327 43.2849 163.044 43.2849C162.762 43.2849 162.479 43.2849 162.291 43.2849C162.102 43.2849 162.102 43.2849 162.102 43.1906C162.102 43.0963 162.102 43.0963 162.291 43.0963C162.479 43.0963 162.573 43.0963 162.668 43.0963C162.856 43.0963 162.95 42.8134 163.044 42.4362C163.139 41.9646 163.139 41.0216 163.139 39.9843V37.8153H162.856Z" fill="#9C9C9C"/>
<path d="M173.123 40.2672C173.029 40.2672 173.029 40.2672 173.029 40.3615L172.369 41.9646C172.275 42.2476 172.181 42.5305 172.181 42.6248C172.181 42.8134 172.275 43.002 172.652 43.002H172.84C172.934 43.002 173.029 43.002 173.029 43.0963C173.029 43.1906 172.934 43.1906 172.84 43.1906C172.463 43.1906 171.993 43.1906 171.616 43.1906C171.522 43.1906 170.862 43.1906 170.297 43.1906C170.109 43.1906 170.109 43.1906 170.109 43.0963C170.109 43.002 170.109 43.002 170.203 43.002C170.297 43.002 170.485 43.002 170.58 43.002C171.145 42.9077 171.333 42.5305 171.522 41.9646L174.441 34.7977C174.536 34.4204 174.63 34.3261 174.724 34.3261C174.818 34.3261 174.912 34.4204 175.007 34.7033C175.289 35.3635 177.079 39.9843 177.832 41.6817C178.303 42.7191 178.586 42.9077 178.868 42.9077C179.057 42.9077 179.245 42.9077 179.339 42.9077C179.434 42.9077 179.528 42.9077 179.528 43.002C179.528 43.0963 179.434 43.0963 178.963 43.0963C178.586 43.0963 177.738 43.0963 176.796 43.0963C176.608 43.0963 176.419 43.0963 176.419 43.002C176.419 42.9077 176.419 42.9077 176.608 42.9077C176.702 42.9077 176.796 42.8134 176.702 42.6248L175.76 40.2672C175.76 40.1729 175.666 40.1729 175.666 40.1729H173.123V40.2672ZM175.478 39.7014L174.536 36.778C174.536 36.778 174.536 36.6837 174.441 36.6837L174.347 36.778L173.311 39.6071V39.7014H175.478Z" fill="#9C9C9C"/>
<path d="M183.861 34.7033C183.861 34.5147 183.955 34.4204 184.049 34.4204C184.143 34.4204 184.237 34.5147 184.331 34.7977L187.44 41.2102L190.548 34.7033C190.642 34.5147 190.736 34.4204 190.831 34.4204C190.925 34.4204 191.019 34.5147 191.019 34.7977L192.055 41.8703C192.149 42.6248 192.244 42.9077 192.62 43.002C192.997 43.0963 193.185 43.0963 193.374 43.0963C193.468 43.0963 193.562 43.0963 193.562 43.1906C193.562 43.2849 193.468 43.2849 193.28 43.2849C192.997 43.2849 191.396 43.2849 190.925 43.1906C190.642 43.1906 190.548 43.0963 190.548 43.0963C190.548 43.002 190.548 43.002 190.642 43.002C190.736 43.002 190.736 42.8134 190.736 42.5305L190.077 37.5324L187.534 42.6248C187.251 43.1906 187.251 43.2849 187.063 43.2849C186.969 43.2849 186.875 43.0963 186.686 42.7191C186.404 42.1532 185.462 40.4558 185.368 40.0786C185.273 39.7957 184.614 38.4755 184.143 37.6267L183.578 42.1533C183.578 42.3419 183.578 42.5305 183.578 42.7191C183.578 42.9077 183.766 43.002 183.955 43.0963C184.143 43.0963 184.331 43.1906 184.426 43.1906C184.52 43.1906 184.614 43.1906 184.614 43.2849C184.614 43.3792 184.52 43.3792 184.331 43.3792C183.861 43.3792 183.295 43.3792 183.107 43.3792C182.919 43.3792 182.353 43.3792 181.977 43.3792C181.883 43.3792 181.788 43.3792 181.788 43.2849C181.788 43.1906 181.883 43.1906 181.977 43.1906C182.071 43.1906 182.165 43.1906 182.353 43.1906C182.636 43.0963 182.73 42.7191 182.824 42.2476L183.861 34.7033Z" fill="#9C9C9C"/>
<path d="M197.989 37.8153C197.989 36.0236 197.989 35.7407 197.989 35.3635C197.989 34.9863 197.895 34.7977 197.518 34.7033C197.424 34.7033 197.236 34.7033 197.047 34.7033C196.953 34.7033 196.859 34.7033 196.859 34.609C196.859 34.5147 196.953 34.5147 197.141 34.5147C197.424 34.5147 197.801 34.5147 198.083 34.5147C198.366 34.5147 198.649 34.5147 198.837 34.5147C199.214 34.5147 201.474 34.5147 201.757 34.5147C201.945 34.5147 202.134 34.5147 202.228 34.4204C202.322 34.4204 202.322 34.4204 202.416 34.4204C202.51 34.4204 202.51 34.4204 202.51 34.5147C202.51 34.609 202.416 34.7033 202.416 35.2692C202.416 35.3635 202.416 35.9293 202.322 36.0236C202.322 36.1179 202.322 36.1179 202.228 36.1179C202.134 36.1179 202.134 36.0236 202.134 35.9293C202.134 35.835 202.134 35.6464 202.039 35.5521C201.945 35.3635 201.851 35.1749 201.286 35.1749C201.097 35.1749 199.873 35.1749 199.685 35.1749C199.59 35.1749 199.59 35.1749 199.59 35.2692V38.1925C199.59 38.2868 199.59 38.2868 199.685 38.2868C199.967 38.2868 201.286 38.2868 201.568 38.2868C201.851 38.2868 202.039 38.1925 202.134 38.0982C202.228 38.0039 202.228 37.9096 202.322 37.9096C202.322 37.9096 202.416 37.9096 202.416 38.0039C202.416 38.0982 202.416 38.2868 202.322 38.8527C202.322 39.0413 202.322 39.5128 202.322 39.6071C202.322 39.7014 202.322 39.7957 202.228 39.7957C202.134 39.7957 202.134 39.7957 202.134 39.7014C202.134 39.6071 202.134 39.4185 202.134 39.3242C202.039 39.1356 201.945 38.947 201.474 38.8527C201.286 38.8527 200.156 38.8527 199.873 38.8527C199.779 38.8527 199.779 38.8527 199.779 38.947V39.89C199.779 40.2672 199.779 41.3045 199.779 41.6817C199.779 42.4362 199.967 42.6248 201.192 42.6248C201.474 42.6248 201.945 42.6248 202.228 42.5305C202.51 42.4362 202.699 42.1533 202.699 41.6817C202.699 41.5874 202.699 41.4931 202.793 41.4931C202.887 41.4931 202.887 41.5874 202.887 41.6817C202.887 41.9646 202.793 42.7191 202.699 43.002C202.605 43.2849 202.51 43.2849 202.039 43.2849C201.192 43.2849 200.532 43.2849 200.061 43.2849C199.59 43.2849 199.214 43.2849 198.837 43.2849C198.743 43.2849 198.46 43.2849 198.178 43.2849C197.895 43.2849 197.612 43.2849 197.424 43.2849C197.236 43.2849 197.236 43.2849 197.236 43.1906C197.236 43.0963 197.236 43.0963 197.424 43.0963C197.612 43.0963 197.707 43.0963 197.801 43.0963C197.989 43.0963 198.083 42.8134 198.178 42.4362C198.272 41.9646 198.272 41.0216 198.272 39.9843V37.8153H197.989Z" fill="#9C9C9C"/>
<path d="M207.785 37.8153C207.785 36.0236 207.785 35.7407 207.785 35.3635C207.785 34.9863 207.691 34.7976 207.314 34.7033C207.22 34.7033 207.031 34.7033 206.843 34.7033C206.749 34.7033 206.655 34.7033 206.655 34.609C206.655 34.5147 206.749 34.5147 206.937 34.5147C207.502 34.5147 208.256 34.5147 208.539 34.5147C208.915 34.5147 209.763 34.5147 210.14 34.5147C210.893 34.5147 211.647 34.609 212.212 34.9863C212.495 35.1749 212.966 35.835 212.966 36.5894C212.966 37.4381 212.589 38.1925 211.458 39.1356C212.495 40.4558 213.248 41.4931 213.907 42.1532C214.567 42.8134 215.038 42.9077 215.226 42.9077C215.32 42.9077 215.414 42.9077 215.509 42.9077C215.603 42.9077 215.603 42.9077 215.603 43.002C215.603 43.0963 215.509 43.0963 215.414 43.0963H214.284C213.625 43.0963 213.342 43.002 213.06 42.9077C212.589 42.6248 212.118 42.0589 211.458 41.2102C210.988 40.5501 210.517 39.7957 210.328 39.6071C210.234 39.5128 210.234 39.5128 210.14 39.5128H209.104C209.01 39.5128 209.009 39.5128 209.009 39.6071V39.7957C209.009 40.833 209.01 41.776 209.104 42.2476C209.104 42.6248 209.198 42.8134 209.575 42.9077C209.763 42.9077 210.046 42.9077 210.14 42.9077C210.234 42.9077 210.234 42.9077 210.234 43.002C210.234 43.0963 210.14 43.0963 210.046 43.0963C209.386 43.0963 208.539 43.0963 208.35 43.0963C208.162 43.0963 207.408 43.0963 206.937 43.0963C206.749 43.0963 206.749 43.0963 206.749 43.002C206.749 42.9077 206.749 42.9077 206.937 42.9077C207.126 42.9077 207.22 42.9077 207.314 42.9077C207.502 42.9077 207.597 42.6248 207.691 42.2476C207.785 41.776 207.785 40.833 207.785 39.7957V37.8153ZM209.104 38.7584C209.104 38.8527 209.104 38.947 209.198 38.947C209.48 39.0413 209.763 39.0413 210.046 39.0413C210.517 39.0413 210.611 39.0413 210.893 38.8527C211.27 38.5698 211.553 38.0982 211.553 37.1552C211.553 35.5521 210.517 35.0806 209.763 35.0806C209.48 35.0806 209.292 35.0806 209.198 35.0806C209.104 35.0806 209.104 35.1749 209.104 35.2692V38.7584Z" fill="#9C9C9C"/>
<path d="M218.146 43.0963C217.958 43.002 217.958 43.002 217.958 42.7191C217.958 42.0589 217.958 41.3988 218.052 41.2102C218.052 41.0216 218.052 40.9273 218.146 40.9273C218.24 40.9273 218.24 41.0216 218.24 41.1159C218.24 41.3045 218.24 41.4931 218.334 41.6817C218.617 42.5305 219.276 42.8134 219.936 42.8134C220.972 42.8134 221.443 42.1533 221.443 41.4931C221.443 40.9273 221.254 40.3615 220.312 39.6071L219.747 39.2299C218.523 38.2868 218.052 37.4381 218.052 36.4951C218.052 35.2692 219.088 34.3261 220.689 34.3261C221.443 34.3261 221.914 34.4204 222.196 34.5147C222.29 34.5147 222.385 34.609 222.385 34.609C222.385 34.7977 222.385 35.0806 222.385 36.0236C222.385 36.3065 222.385 36.4008 222.29 36.4008C222.196 36.4008 222.196 36.3065 222.196 36.2122C222.196 36.1179 222.102 35.7407 221.914 35.4578C221.725 35.2692 221.443 34.892 220.689 34.892C219.841 34.892 219.276 35.3635 219.276 36.1179C219.276 36.6837 219.559 37.0609 220.501 37.8153L220.783 38.0982C222.196 39.1356 222.667 39.9843 222.667 41.0216C222.667 41.6817 222.385 42.4362 221.631 43.002C221.066 43.3792 220.407 43.4735 219.841 43.4735C219.182 43.3792 218.617 43.2849 218.146 43.0963Z" fill="#9C9C9C"/>
<path d="M16.2008 2.73477C16.0124 2.73477 15.9182 2.73477 15.6357 2.82907C14.5996 3.01768 14.317 3.6778 14.2228 4.99803C14.1286 6.22397 14.1286 12.165 14.1286 17.9175V19.6149H14.317C15.6357 18.2004 21.1929 12.5422 22.229 11.222C23.2651 9.99607 24.1128 9.05304 24.1128 8.39292C24.1128 8.01571 23.9245 7.73281 23.5477 7.6385C23.1709 7.5442 23.0767 7.4499 23.0767 7.26129C23.0767 6.97839 23.2651 6.88408 23.6419 6.88408C24.3954 6.88408 26.5618 6.97839 27.5979 6.97839C28.8224 6.97839 30.8946 6.88408 32.0249 6.88408C32.4016 6.88408 32.6842 6.97839 32.6842 7.26129C32.6842 7.5442 32.4958 7.6385 32.1191 7.6385C31.5539 7.6385 30.612 7.82711 29.9527 8.01571C28.7282 8.48723 27.5037 9.24165 25.8083 10.8448C24.5838 11.9764 18.9323 17.7289 17.6137 19.0491C18.744 20.558 24.207 26.499 26.8444 29.1395V26.6876C26.8444 20.9352 26.8444 19.8978 26.7502 18.6719C26.656 17.3517 26.3734 16.7859 25.1489 16.5029C24.8664 16.4086 24.3954 16.4086 23.9245 16.4086C23.5477 16.4086 23.2651 16.3143 23.2651 16.0314C23.2651 15.7485 23.5477 15.6542 24.1128 15.6542C25.9025 15.6542 28.2572 15.7485 29.2933 15.7485C30.2352 15.7485 32.9668 15.6542 34.4738 15.6542C35.039 15.6542 35.2274 15.7485 35.2274 16.0314C35.2274 16.3143 35.039 16.4086 34.568 16.4086C34.1913 16.4086 33.5319 16.4086 33.061 16.5029C32.0249 16.6916 31.7423 17.3517 31.6481 18.6719C31.5539 19.8978 31.5539 20.9352 31.5539 26.6876V33.3831C32.1191 33.7603 32.7784 34.1375 33.3435 34.3261C34.4738 34.7976 35.2274 34.8919 35.6983 34.8919C35.9809 34.8919 36.1693 34.9862 36.1693 35.1748C36.1693 35.4578 35.9809 35.5521 35.2274 35.5521H31.9307C31.7423 35.5521 31.6481 35.5521 31.4597 35.5521C31.4597 39.2299 31.5539 41.8703 32.2132 42.4361C32.8726 43.002 33.8145 43.2849 36.8286 43.2849C38.8066 43.2849 40.3137 43.2849 41.2556 42.2475C41.7265 41.776 42.1975 40.7387 42.1975 39.9843C42.1975 39.6071 42.2917 39.4185 42.5742 39.4185C42.8568 39.4185 42.8568 39.6071 42.8568 40.0786C42.8568 40.4558 42.5742 43.2849 42.2917 44.4165C42.1975 44.6994 42.1033 44.9823 41.9149 45.1709H45.2116V2.73477H16.2008Z" fill="#1A2B56"/>
<path d="M29.9527 35.835C29.1991 35.9293 26.8444 35.3635 24.7722 33.1002C23.0767 31.5914 15.6357 22.8212 14.7879 21.6896L14.4112 21.1238H14.2228V24.613C14.2228 28.1022 14.2228 31.1198 14.317 32.723C14.4112 33.7603 14.6937 34.609 15.7298 34.7976C16.295 34.8919 17.1427 34.9862 17.6137 34.9862C17.8962 34.9862 18.0846 35.0805 18.0846 35.2692C18.0846 35.5521 17.802 35.6464 17.3311 35.6464C15.1647 35.6464 12.8099 35.5521 11.868 35.5521C11.0203 35.5521 8.57134 35.6464 7.06429 35.6464C6.59333 35.6464 6.31076 35.5521 6.31076 35.2692C6.31076 35.0805 6.49914 34.9862 6.8759 34.9862C7.44105 34.9862 7.912 34.8919 8.28877 34.7976C9.04229 34.609 9.23068 33.7603 9.41906 32.723C9.60744 31.1198 9.60744 28.1022 9.60744 24.613V17.9175C9.60744 12.165 9.60744 6.22397 9.51325 4.99803C9.41906 3.6778 9.13649 3.11198 7.81781 2.82907C7.72362 2.82907 7.44105 2.73477 7.25267 2.73477H2.73151V45.1709H23.7361C23.7361 45.0766 23.6419 45.0766 23.6419 44.9823C23.6419 44.7937 23.8303 44.6994 24.207 44.6994C24.7722 44.6994 25.2431 44.6051 25.5257 44.5108C26.2792 44.3222 26.4676 43.5678 26.656 42.4361C26.8444 41.2102 26.8444 38.664 26.8444 35.9293C28.8224 36.4008 29.9527 35.835 29.9527 35.835Z" fill="#00AED4"/>
</svg>
