<svg width="90" height="90" viewBox="0 0 90 90" fill="none" xmlns="http://www.w3.org/2000/svg">
<g clip-path="url(#clip0_295_561)">
<path d="M0 68.5561C0.588258 67.297 1.28043 66.0732 1.74364 64.7684C2.78806 61.8331 5.48102 60.8945 8.01194 62.2504C8.13875 62.3173 8.27789 62.3578 8.48219 62.4388C8.60196 62.2046 8.72877 61.9898 8.82916 61.7609C10.601 57.7214 12.3569 53.6732 14.1587 49.646C14.3401 49.2393 14.7311 48.8343 15.1274 48.6318C17.5474 47.4027 19.9973 46.2335 22.5159 45.0044C22.9033 45.788 23.2732 46.5363 23.6906 47.3816C22.6603 47.8887 21.674 48.3694 20.6894 48.8572C19.3033 49.5439 17.6319 49.9577 16.6139 51.0037C15.6188 52.025 15.2824 53.6925 14.6712 55.0819C13.4718 57.8095 12.2812 60.5423 11.0906 63.2752C11.0677 63.3263 11.0748 63.3897 11.0519 63.571C12.5771 64.2419 14.1358 64.9251 15.765 65.6418C16.7971 63.2858 17.8063 60.9896 18.8102 58.6934C19.3016 57.57 19.7613 56.4289 20.2984 55.3266C20.4393 55.0378 20.7757 54.7279 21.0769 54.6522C26.1264 53.4126 31.1847 52.2099 36.2413 51.0019C36.317 50.9843 36.4051 51.0125 36.5988 51.0301C36.317 52.6272 36.044 54.1979 35.764 55.7686C35.4505 57.5224 35.0207 59.2657 34.8499 61.0336C34.746 62.113 34.9855 63.2382 35.1511 64.33C35.7975 68.5772 36.4738 72.8209 37.1431 77.0646C37.1836 77.3199 37.2611 77.57 37.328 77.8535C39.0153 77.533 40.6726 77.2196 42.4479 76.8832C42.2102 75.5062 41.9883 74.1909 41.7575 72.8773C41.1798 69.5967 40.5863 66.3198 40.0421 63.0322C39.991 62.7205 40.1636 62.3032 40.3626 62.0285C42.6399 58.9082 44.9436 55.8056 47.2403 52.6976C47.4798 52.3736 47.7088 52.0426 47.9888 51.6499C47.4446 51.3242 46.9515 51.023 46.453 50.729C42.1926 48.2233 37.9251 45.7263 33.6751 43.1995C33.219 42.9283 32.8791 42.8966 32.4 43.1379C30.3164 44.1838 28.21 45.1858 26.0419 46.2405C25.6526 45.4411 25.2863 44.6892 24.8795 43.8563C26.9736 42.8297 28.9973 41.7961 31.0615 40.8452C31.8434 40.4842 32.3947 39.9841 32.8491 39.2622C35.3924 35.228 37.9708 31.2167 40.5793 27.1298C39.1068 25.3618 37.6309 23.5904 36.155 21.819C35.255 20.7395 34.3303 19.6777 33.4708 18.5684C33.2894 18.3342 33.1978 17.857 33.3106 17.5982C35.4857 12.5867 37.6838 7.58406 39.9117 2.59375C40.729 0.764201 42.4321 -0.176106 44.3836 0.0140687C46.1166 0.183113 47.6348 1.5249 48.0663 3.31571C48.3147 4.34582 48.1526 5.33543 47.7176 6.30567C46.4495 9.13187 45.2078 11.9686 43.9573 14.8036C43.901 14.9322 43.8622 15.0713 43.8024 15.2456C46.5059 17.3146 49.1988 19.3766 51.9217 21.4633C52.4871 20.9614 52.6755 20.4754 52.4272 19.7006C51.6628 17.3199 51.9499 15.0202 53.2479 12.8702C53.9436 11.7186 54.627 10.5564 55.3826 9.44355C57.4609 6.38491 61.2141 5.08362 64.7296 6.16128C68.171 7.21604 70.5646 10.4155 70.5928 14.0694C70.598 14.7631 70.5276 15.4904 70.3127 16.1454C69.411 18.9118 67.8822 21.3294 65.8814 23.4178C64.7859 24.5606 63.3206 25.2051 61.7566 25.3918C60.9341 25.4904 60.5924 25.9024 60.2718 26.6561C63.5478 28.3324 66.8325 30.0123 70.1683 31.7168C71.993 29.2076 73.7842 26.7529 75.563 24.2895C76.1847 23.4284 76.9703 22.8051 77.9971 22.518C79.7654 22.025 81.62 22.673 82.6679 24.1292C83.7775 25.6718 83.8092 27.6034 82.6626 29.2093C80.3818 32.4018 78.0622 35.5643 75.7603 38.7392C75.0382 39.7341 74.265 40.6973 73.6133 41.7362C73.1536 42.4687 72.6851 42.5462 71.8943 42.3014C68.4071 41.222 64.8951 40.2271 61.4008 39.1671C60.8618 39.0033 60.5836 39.1019 60.2489 39.558C54.5935 47.246 48.9117 54.9128 43.2669 62.6078C42.9957 62.9759 42.8442 63.5851 42.92 64.0324C44.0806 70.7712 45.2888 77.4995 46.4847 84.2331C46.5552 84.6293 46.6098 85.029 46.6855 85.508C41.4969 86.4835 36.3716 87.4485 31.1301 88.4328C30.7744 86.4166 30.3094 84.4796 30.1227 82.5163C29.9448 80.6515 31.4595 78.9628 33.3458 78.5842C33.7438 78.505 34.1454 78.4328 34.6403 78.3395C34.3885 76.6843 34.1507 75.0484 33.89 73.4178C33.2789 69.5791 32.5708 65.7528 32.0953 61.8982C31.9474 60.7008 32.4159 59.4259 32.6219 58.1898C32.8209 56.9871 33.0464 55.7862 33.2824 54.455C31.6462 54.8371 30.1262 55.1858 28.608 55.545C26.8468 55.9623 25.0908 56.406 23.3225 56.7987C22.7025 56.9361 22.3485 57.2108 22.0808 57.8306C19.7243 63.3051 17.3202 68.7603 14.9266 74.2208C14.7998 74.5131 14.6554 74.7966 14.4916 75.147C14.0337 74.9586 13.6057 74.7913 13.1847 74.6082C9.00881 72.7804 4.83288 70.9509 0.656947 69.1248C0.445597 69.0315 0.220157 68.9699 0.00176125 68.8941C0.00176125 68.7762 0.00176125 68.66 0.00176125 68.542L0 68.5561ZM66.202 32.7012C63.7327 31.4369 61.3744 30.2183 58.9984 29.0333C58.8294 28.9487 58.4947 29.028 58.3186 29.1495C56.5309 30.3944 54.6605 30.5705 52.8094 29.4189C50.9953 28.2919 50.282 26.5839 50.5973 24.4497C50.6325 24.2049 50.5603 23.8211 50.3912 23.689C48.4168 22.1359 46.4143 20.618 44.3448 19.035C43.4325 20.6497 42.5431 22.1923 41.7029 23.7594C41.6096 23.932 41.7276 24.3088 41.8703 24.499C42.344 25.1294 42.8478 25.7457 43.3937 26.3162C43.8129 26.7547 43.8059 27.0875 43.473 27.5999C40.817 31.701 38.1945 35.8249 35.5632 39.9436C35.3677 40.25 35.1828 40.5652 34.9802 40.898C39.8924 43.7876 44.7253 46.6314 49.5863 49.4911C49.7941 49.2252 49.9597 49.0245 50.1129 48.8167C53.1423 44.7226 56.1822 40.6339 59.1851 36.5205C59.548 36.0239 59.8755 35.9306 60.418 36.1173C61.2458 36.4025 62.0842 36.6666 62.9366 36.8586C63.1973 36.9167 63.657 36.8022 63.7855 36.6068C64.6063 35.3654 65.3601 34.0799 66.202 32.7012ZM66.3429 18.218C63.1356 16.237 59.9636 14.2789 56.7229 12.2768C56.1822 13.1995 55.6027 14.0165 55.2012 14.9128C54.2536 17.0259 54.5425 19.0544 56.0096 20.8241C57.4802 22.5973 59.4159 23.2083 61.6791 22.7117C64.1272 22.1747 65.2491 20.2694 66.3446 18.218H66.3429ZM42.1908 17.408C41.8579 17.1438 41.629 16.9044 41.3524 16.7512C40.5933 16.3303 40.544 15.8549 40.9121 15.059C42.4162 11.7996 43.8393 8.50324 45.2765 5.21393C45.7521 4.12923 45.4262 3.19245 44.4822 2.79801C43.5699 2.4159 42.7227 2.80681 42.2436 3.88799C40.2816 8.31835 38.3301 12.7522 36.3963 17.1949C36.3012 17.4133 36.2959 17.7989 36.428 17.9644C37.4636 19.2622 38.5433 20.5247 39.6705 21.8718C40.5282 20.3504 41.3419 18.9082 42.189 17.4062L42.1908 17.408ZM66.1984 37.8235C68.0319 38.3694 69.7033 38.8853 71.3888 39.3449C71.6213 39.4083 72.0476 39.2833 72.1832 39.0984C74.9571 35.3266 77.7135 31.5425 80.4311 27.732C80.69 27.371 80.8767 26.7248 80.7288 26.3638C80.5245 25.8672 80.0366 25.3583 79.5434 25.1382C78.8284 24.8195 78.189 25.221 77.7364 25.8461C75.9135 28.3553 74.0924 30.8663 72.2677 33.3756C71.8415 33.9637 71.4065 34.5448 70.9732 35.1294C70.156 34.7191 69.4022 34.3405 68.5832 33.9285C67.8012 35.2051 67.0297 36.4659 66.1984 37.8235ZM33.2718 85.3284C36.782 84.6663 40.1795 84.0253 43.6262 83.3756C43.3779 82.0338 43.1542 80.8188 42.9129 79.5193C39.7532 80.1197 36.7115 80.6726 33.6857 81.2889C33.0006 81.4281 32.7117 82.0179 32.8121 82.7152C32.9337 83.5481 33.101 84.374 33.2718 85.3284ZM14.7012 68.0912C11.8039 66.8287 8.98063 65.5696 6.12916 64.3775C5.50744 64.1169 4.89452 64.3898 4.58102 65.0326C4.20059 65.8126 3.87299 66.6191 3.49609 67.4731C6.72446 68.8836 9.89648 70.2712 13.1213 71.6816C13.6462 70.4895 14.1376 69.3714 14.7012 68.0912ZM58.3309 10.1338C61.4483 12.0567 64.5164 13.9496 67.5986 15.8514C68.4652 13.4953 67.4665 10.7343 65.3125 9.35374C63.0951 7.93272 60.1926 8.22678 58.3309 10.1338ZM54.1885 23.1132C53.5579 24.0412 52.7953 25.0167 53.4399 26.3162C53.8397 27.1227 54.5266 27.496 55.4337 27.4643C56.8656 27.415 57.3112 26.2898 57.8431 25.3566C56.6296 24.6117 55.4548 23.8897 54.1902 23.1114L54.1885 23.1132Z" fill="#B89B5E"/>
<path d="M49.5701 90C49.5948 87.2213 49.6194 84.4427 49.6406 81.664C49.6459 80.9667 49.6406 80.2676 49.6406 79.4735H58.8625V71.5672H68.0826V63.6661H77.3081V55.8021H89.9979V90H83.3175V87.3199H87.3155V82.1359H52.4093V87.3904H75.5838V90H49.5684H49.5701ZM61.5766 79.3907H87.2962V74.2243H61.5766V79.3907ZM70.8425 71.4844H87.2997V66.325H70.8425V71.4844ZM80.0363 58.3994V63.5798H87.3032V58.3994H80.0363Z" fill="#B89B5E"/>
<path d="M78.0469 90V87.4221H80.8596V90H78.0469Z" fill="#B89B5E"/>
<path d="M57.8148 66.7037C57.1561 67.3094 56.5432 67.8764 55.8616 68.5033C54.1426 66.6772 52.4677 64.897 50.7275 63.0498C51.3686 62.4388 51.9727 61.863 52.6561 61.2115C54.3769 63.0428 56.0659 64.8424 57.8148 66.7037Z" fill="#B89B5E"/>
<path d="M15.6103 44.1997C14.7631 44.5818 14.0287 44.9146 13.1885 45.2932C12.3696 43.4865 11.5735 41.7327 10.751 39.919C11.5805 39.5422 12.3379 39.2005 13.1745 38.822C13.9846 40.6128 14.7719 42.3508 15.6103 44.2014V44.1997Z" fill="#B89B5E"/>
<path d="M11.3635 47.6386C11.0253 48.4944 10.7206 49.2674 10.3842 50.1162C8.55956 49.3925 6.79126 48.6899 4.96484 47.9644C5.29948 47.1174 5.60242 46.3444 5.93882 45.4939C7.76171 46.2141 9.52825 46.9132 11.3635 47.6386Z" fill="#B89B5E"/>
<path d="M62.6985 64.4708C61.7861 64.6029 60.9865 64.7191 60.0689 64.8512C59.84 63.2382 59.618 61.6693 59.3838 60.0194C60.2591 59.882 61.0799 59.7535 62.0133 59.6091C62.2405 61.2185 62.4625 62.7927 62.7002 64.4708H62.6985Z" fill="#B89B5E"/>
<path d="M49.3662 72.9424C49.5142 72.0338 49.6498 71.2115 49.7942 70.3257C51.3282 70.5635 52.7883 70.7889 54.3558 71.0319C54.2255 71.9193 54.104 72.7417 53.9666 73.6679C52.4149 73.4231 50.9337 73.1889 49.3662 72.9424Z" fill="#B89B5E"/>
<path d="M55.1043 37.6492C54.5407 38.4081 54.0581 39.0596 53.5192 39.7851C52.8165 39.2639 52.1489 38.7691 51.3916 38.2091C51.9253 37.4837 52.4307 36.7934 52.9662 36.0662C53.6936 36.605 54.3664 37.1016 55.1061 37.6492H55.1043Z" fill="#B89B5E"/>
<path d="M51.9711 41.8859C51.4128 42.6413 50.9161 43.3122 50.3895 44.0218C49.6516 43.4777 48.9805 42.9811 48.2549 42.4458C48.7885 41.7221 49.2835 41.0512 49.8294 40.3099C50.541 40.8346 51.2085 41.3241 51.9711 41.8859Z" fill="#B89B5E"/>
</g>
<defs>
<clipPath id="clip0_295_561">
<rect width="90" height="90" fill="white"/>
</clipPath>
</defs>
</svg>
