<svg width="82" height="73" viewBox="0 0 82 73" fill="none" xmlns="http://www.w3.org/2000/svg">
<g clip-path="url(#clip0_295_535)">
<path d="M57.1535 16.9435C58.113 16.4833 58.5513 15.8178 58.7168 14.9632C58.8243 14.3798 59.0393 13.8868 59.7093 13.8868C60.3793 13.8868 60.5943 14.388 60.6936 14.9714C60.9086 16.1547 61.7192 16.8367 62.7696 17.264C64.3081 17.8885 65.9209 18.0364 67.5586 17.872C68.1789 17.8145 68.6421 17.946 68.8572 18.5458C69.6181 20.6329 71.2475 21.8984 73.1416 22.8269C74.0928 23.2952 74.374 23.8787 74.2913 24.8729C74.1093 27.0011 73.3236 28.9075 72.4055 30.8138C71.7273 32.2189 71.1814 33.7309 70.8753 35.2592C70.1557 38.8665 69.1053 42.3094 67.2608 45.5305C66.7811 46.3686 66.9879 47.593 66.8969 48.4065C69.1053 49.0227 71.0904 49.5897 73.0837 50.1074C73.3236 50.1649 73.7041 50.0088 73.9026 49.8198C75.6064 48.2503 77.2524 48.2503 78.8983 49.8609C79.5848 50.5347 80.2713 51.2085 80.9413 51.8987C82.3308 53.3367 82.3639 55.128 80.9496 56.5167C80.4368 57.0179 80.3292 57.437 80.5195 58.1354C80.7759 59.105 80.9082 60.1404 80.9165 61.1428C80.9661 64.5858 80.933 68.0287 80.933 71.4716C80.933 72.7535 80.6932 72.9836 79.4029 72.9836C66.3924 72.9836 53.3736 72.9836 40.3631 72.9836C38.4442 72.9836 38.4442 72.9836 38.2623 70.9704C37.9231 70.9704 37.5675 70.9704 37.2118 70.9704C25.3758 70.9704 13.5316 70.9704 1.69558 70.9704C0.198507 70.9868 0 70.7896 0 69.2695C0 46.7548 0 24.2402 0 1.71736C0 0.139689 0.14888 0 1.77002 0C19.6688 0 37.5592 0 55.4579 0C57.0377 0 57.1535 0.115038 57.1535 1.68449C57.1535 6.41749 57.1535 11.1423 57.1535 15.8753C57.1535 16.1957 57.1535 16.5162 57.1535 16.9435ZM55.2512 1.89813C37.4517 1.89813 19.7184 1.89813 1.96853 1.89813C1.96853 24.3059 1.96853 46.6562 1.96853 69.0476C14.094 69.0476 26.1616 69.0476 38.3367 69.0476C38.3367 65.7526 38.3367 62.5069 38.3367 59.1872C37.675 59.1872 36.9885 59.1872 36.302 59.1872C34.9124 59.1872 33.5312 59.1954 32.1416 59.1708C31.5792 59.1625 31.2318 58.8503 31.2318 58.2669C31.2318 57.6917 31.5626 57.3877 32.1251 57.3466C32.4228 57.3219 32.7289 57.3384 33.0266 57.3384C34.9703 57.3384 36.9141 57.3384 39.1555 57.3384C37.8487 56.2373 37.0464 55.1526 37.3772 53.5092C36.1531 53.5092 35.0117 53.5092 33.8703 53.5092C31.3724 53.5092 28.8663 53.5092 26.3684 53.501C25.7646 53.501 25.2683 53.2956 25.2518 52.5971C25.2352 51.8658 25.7232 51.6275 26.3849 51.6193C26.5338 51.6193 26.6827 51.6193 26.8398 51.6193C29.7595 51.6193 32.6875 51.4961 35.6072 51.644C37.6667 51.7508 39.3871 51.4303 40.6113 49.639C40.7105 49.4911 40.8677 49.3925 41.0165 49.2775C42.1001 48.4722 43.7626 48.3407 44.6889 49.2857C45.6153 50.2306 46.4093 50.1403 47.4349 49.6472C48.0222 49.3679 48.6922 49.2282 49.3373 49.1049C50.305 48.9241 51.281 48.8091 52.4555 48.6283C52.3066 47.4451 52.4473 46.1714 51.9675 45.2018C50.8427 42.9668 49.8418 40.7153 49.238 38.2913C48.9155 37.0177 48.6756 35.7194 48.3696 34.4457C48.2124 33.7966 47.8485 33.5337 47.0876 33.5337C40.3714 33.5747 33.647 33.5583 26.9308 33.5583C26.633 33.5583 26.2526 33.6487 26.0458 33.5008C25.7232 33.2789 25.3345 32.9009 25.3097 32.564C25.2931 32.2929 25.7232 31.9149 26.0375 31.7259C26.2608 31.5862 26.6248 31.6766 26.9225 31.6766C33.4319 31.6766 39.9413 31.6766 46.4507 31.6766C46.7733 31.6766 47.0958 31.6766 47.5342 31.6766C47.3936 31.4054 47.3191 31.2493 47.2364 31.1096C46.0785 29.154 45.2927 27.0833 45.1273 24.7825C45.0529 23.8129 45.3589 23.2706 46.2687 22.8187C48.1628 21.8901 49.7922 20.6247 50.5614 18.5458C50.7848 17.946 51.2314 17.8309 51.86 17.8474C52.9849 17.8885 54.118 17.8063 55.2677 17.7816C55.2512 12.4077 55.2512 7.19811 55.2512 1.89813ZM63.4727 71.0854C66.3345 71.0854 69.1467 71.0854 72.0333 71.0854C72.0333 70.691 72.0333 70.3706 72.0333 70.0419C72.0333 67.889 72.0416 65.7362 72.0333 63.5751C72.0333 62.9095 72.2814 62.4165 73.001 62.4411C73.6462 62.4658 73.9108 62.9259 73.9026 63.5586C73.8943 64.6022 73.9026 65.654 73.9026 66.6975C73.9026 68.152 73.9026 69.6064 73.9026 71.0937C75.656 71.0937 77.2937 71.0937 78.9562 71.0937C78.9893 70.9047 79.0307 70.7568 79.0307 70.6171C79.0307 67.2645 79.0307 63.912 79.0141 60.5594C79.0141 60.0828 78.948 59.6063 78.8487 59.1379C77.79 53.994 72.2649 51.0606 68.3113 50.8058C68.5842 51.1181 68.7827 51.3646 68.9895 51.6029C69.858 52.5971 69.8497 52.8765 68.9068 53.7557C67.2443 55.317 65.5735 56.87 63.9028 58.423C62.8358 59.4173 62.6621 59.4173 61.4545 58.3655C61.3883 58.8174 61.2725 59.1708 61.2974 59.5159C61.347 60.05 61.4876 60.5759 61.5868 61.1018C62.232 64.4379 62.8523 67.7575 63.4727 71.0854ZM40.2887 71.0937C42.0173 71.0937 43.655 71.0937 45.3506 71.0937C45.3506 68.5792 45.3589 66.1306 45.3506 63.6819C45.3506 62.9917 45.5657 62.4411 46.3266 62.4493C47.0379 62.4576 47.2447 63.0081 47.2447 63.649C47.2447 65.5965 47.2447 67.5357 47.2447 69.4831C47.2447 70.009 47.2447 70.5431 47.2447 71.1101C50.1561 71.1101 52.9435 71.1101 55.7392 71.1101C55.7805 70.9622 55.8219 70.8554 55.8384 70.7403C56.5415 67.0098 57.2611 63.2875 57.9393 59.5487C57.9972 59.2201 57.8566 58.8503 57.7656 58.2094C57.1287 59.0968 56.5332 59.5323 55.8136 58.8749C53.8616 57.0919 51.9427 55.2759 50.0155 53.4764C49.5027 52.9998 49.5027 52.4903 49.9494 51.9726C50.2554 51.6193 50.5697 51.2742 51.0246 50.7647C48.6673 51.0277 46.7236 51.7508 44.9536 52.9012C42.4557 54.5281 40.5451 56.7303 40.3466 59.7377C40.0984 63.4847 40.2887 67.2645 40.2887 71.0937ZM47.9974 28.6117C48.2951 29.1622 48.4688 29.6224 48.7666 29.9839C48.9816 30.2386 49.3538 30.5262 49.6599 30.5262C56.343 30.5591 63.0343 30.5509 69.7174 30.5344C69.982 30.5344 70.346 30.4276 70.4783 30.2386C70.834 29.7456 71.0821 29.1869 71.4047 28.6034C70.1723 28.1515 69.1053 27.6421 67.9722 27.3791C66.839 27.1079 66.3262 26.3931 66.0285 25.3988C65.9127 24.9962 65.739 24.5853 65.7472 24.1827C65.8051 22.7365 65.9292 21.2985 66.0367 19.8195C63.8366 19.6387 61.4545 19.3182 59.6928 17.3379C57.931 19.3429 55.5406 19.6387 53.0759 19.8441C53.8947 21.9887 54.0849 24.0676 53.0676 26.0973C52.8443 26.541 52.348 26.9518 51.8848 27.1572C50.6441 27.6914 49.3621 28.1104 47.9974 28.6117ZM50.9667 37.5764C51.8435 40.8715 52.9518 43.9282 55.2925 46.3686C57.9972 49.1789 61.2395 49.2282 64.0103 46.4837C66.4834 44.035 67.6 40.8961 68.4684 37.5682C62.6207 40.9783 56.8475 40.9701 50.9667 37.5764ZM49.7178 32.4326C49.908 33.6487 50.6276 34.8073 51.8104 35.7358C54.1842 37.6011 56.9633 38.2749 59.9078 38.2338C62.7614 38.2009 65.4412 37.5025 67.7075 35.6454C68.7248 34.8155 69.4444 33.7884 69.7835 32.4244C63.0426 32.4326 56.4091 32.4326 49.7178 32.4326ZM61.5703 71.1183C60.9417 67.7822 60.3379 64.5611 59.7341 61.3483C59.6679 61.3565 59.5935 61.3565 59.5273 61.3647C58.9235 64.594 58.328 67.8315 57.716 71.1183C59.0642 71.1183 60.2552 71.1183 61.5703 71.1183ZM54.2586 48.1189C54.0767 48.7927 54.2173 49.261 54.8459 49.6883C56.2354 50.6251 57.5919 51.6193 58.9235 52.6382C59.4281 53.0162 59.7755 53.0902 60.3214 52.6711C61.6696 51.6193 63.0591 50.6251 64.4652 49.6637C65.0111 49.2857 65.2096 48.8913 64.9863 48.2668C60.4123 51.1592 59.1055 51.1427 54.2586 48.1189ZM51.8683 52.6382C53.4315 54.0926 54.912 55.4649 56.4174 56.87C57.0625 56.0401 57.6498 55.3005 58.2867 54.4788C56.6159 53.2709 55.0113 52.1041 53.3902 50.9291C52.8525 51.5371 52.3976 52.0466 51.8683 52.6382ZM62.8606 56.8782C64.4156 55.4156 65.8961 54.0351 67.3932 52.63C66.8556 52.0302 66.3758 51.5043 65.8713 50.9373C64.2253 52.1288 62.629 53.2874 60.9748 54.4871C61.6117 55.3005 62.1989 56.0401 62.8606 56.8782ZM47.3522 26.8368C48.6425 26.3684 49.8501 25.9493 51.0412 25.4892C51.2314 25.4152 51.4216 25.1934 51.5043 24.9962C52.0254 23.6979 51.9841 22.3914 51.5622 21.2574C50.1313 22.3174 48.7087 23.3774 47.2943 24.4538C47.1372 24.5689 46.9966 24.84 47.0131 25.0208C47.0876 25.6042 47.2282 26.1876 47.3522 26.8368ZM71.9919 26.8204C72.6371 24.84 72.6371 24.84 71.0077 23.7718C70.7843 23.6239 70.5445 23.4842 70.346 23.3117C69.5437 22.5886 68.7496 21.8573 67.906 21.0849C67.4428 22.3749 67.3932 23.6239 67.8564 24.8729C67.9556 25.1359 68.2286 25.4235 68.4932 25.5303C69.6264 25.9904 70.7843 26.3848 71.9919 26.8204ZM39.7262 55.2595C41.1654 53.8297 42.5467 52.4575 43.928 51.0934C43.1091 50.3375 42.5881 50.321 41.7609 51.1263C41.0744 51.7919 40.4045 52.4739 39.7428 53.1641C38.9322 54.0023 38.957 54.5117 39.7262 55.2595ZM75.3748 51.1016C76.7892 52.5232 78.1457 53.879 79.5104 55.2512C80.2796 54.6021 80.3375 53.9776 79.5683 53.1888C78.8652 52.4575 78.1457 51.7426 77.4095 51.0441C76.6403 50.3046 76.0696 50.3539 75.3748 51.1016ZM59.7176 55.9333C58.7416 56.7057 58.7416 56.985 59.7341 57.8396C59.9409 57.4698 60.1394 57.1165 60.3462 56.7467C60.1229 56.4509 59.9161 56.188 59.7176 55.9333Z" fill="#B89B5E"/>
<path d="M13.3333 62.2028C11.3482 62.2028 9.35486 62.2028 7.36979 62.2028C6.24491 62.2028 5.95542 61.9317 5.95542 60.8552C5.94715 57.2315 5.94715 53.6161 5.95542 49.9923C5.95542 48.8995 6.23664 48.6283 7.36151 48.6283C11.3647 48.6201 15.368 48.6201 19.3795 48.6283C20.5374 48.6283 20.769 48.8666 20.769 49.9841C20.7773 53.6078 20.7773 57.2233 20.769 60.847C20.769 61.9728 20.5292 62.2028 19.3795 62.2028C17.3613 62.2028 15.3432 62.2028 13.3333 62.2028ZM18.8584 60.3211C18.8584 57.0097 18.8584 53.7886 18.8584 50.5593C15.1695 50.5593 11.5467 50.5593 7.91568 50.5593C7.91568 53.8379 7.91568 57.059 7.91568 60.3211C11.5798 60.3211 15.186 60.3211 18.8584 60.3211Z" fill="#B89B5E"/>
<path d="M13.3581 8.76757C15.3762 8.76757 17.3944 8.75935 19.4126 8.76757C20.5705 8.77579 20.769 8.98121 20.769 10.148C20.769 13.7717 20.7773 17.3872 20.769 21.0109C20.769 22.0956 20.5292 22.3339 19.4374 22.3339C15.4011 22.3421 11.3647 22.3421 7.3367 22.3339C6.22837 22.3339 5.95542 22.0627 5.95542 20.9534C5.94715 17.3626 5.94715 13.7717 5.95542 10.1809C5.95542 9.01408 6.20356 8.77579 7.40287 8.76757C9.37967 8.75935 11.373 8.76757 13.3581 8.76757ZM18.8667 20.4522C18.8667 17.1407 18.8667 13.9279 18.8667 10.6657C15.1943 10.6657 11.5715 10.6657 7.91568 10.6657C7.91568 13.9443 7.91568 17.1818 7.91568 20.4522C11.5881 20.4522 15.186 20.4522 18.8667 20.4522Z" fill="#B89B5E"/>
<path d="M13.341 42.2683C11.3229 42.2683 9.30471 42.2766 7.28656 42.2683C6.23612 42.2601 5.94663 41.9808 5.94663 40.929C5.93836 37.2806 5.93836 33.624 5.94663 29.9757C5.94663 28.9814 6.23612 28.6938 7.2452 28.6938C11.3063 28.6856 15.3757 28.6856 19.4368 28.6938C20.5286 28.6938 20.752 28.9321 20.752 30.0332C20.7602 33.6816 20.7602 37.3381 20.752 40.9865C20.752 42.0054 20.4956 42.2601 19.4699 42.2683C17.4352 42.2766 15.3923 42.2683 13.341 42.2683ZM18.8744 40.3867C18.8744 37.0834 18.8744 33.8706 18.8744 30.633C15.1855 30.633 11.5462 30.633 7.92343 30.633C7.92343 33.9199 7.92343 37.1327 7.92343 40.3867C11.5875 40.3867 15.1855 40.3867 18.8744 40.3867Z" fill="#B89B5E"/>
<path d="M37.6671 13.6485C34.0526 13.6485 30.4464 13.6485 26.8319 13.6485C26.559 13.6485 26.2116 13.7306 26.0379 13.5992C25.7236 13.3609 25.3349 12.9993 25.3018 12.6542C25.277 12.3913 25.7153 12.0215 26.0296 11.8161C26.2199 11.6846 26.559 11.7586 26.8237 11.7586C34.0775 11.7586 41.3312 11.7586 48.585 11.7586C48.858 11.7586 49.1888 11.6846 49.3791 11.8079C49.6934 12.0133 50.1483 12.3748 50.1317 12.646C50.1069 12.9829 49.7099 13.3444 49.3873 13.591C49.2136 13.7224 48.8662 13.6403 48.5933 13.6403C44.9457 13.6485 41.3064 13.6485 37.6671 13.6485Z" fill="#B89B5E"/>
<path d="M37.7416 17.4612C39.4289 17.4612 41.1162 17.4694 42.7952 17.453C43.4817 17.4447 44.1517 17.5433 44.1765 18.365C44.2096 19.2032 43.5479 19.3347 42.8531 19.3264C39.4206 19.3182 35.9881 19.3264 32.5556 19.3264C31.8856 19.3264 31.2074 19.2607 31.2239 18.3815C31.2405 17.5269 31.9022 17.453 32.5804 17.453C34.3091 17.4612 36.0295 17.4612 37.7416 17.4612Z" fill="#B89B5E"/>
<path d="M37.7409 39.2527C36.0288 39.2527 34.3084 39.2527 32.5963 39.2527C31.9346 39.2527 31.2398 39.228 31.2315 38.3406C31.2233 37.4778 31.8684 37.3874 32.5632 37.3874C35.9957 37.3957 39.4282 37.3957 42.8607 37.3874C43.5721 37.3874 44.2007 37.5271 44.1924 38.3488C44.1841 39.1212 43.5638 39.2527 42.8938 39.2527C41.1734 39.2445 39.4613 39.2527 37.7409 39.2527Z" fill="#B89B5E"/>
<path d="M56.4752 27.7407C56.4835 27.6831 56.4835 27.6174 56.5001 27.5599C56.9219 26.2452 56.5166 25.2509 55.4662 24.3552C54.6473 23.6568 54.9368 22.868 55.9707 22.6132C56.0865 22.5804 56.2023 22.5311 56.3181 22.5311C57.476 22.5557 58.1791 21.997 58.6257 20.937C58.7994 20.5261 59.3371 20.0413 59.7423 20.0084C60.0649 19.9838 60.6108 20.5179 60.768 20.9205C61.1898 22.0052 61.9342 22.4489 63.0591 22.5557C63.4974 22.5968 64.1757 22.9419 64.2418 23.2624C64.3328 23.6568 64.0268 24.2977 63.6877 24.61C62.9185 25.3248 62.4718 26.0397 62.8357 27.1079C62.9267 27.3791 62.935 27.7078 62.9102 27.9954C62.844 28.6527 62.447 28.9321 61.7853 28.8335C61.6364 28.8089 61.4793 28.7596 61.3635 28.6774C60.2386 27.8639 59.1716 27.9379 57.9971 28.6527C57.1369 29.1868 56.4256 28.702 56.4752 27.7407ZM58.1791 24.2731C58.3693 24.8647 58.5761 25.5138 58.7498 26.0726C59.3536 26.0726 60.0566 26.0726 60.6356 26.0726C60.8424 25.4728 61.0823 24.8072 61.256 24.3059C60.7183 23.8951 60.1642 23.476 59.7258 23.1391C59.2295 23.5089 58.6754 23.9115 58.1791 24.2731Z" fill="#B89B5E"/>
<path d="M12.0018 56.2948C13.2094 55.0623 14.2433 54.0187 15.2607 52.9669C15.7239 52.4821 16.2449 52.1863 16.8156 52.7204C17.3946 53.2627 17.0969 53.7886 16.6171 54.257C15.3847 55.4813 14.1523 56.6974 12.9282 57.93C12.3492 58.5134 11.8033 58.5381 11.2244 57.9382C10.8108 57.5027 10.3642 57.1001 9.95888 56.6646C9.56186 56.2291 9.50397 55.736 9.94234 55.3088C10.389 54.8733 10.877 54.9554 11.2905 55.3827C11.5139 55.621 11.6958 55.9004 12.0018 56.2948Z" fill="#B89B5E"/>
<path d="M11.9934 16.4258C13.201 15.1933 14.2349 14.1579 15.2522 13.1061C15.7154 12.6296 16.2282 12.3091 16.7989 12.8514C17.3779 13.402 17.0884 13.9196 16.6169 14.3962C15.3845 15.6206 14.1521 16.8367 12.928 18.0692C12.3573 18.6444 11.8031 18.6937 11.2242 18.0857C10.8106 17.6584 10.364 17.2557 9.95868 16.812C9.56167 16.3847 9.4955 15.8835 9.9256 15.4562C10.364 15.0207 10.8602 15.0947 11.2821 15.5137C11.5137 15.7438 11.6873 16.0314 11.9934 16.4258Z" fill="#B89B5E"/>
<path d="M12.1258 36.2371C13.2176 35.1195 14.2515 34.0842 15.2689 33.0324C15.732 32.5476 16.2531 32.2518 16.8238 32.7941C17.4028 33.3447 17.0885 33.8706 16.6171 34.3389C15.3847 35.5633 14.1523 36.7794 12.9281 38.0119C12.3492 38.5953 11.795 38.6118 11.2243 38.0119C10.8521 37.6257 10.4633 37.2478 10.0829 36.8698C9.61968 36.4096 9.44599 35.8837 9.9588 35.3825C10.4385 34.9141 10.9431 35.0785 11.3814 35.514C11.5717 35.7194 11.795 35.9248 12.1258 36.2371Z" fill="#B89B5E"/>
</g>
<defs>
<clipPath id="clip0_295_535">
<rect width="82" height="73" fill="white"/>
</clipPath>
</defs>
</svg>
