<svg width="70" height="70" viewBox="0 0 70 70" fill="none" xmlns="http://www.w3.org/2000/svg">
<path d="M70.0002 16.4305C69.8123 17.4237 69.5827 18.4028 69.1581 19.3179C68.3647 21.0277 67.5853 22.7374 66.7988 24.4542C63.3816 31.8962 59.9644 39.3311 56.5403 46.7731C55.4128 49.2277 54.2784 51.6824 53.1579 54.137C53.0605 54.3569 53.0048 54.6123 52.9979 54.8536C52.9839 56.7548 52.9909 58.6632 52.9909 60.5645C52.9979 65.3674 49.6572 69.2835 44.9943 69.9362C44.9177 69.9503 44.8412 69.9787 44.7646 70.0071C32.62 70.0071 20.4755 70.0071 8.32397 70.0071C8.24741 69.9858 8.17086 69.9503 8.0943 69.9432C4.36394 69.475 1.31562 66.8075 0.306471 63.1043C0.174238 62.6077 0.0907226 62.0898 -0.0136719 61.579C-0.0136719 43.8644 -0.0136719 26.1498 -0.0136719 8.43519C0.00720703 8.35715 0.0420052 8.27911 0.0489648 8.20107C0.675332 4.29918 2.79802 1.68846 6.46575 0.425661C7.06428 0.219925 7.71152 0.141887 8.33789 0C20.4616 0 32.5853 0 44.7089 0C44.7716 0.0212831 44.8342 0.0567548 44.9038 0.0638492C49.1422 0.610115 52.3506 3.82386 52.9213 8.12304C52.9839 8.57708 52.9979 9.03821 53.0396 9.51353C53.2066 9.51353 53.3458 9.51353 53.485 9.51353C56.7282 9.51353 59.9714 9.50644 63.2146 9.52063C63.7853 9.52063 64.3629 9.549 64.9197 9.65542C67.1886 10.0953 68.8658 11.3084 69.6662 13.5928C69.8193 14.0255 69.8889 14.4867 70.0002 14.9336C70.0002 15.4302 70.0002 15.9268 70.0002 16.4305ZM51.0074 35.0248C51.0074 26.4903 51.0074 17.9558 51.0074 9.4213C51.0074 8.13013 50.736 6.9099 50.0887 5.80318C48.6342 3.30597 46.4697 2.03608 43.6093 2.03608C32.3556 2.02899 21.1019 2.02899 9.84117 2.04317C9.13825 2.04317 8.41444 2.11412 7.72544 2.2631C4.36394 2.97963 2.04638 5.9096 2.04638 9.43549C2.03942 26.5045 2.04638 43.5735 2.04638 60.6496C2.04638 61.0185 2.06726 61.3875 2.12294 61.7493C2.65883 65.3745 5.67235 68.0136 9.27744 68.0136C20.7817 68.0136 32.286 68.0136 43.7833 68.0136C47.8686 68.0136 51.0074 64.7998 51.0074 60.6284C51.0144 52.0938 51.0144 43.5593 51.0074 35.0248ZM53.0327 11.5993C53.0327 24.284 53.0327 36.9048 53.0327 49.5328C53.318 49.0433 53.5546 48.5396 53.7843 48.0359C58.1062 38.6146 62.4351 29.1862 66.757 19.7649C67.2373 18.722 67.7592 17.7004 67.9472 16.5369C68.3091 14.3164 67.1746 12.408 65.0519 11.8334C64.4604 11.6702 63.834 11.6135 63.2216 11.6135C59.9505 11.5922 56.6865 11.6064 53.4154 11.6064C53.2902 11.5993 53.1788 11.5993 53.0327 11.5993Z" fill="#B89B5E"/>
<path d="M8.57422 31.7118C8.60206 22.3047 15.7496 13.7701 26.4744 13.4509C36.2805 13.6779 44.1727 21.2334 44.479 31.7047C44.2284 42.4739 35.9047 49.9939 26.4953 50.001C16.6335 50.001 8.58118 41.7716 8.57422 31.7118ZM25.4583 32.7972C23.266 32.7972 21.1016 32.7972 18.9302 32.7972C18.9232 32.8681 18.9093 32.9107 18.9162 32.9604C18.965 34.8404 19.2016 36.6991 19.5983 38.5436C19.647 38.7777 19.7931 38.8203 19.9602 38.8487C21.4565 39.0686 22.9598 39.2885 24.4561 39.4872C24.7832 39.5297 25.1173 39.4943 25.4583 39.4943C25.4583 37.2454 25.4583 35.0248 25.4583 32.7972ZM34.1161 32.8043C31.882 32.8043 29.7245 32.8043 27.5531 32.8043C27.5531 35.0532 27.5531 37.2737 27.5531 39.5014C27.6158 39.5085 27.6645 39.5226 27.7063 39.5226C29.5297 39.473 31.3322 39.2247 33.1139 38.8345C33.3296 38.7848 33.3923 38.6642 33.4271 38.4727C33.608 37.3092 33.8168 36.1528 33.963 34.9894C34.0534 34.2728 34.0674 33.5492 34.1161 32.8043ZM18.8675 30.6547C21.1224 30.6547 23.2869 30.6547 25.4583 30.6547C25.4583 28.4413 25.4583 26.2562 25.4583 24.0782C25.4096 24.0641 25.3748 24.0428 25.34 24.0428C23.4957 24.0995 21.6653 24.3336 19.8697 24.7522C19.7653 24.7806 19.6331 24.9367 19.6052 25.0573C19.4382 25.9086 19.2573 26.7599 19.1459 27.6183C19.0276 28.6115 18.965 29.6189 18.8675 30.6547ZM27.5462 30.6618C29.7454 30.6618 31.9099 30.6618 34.0743 30.6618C34.0813 30.5909 34.0952 30.5412 34.0952 30.4986C34.0117 28.6754 33.8029 26.8734 33.4201 25.0927C33.3714 24.8728 33.2809 24.7664 33.0652 24.7309C32.1117 24.5748 31.1582 24.3762 30.2048 24.2485C29.3278 24.135 28.444 24.0924 27.5462 24.0215C27.5462 26.2562 27.5462 28.4413 27.5462 30.6618ZM41.4585 37.217C41.3959 37.2525 41.3611 37.2666 41.3332 37.2879C39.5515 38.7068 37.5193 39.6149 35.3688 40.2747C35.1043 40.3527 34.9721 40.4733 34.8886 40.75C34.4084 42.4384 33.7542 44.0488 32.8494 45.5458C32.5432 46.0495 32.2022 46.5248 31.8751 47.0143C35.341 46.3616 40.7347 40.8564 41.4585 37.217ZM21.1155 47.0072C21.0876 46.9575 21.0807 46.9079 21.0528 46.8795C19.6679 45.0846 18.777 43.0415 18.1437 40.8777C18.0324 40.4946 17.8375 40.3314 17.4895 40.225C15.4503 39.6078 13.5364 38.7281 11.8244 37.4227C11.7478 37.366 11.6643 37.3092 11.5599 37.2312C12.0401 40.6081 17.6217 46.312 21.1155 47.0072ZM31.9168 16.4944C31.9307 16.5866 31.9307 16.615 31.9377 16.6292C33.3436 18.4808 34.2622 20.5736 34.9025 22.8084C34.9652 23.0283 35.0974 23.0921 35.2923 23.1489C37.4428 23.8087 39.475 24.7096 41.2706 26.1072C41.3054 26.1356 41.3541 26.1498 41.4863 26.2207C39.642 21.5172 36.4893 18.3176 31.9168 16.4944ZM20.9693 16.5724C18.8536 17.367 16.9467 18.6156 15.2903 20.2899C13.6965 21.9003 11.6504 25.185 11.6573 26.1498C13.5016 24.7025 15.5895 23.7803 17.7957 23.1063C17.914 23.0708 18.0324 22.9006 18.0811 22.7658C18.4499 21.801 18.7283 20.8006 19.1668 19.8713C19.7166 18.7291 20.3778 17.6508 20.9693 16.5724ZM20.2942 41.0196C20.2942 41.0196 20.2873 41.055 20.3012 41.0834C20.8719 42.8073 21.6235 44.4319 22.751 45.8508C23.3495 46.6028 24.0524 47.2413 24.9294 47.6528C25.0894 47.7308 25.2634 47.7805 25.4513 47.8443C25.4513 45.7018 25.4513 43.6161 25.4513 41.5729C23.7184 41.3956 22.0063 41.204 20.2942 41.0196ZM42.2728 32.8043C40.1988 32.8043 38.1596 32.8043 36.1761 32.8043C35.9882 34.5921 35.8003 36.3444 35.6124 38.1322C36.1413 37.9193 36.6772 37.7207 37.1992 37.4866C38.7303 36.7984 40.1501 35.9542 41.2706 34.6488C41.709 34.1238 42.0779 33.535 42.2728 32.8043ZM17.3921 38.1251C17.2042 36.3231 17.0163 34.5708 16.8353 32.8043C14.824 32.8043 12.7918 32.8043 10.7317 32.8043C10.9127 33.4783 11.2328 34.0387 11.6504 34.5424C13.1815 36.3728 15.2415 37.3234 17.3921 38.1251ZM27.5601 41.58C27.5601 43.6445 27.5601 45.7302 27.5601 47.823C28.263 47.6599 29.1051 47.1136 29.7941 46.3758C31.1722 44.8931 32.0143 43.1053 32.6685 41.204C32.6894 41.1331 32.7033 41.055 32.7102 41.0196C30.9842 41.204 29.2861 41.3956 27.5601 41.58ZM17.3851 25.4545C15.9445 25.9582 14.5665 26.5896 13.3207 27.4835C12.4647 28.1007 11.7061 28.8102 11.1702 29.7395C11.0101 30.0162 10.8918 30.3213 10.7456 30.6476C12.8405 30.6476 14.8657 30.6476 16.8492 30.6476C17.0232 28.9166 17.1972 27.2069 17.3851 25.4545ZM35.6194 25.4262C35.8073 27.2139 35.9882 28.9237 36.1692 30.6405C38.1666 30.6405 40.1918 30.6405 42.2936 30.6405C40.9435 27.6467 38.3127 26.5116 35.6194 25.4262ZM20.3082 22.4253C22.062 22.2337 23.7462 22.0563 25.4513 21.8719C25.4513 19.85 25.4513 17.7997 25.4513 15.6572C22.5144 17.0123 21.3869 19.6797 20.3082 22.4253ZM27.5531 21.8719C29.2791 22.0563 30.9634 22.2408 32.7033 22.4324C32.5223 21.9641 32.3553 21.4888 32.1604 21.0206C31.541 19.5449 30.7685 18.1615 29.6341 17.0265C29.0425 16.4376 28.3883 15.9623 27.5531 15.714C27.5531 17.7997 27.5531 19.8358 27.5531 21.8719Z" fill="#B89B5E"/>
<path d="M26.516 53.4843C32.1046 53.4843 37.7001 53.4914 43.2887 53.4772C44.0543 53.4772 44.4579 53.9738 44.4719 54.5059C44.4927 55.116 43.9708 55.5701 43.2748 55.5701C32.1046 55.5701 20.9274 55.5701 9.75721 55.5701C9.12388 55.5701 8.71326 55.2721 8.60887 54.7471C8.50447 54.2292 8.74806 53.7397 9.22131 53.5624C9.40226 53.4985 9.61105 53.4843 9.80592 53.4843C15.3806 53.4772 20.9483 53.4772 26.516 53.4843C26.516 53.4772 26.516 53.4772 26.516 53.4843Z" fill="#B89B5E"/>
<path d="M26.5447 7.93858C32.0916 7.93858 37.6384 7.93858 43.1852 7.93858C43.3244 7.93858 43.4636 7.93148 43.6028 7.95986C44.09 8.0379 44.4588 8.42809 44.4797 8.88922C44.5006 9.32907 44.1317 9.82568 43.6793 9.93919C43.5471 9.97466 43.401 9.98885 43.2618 9.98885C32.1264 9.98885 20.984 9.98885 9.84856 9.98885C9.67457 9.98885 9.49362 9.98175 9.32659 9.93919C8.87421 9.81858 8.58887 9.4142 8.58887 8.93179C8.58887 8.47066 8.88117 8.10175 9.34747 7.99533C9.5145 7.95986 9.69545 7.95277 9.86944 7.95277C15.4302 7.93858 20.984 7.93858 26.5447 7.93858Z" fill="#B89B5E"/>
<path d="M26.53 60.0182C30.5249 60.0182 34.5127 60.0182 38.5076 60.0182C39.3288 60.0182 39.816 60.6355 39.6002 61.3946C39.4819 61.7989 39.2174 62.0401 38.8068 62.104C38.6676 62.1253 38.5284 62.1253 38.3893 62.1253C30.4414 62.1253 22.4934 62.1253 14.5386 62.1324C14.0932 62.1324 13.7034 62.033 13.4598 61.6074C13.0979 60.976 13.432 60.2027 14.1419 60.0608C14.302 60.0253 14.469 60.0253 14.6291 60.0253C18.5891 60.0183 22.5561 60.0182 26.53 60.0182Z" fill="#B89B5E"/>
</svg>
