<svg width="76" height="77" viewBox="0 0 76 77" fill="none" xmlns="http://www.w3.org/2000/svg">
<path d="M70.1082 11.9625C69.5768 12.4601 69.0919 12.9107 68.6136 13.3612C68.4542 13.2402 68.2814 12.9981 68.0888 12.9779C67.9028 12.9577 67.6969 13.1662 67.4976 13.2738C66.375 13.8991 65.1793 14.2017 63.8972 14.1816C63.6182 14.1816 63.4721 14.0067 63.306 13.8386C63.0204 13.5495 62.748 13.2536 62.4624 12.9645C62.3893 12.8972 62.2963 12.8501 62.1568 12.7627C62.1834 13.072 62.1967 13.3208 62.2232 13.5696C62.4092 15.2305 62.6019 16.8847 62.7945 18.5389C62.8742 19.2113 62.9938 19.8838 63.027 20.5562C63.0602 21.195 63.4057 21.6859 63.678 22.2037C64.4486 23.6628 65.2324 25.1153 66.0163 26.5677C66.7735 27.9798 67.5375 29.3919 68.2947 30.804C68.4143 31.0259 68.5405 31.2478 68.6601 31.4765C68.7398 31.6311 68.7199 31.7387 68.5272 31.7992C67.2917 32.2027 66.0561 32.6129 64.8272 33.0163C64.7807 33.0298 64.7408 33.0499 64.6943 33.0634C64.2825 33.2315 64.2626 33.2248 63.9969 32.8617C62.2897 30.5283 60.5825 28.2017 58.8686 25.8751C58.2044 24.9673 57.5202 24.0663 56.8758 23.1451C56.6964 22.8895 56.6034 22.5668 56.5171 22.2574C56.1982 21.121 55.8993 19.9779 55.5937 18.8415C55.2682 17.6378 54.9428 16.4342 54.604 15.2373C54.5375 15.0086 54.6305 14.9145 54.8099 14.8607C55.2815 14.7262 55.7532 14.5917 56.2248 14.4573C56.3909 14.4102 56.4905 14.4573 56.537 14.6321C56.6832 15.1768 56.8426 15.7147 56.9887 16.2526C57.2079 17.0327 57.4205 17.8127 57.6331 18.5927C57.8124 19.2315 58.0316 19.8703 58.1512 20.5226C58.3372 21.5581 58.8221 22.4121 59.4532 23.2325C60.4563 24.5303 61.4062 25.8684 62.376 27.1864C63.1997 28.3093 64.0168 29.4323 64.8405 30.562C64.9733 30.7435 65.1195 30.7973 65.3254 30.7032C65.4649 30.6359 65.6177 30.5889 65.8037 30.5149C65.6177 30.1518 65.4516 29.8156 65.2789 29.4793C64.5615 28.1345 63.8374 26.7896 63.1134 25.4448C62.4757 24.2478 61.8313 23.0509 61.1936 21.854C61.1471 21.7733 61.1139 21.6792 61.1006 21.585C60.9146 19.9577 60.7353 18.3237 60.5559 16.6964C60.4762 15.9769 60.3832 15.2574 60.2968 14.5379C60.2171 13.879 60.1374 13.2133 60.071 12.5476C59.9647 11.4582 59.5661 10.4765 58.9749 9.58213C58.8022 9.31988 58.4767 9.09798 58.1711 8.98367C57.0485 8.57349 55.9325 8.62056 54.8697 9.20557C53.2488 10.0932 51.6347 10.9875 50.0205 11.8818C49.1436 12.366 48.2734 12.8501 47.4032 13.3343C46.5463 13.8117 45.6827 14.2622 44.8391 14.7598C43.5903 15.4995 42.6735 16.562 42.1355 17.9135C41.5908 19.2651 41.4181 20.684 41.7768 22.123C41.9694 22.8895 42.2484 23.6292 42.4942 24.3823C42.813 25.3573 43.1319 26.3324 43.4574 27.3074C43.8227 28.3967 44.1947 29.4861 44.5601 30.5754C44.693 30.9721 44.7992 31.3756 44.9587 31.7656C45.1646 32.2699 44.8723 32.6734 44.7262 33.1037C44.4272 33.9779 44.0951 34.8319 43.7762 35.6993C43.484 36.4861 43.1983 37.2661 42.906 38.0528C42.6337 38.7858 42.3613 39.5187 42.089 40.2517C41.7768 41.0989 41.4646 41.9462 41.1524 42.7935C41.0594 43.0423 40.9796 43.2978 40.88 43.5399C40.8136 43.708 40.8534 43.8088 41.0062 43.8895C41.066 43.9164 41.1191 43.9568 41.1789 43.9837C41.8963 44.293 41.8831 44.2795 42.2617 43.5735C43.1253 41.9462 44.0021 40.3324 44.8789 38.7185C45.5233 37.5283 46.1743 36.3449 46.8186 35.1547C47.2438 34.3679 47.6689 33.5879 48.0741 32.7944C48.1538 32.6398 48.187 32.4313 48.1738 32.2498C48.0276 30.2056 47.8682 28.1547 47.7221 26.1105C47.5892 24.3151 47.4763 22.513 47.3434 20.7109C47.3235 20.4621 47.3766 20.3208 47.6357 20.22C48.5458 19.8636 49.4425 19.4669 50.346 19.0903C51.1099 18.7675 51.8738 18.4582 52.6377 18.1287C52.837 18.0413 52.9566 18.0548 53.0429 18.2565C53.2356 18.7339 53.4282 19.2046 53.6208 19.682C53.7205 19.9174 53.5411 19.9914 53.3883 20.0519C52.7905 20.3074 52.186 20.5495 51.5882 20.7983C50.9637 21.0605 50.3393 21.3295 49.7149 21.585C49.5222 21.6657 49.4558 21.78 49.4758 22.0019C49.6219 23.9251 49.7547 25.8482 49.8942 27.7714C50.0138 29.439 50.1334 31.0999 50.2397 32.7675C50.253 32.9558 50.1932 33.1643 50.1068 33.3324C49.2964 34.8588 48.4793 36.3785 47.6556 37.8914C46.4931 40.0298 45.3307 42.1681 44.1682 44.3132C43.743 45.0999 43.3312 45.8867 42.906 46.6734C42.74 46.9827 42.6868 46.9827 42.3746 46.8348C41.2321 46.2834 40.0829 45.7454 38.9337 45.194C38.8473 45.1537 38.7676 45.0865 38.6812 45.0663C38.2561 44.9587 38.2827 44.7301 38.3956 44.4073C38.6746 43.5869 38.9868 42.78 39.2924 41.9731C39.6046 41.1258 39.9168 40.2786 40.2356 39.4313C40.3685 39.0749 40.5346 38.732 40.6674 38.3756C40.8136 37.9789 40.9265 37.5687 41.0726 37.1652C41.4446 36.1364 41.8299 35.1143 42.2086 34.0922C42.4344 33.4803 42.7001 32.8751 42.8728 32.243C42.9326 32.0144 42.7931 31.7118 42.7134 31.4563C42.4012 30.4813 42.0691 29.5062 41.7436 28.5312C41.438 27.61 41.1191 26.6955 40.8202 25.7743C40.4549 24.6513 40.043 23.5418 39.7707 22.3987C39.4584 21.0941 39.5315 19.7762 39.8504 18.4582C40.2091 16.9587 40.9066 15.6542 41.9362 14.5312C42.6935 13.7041 43.6035 13.0855 44.5734 12.5543C46.4134 11.5456 48.2468 10.5235 50.0869 9.50817C51.4287 8.76849 52.7706 8.00865 54.1257 7.28914C54.9361 6.85879 55.8196 6.65706 56.7429 6.68396C57.0352 6.69068 57.1282 6.56964 57.1482 6.3074C57.2677 4.98943 57.7526 3.81268 58.5498 2.77714C59.4532 1.59366 60.6157 0.780019 62.0372 0.322767C63.2794 -0.0739671 64.5283 -0.114313 65.7705 0.201729C67.7434 0.706052 69.2247 1.85591 70.1215 3.74544C70.9518 5.5072 71.1179 7.38329 71.0781 9.29971C71.0781 9.54179 70.9784 9.64265 70.7326 9.62248C70.261 9.58213 69.796 9.55523 69.3244 9.52834C69.1052 9.51489 69.0321 9.41403 69.0387 9.19885C69.0919 8.10951 69.0055 7.0269 68.7597 5.95773C68.3944 4.38425 67.6039 3.13353 66.0827 2.46782C65.0996 2.03746 64.0766 1.92988 63.0137 2.17867C61.7516 2.46782 60.7685 3.16042 60.0178 4.20941C59.5462 4.8684 59.2672 5.61479 59.1941 6.42843C59.1808 6.56964 59.2606 6.77137 59.3668 6.87224C60.3035 7.84726 61.26 8.80884 62.21 9.77041C62.9074 10.4765 63.5983 11.1892 64.3091 11.8818C64.422 11.9894 64.6346 12.0768 64.7741 12.0432C65.3055 11.9087 65.8369 11.7474 66.355 11.5591C66.6141 11.4649 66.6075 11.3775 66.4082 11.1825C65.6642 10.4428 64.9202 9.69645 64.1629 8.9635C63.9703 8.78194 63.9238 8.60038 63.9969 8.35159C64.2559 7.50432 64.5084 6.65706 64.7674 5.8098C64.794 5.71566 64.8206 5.62824 64.8405 5.5341C64.9401 5.13064 65.0265 5.07685 65.4118 5.19789C65.8236 5.32565 66.2355 5.46013 66.654 5.5879C66.8599 5.64842 66.9197 5.76945 66.8533 5.97791C66.6673 6.57637 66.5145 7.18828 66.3019 7.78002C66.2155 8.02882 66.2753 8.1633 66.4348 8.32469C67.5109 9.3804 68.5737 10.4428 69.6432 11.4986C69.7827 11.6398 69.9355 11.7675 70.1348 11.9558L70.1082 11.9625Z" fill="#B89B5E"/>
<path d="M56.9154 33.1105C57.6593 33.1105 58.4033 33.1172 59.1473 33.1105C59.3865 33.1105 59.5127 33.1575 59.5924 33.4198C59.9445 34.6436 60.3364 35.854 60.6884 37.0845C60.8014 37.4813 60.8479 37.9049 60.9209 38.3151C61.0538 39.0279 61.2066 39.7339 61.3062 40.4467C61.5587 42.2488 61.6583 44.0576 61.4989 45.8732C61.3926 47.097 61.2199 48.3141 61.0472 49.5379C61.0073 49.8338 61.1867 49.9078 61.366 49.9952C62.1964 50.4054 62.9669 50.9097 63.6777 51.5082C65.3118 52.8934 66.5009 54.6013 67.2183 56.6388C68.0021 58.8578 68.1151 61.1105 67.577 63.3967C66.8862 66.3151 65.3118 68.635 62.8939 70.3631C61.3461 71.4659 59.6256 72.1249 57.7457 72.4006C56.0385 72.6494 54.3712 72.5014 52.7437 71.9837C49.7544 71.0288 47.4826 69.1595 45.9348 66.3756C45.4366 65.4813 45.0646 64.5399 44.8255 63.5447C44.3937 61.756 44.3406 59.9539 44.7391 58.1383C45.4499 54.9039 47.197 52.4092 49.9205 50.6138C51.2092 49.7598 52.6308 49.2286 54.152 48.9529C55.2746 48.7512 56.4039 48.7512 57.5331 48.8386C57.9317 48.8722 58.3369 48.9462 58.7288 49.0538C59.0012 49.1345 59.0743 49.0202 59.1141 48.805C59.2005 48.2872 59.32 47.7695 59.3466 47.2517C59.4263 45.8799 59.5193 44.5082 59.4994 43.1364C59.4795 41.6167 59.2868 40.1105 58.948 38.6311C58.7155 37.6225 58.4233 36.6273 58.1576 35.6254C58.0845 35.3429 57.9583 35.2017 57.6261 35.2219C56.9486 35.2757 56.271 35.2622 55.5934 35.3026C55.4407 35.316 55.248 35.4169 55.1484 35.5379C54.504 36.3583 53.8796 37.1921 53.2485 38.0192C51.9665 39.707 50.6778 41.3948 49.4024 43.0893C49.2562 43.2776 49.1566 43.3381 48.9573 43.1633C48.592 42.854 48.2 42.5648 47.8214 42.2757C47.6686 42.1547 47.6354 42.0471 47.7683 41.8722C48.5853 40.8031 49.3957 39.7339 50.2128 38.658C51.5148 36.9501 52.8101 35.2354 54.1187 33.5341C54.2117 33.4131 54.4044 33.3055 54.5572 33.292C55.3477 33.2315 56.1381 33.2113 56.9286 33.171C56.9286 33.1508 56.9286 33.1374 56.9286 33.1172L56.9154 33.1105ZM65.8698 60.6599C65.903 55.2603 61.5719 50.829 56.2046 50.829C50.8904 50.829 46.5261 55.1393 46.5061 60.6061C46.4928 66.0327 50.7575 70.4102 56.1514 70.4371C61.5055 70.464 65.8632 66.1066 65.8698 60.6599Z" fill="#B89B5E"/>
<path d="M28.0056 51.5149C28.0321 50.1364 27.8395 48.7848 27.4542 47.4736C26.5575 44.4275 24.8503 41.9462 22.3127 40.0634C21.2831 39.3036 20.1804 38.6647 18.978 38.2411C17.7226 37.7973 16.4339 37.4409 15.092 37.4611C14.5872 37.4678 14.089 37.6763 13.5908 37.8242C13.2653 37.9183 13.2121 37.9251 13.1058 37.5956C12.9198 37.0375 12.7471 36.4726 12.5678 35.9078C12.2423 34.9059 11.9168 33.8972 11.5913 32.8953C11.3521 32.1556 11.113 31.4092 10.8739 30.6696C10.8141 30.488 10.8406 30.3602 11.0067 30.2257C11.9301 29.4928 12.8468 28.7464 13.7568 27.9933C14.2617 27.5764 14.7532 27.1595 15.2514 26.7291C15.4042 26.5946 15.5437 26.5341 15.7563 26.6148C16.58 26.9376 17.417 27.2334 18.2407 27.5495C19.0511 27.8588 19.8615 28.1681 20.6587 28.5043C21.6086 28.9078 22.5784 29.2911 23.4885 29.7819C24.7838 30.4745 26.0659 31.2008 27.2948 32.0077C29.6729 33.561 31.8252 35.4102 33.7715 37.5014C34.1103 37.8646 34.4358 38.2478 34.7812 38.611C34.8742 38.7051 35.0137 38.7791 35.1466 38.806C35.9835 38.9942 36.8205 39.1623 37.6575 39.3506C37.8435 39.391 38.0362 39.4582 38.2022 39.5524C38.262 39.586 38.3019 39.7272 38.2886 39.8079C38.2022 40.3122 38.1026 40.8165 38.003 41.3208C37.9697 41.5024 37.8435 41.4755 37.7173 41.4553C37.0132 41.3141 36.3157 41.1662 35.6182 41.0183C35.1864 40.9241 34.7546 40.8165 34.3229 40.7358C34.004 40.6753 33.7449 40.561 33.5257 40.2988C33.0873 39.7743 32.6289 39.2767 32.1639 38.7723C30.7092 37.2123 29.1016 35.8271 27.3878 34.5696C25.6939 33.3257 23.9136 32.2363 22.0138 31.3487C20.7517 30.757 19.4497 30.2661 18.161 29.7416C17.4901 29.4659 16.8125 29.2104 16.1283 28.9616C16.022 28.9212 15.8493 28.9212 15.7762 28.9885C14.9592 29.6407 14.1487 30.3064 13.345 30.9856C13.2653 31.0528 13.2188 31.2344 13.2453 31.3353C13.418 31.9673 13.6107 32.5927 13.81 33.2181C14.0026 33.8233 14.2285 34.4217 14.4145 35.0336C14.4875 35.269 14.6005 35.3833 14.8529 35.3833C16.6597 35.4169 18.4134 35.7935 20.0675 36.4995C21.0639 36.9232 22.047 37.4342 22.9571 38.0327C25.2422 39.5456 27.0224 41.5495 28.2713 44.0173C29.1149 45.6916 29.6928 47.4601 29.8921 49.3429C29.9652 50.0154 29.9984 50.6945 30.0316 51.367C30.0449 51.5821 30.0848 51.7099 30.3173 51.7839C31.4399 52.1672 32.5559 52.5639 33.6785 52.9606C34.7347 53.3372 35.7843 53.7137 36.8405 54.0836C37.8967 54.4534 38.9529 54.8165 40.0091 55.1864C40.9258 55.5091 41.8358 55.8453 42.7525 56.1614C42.9651 56.2354 42.9784 56.3564 42.9186 56.5312C42.7525 57.0086 42.5865 57.4794 42.427 57.9568C42.3473 58.1854 42.1813 58.1249 42.0285 58.0778C41.4838 57.8963 40.9457 57.7012 40.401 57.5062C39.8164 57.2978 39.2319 57.0961 38.6473 56.8876C37.7372 56.5648 36.8205 56.2421 35.9105 55.9193C35.0336 55.61 34.1501 55.3074 33.2733 54.9981C32.3699 54.682 31.4665 54.3525 30.5564 54.0365C29.839 53.781 29.1149 53.5322 28.3975 53.2901C27.9856 53.1556 27.9391 53.1086 27.9591 52.6647C27.979 52.2815 27.9989 51.9049 28.0189 51.5216L28.0056 51.5149Z" fill="#B89B5E"/>
<path d="M35.3263 74.9356C40.6006 74.9356 45.8816 74.9356 51.156 74.9356C54.969 74.9356 58.7886 74.9424 62.6015 74.9424C65.1258 74.9424 67.65 74.9424 70.1743 74.9356C70.5662 74.9356 70.5662 74.9356 70.5728 75.3256C70.5728 75.7829 70.5728 76.2401 70.5728 76.6974C70.5728 76.9193 70.4931 76.9933 70.2739 76.9933C67.7497 76.9865 65.2254 76.9798 62.7011 76.9798C60.6087 76.9798 58.5162 76.9865 56.4237 76.9865C50.4585 76.9865 44.4933 76.9865 38.5281 76.9865C32.2839 76.9865 26.033 76.9865 19.7888 76.9865C14.8067 76.9865 9.81801 76.9865 4.83593 76.9865C3.32802 76.9865 1.82011 76.9865 0.312201 76.9865C0.0863467 76.9865 -0.0132949 76.9193 -0.00665214 76.6772C0.00663341 76.2133 0.00663341 75.7426 -0.00665214 75.2719C-0.0199377 74.9962 0.0797039 74.9155 0.352058 74.9155C2.35153 74.9222 4.34437 74.9155 6.34384 74.9155C15.8231 74.9155 25.3023 74.9155 34.7816 74.9155C34.9609 74.9155 35.1403 74.9155 35.3196 74.9155L35.3263 74.9356Z" fill="#B89B5E"/>
<path d="M2.49131 51.6292C2.46474 44.9923 7.61954 40.0634 13.412 39.7205C20.6327 39.2901 25.8938 45.0797 25.9137 51.4678C25.927 58.1316 20.8453 63.1816 14.6742 63.4169C7.71918 63.6792 2.49131 58.0644 2.49131 51.6359V51.6292ZM14.3952 61.366C19.623 61.2584 23.9342 56.9683 23.8811 51.4611C23.8346 46.1825 19.6496 41.5696 13.7973 41.7579C8.80195 41.9193 4.49743 46.0749 4.524 51.6494C4.55057 57.0355 8.94145 61.4803 14.3952 61.366Z" fill="#B89B5E"/>
<path d="M34.2301 21.5514C34.0175 22.1162 33.8116 22.6407 33.6189 23.1787C33.5525 23.3602 33.4595 23.3939 33.3001 23.3333C32.1841 22.9097 31.0681 22.4726 29.9521 22.0557C28.8561 21.6388 27.7534 21.2286 26.6507 20.8184C25.641 20.4419 24.6246 20.0586 23.6083 19.682C22.944 19.44 22.2797 19.1979 21.6154 18.9693C21.3962 18.8953 21.3829 18.7944 21.4627 18.586C21.6221 18.1825 21.7483 17.7589 21.8811 17.342C21.9874 17.0058 22.0871 16.952 22.4192 17.0663C23.6548 17.5168 24.897 17.9606 26.1259 18.4179C27.1157 18.781 28.0921 19.171 29.0753 19.5408C30.0451 19.9039 31.015 20.2603 31.9848 20.6234C32.6358 20.8655 33.2868 21.1143 33.9378 21.3631C34.0308 21.3967 34.1105 21.4774 34.2168 21.5447L34.2301 21.5514Z" fill="#B89B5E"/>
<path d="M51.8996 25.5053C52.4841 25.6263 53.0089 25.7339 53.5337 25.8482C54.0053 25.9491 54.4703 26.0634 54.942 26.1508C55.2276 26.2046 55.4402 26.3257 55.5996 26.5745C56.4964 27.9664 57.3998 29.3583 58.3098 30.7435C58.4228 30.9116 58.4228 31.0394 58.2235 31.1604C57.8183 31.416 57.4264 31.6916 57.0278 31.9606C56.8684 32.0682 56.7488 32.0884 56.6159 31.8867C55.852 30.6965 55.0748 29.5264 54.3043 28.3362C54.178 28.1479 54.0319 28.0538 53.806 28.0067C53.0621 27.8588 52.3181 27.6772 51.5741 27.5226C51.4146 27.489 51.3681 27.4015 51.3947 27.2603C51.5076 26.7224 51.6206 26.1777 51.7468 25.6398C51.7601 25.5725 51.8597 25.5255 51.8929 25.4986L51.8996 25.5053Z" fill="#B89B5E"/>
<path d="M35.446 58.7233C35.5722 58.7502 35.6386 58.7637 35.705 58.7771C36.4092 58.9856 37.1067 59.194 37.8108 59.3958C38.4684 59.5908 39.1327 59.7723 39.7904 59.9673C40.3018 60.1153 40.82 60.2767 41.3315 60.4246C41.5308 60.4851 41.5573 60.5927 41.4909 60.7944C41.3381 61.245 41.1986 61.7022 41.0923 62.1595C41.0326 62.415 40.913 62.4419 40.7071 62.3814C39.9166 62.146 39.1194 61.9039 38.3289 61.6753C37.5451 61.4467 36.7546 61.2248 35.9708 60.9962C35.6386 60.902 35.3065 60.8012 34.981 60.6734C34.9212 60.6532 34.8548 60.4918 34.8747 60.4179C35.0009 59.9203 35.1404 59.4294 35.2932 58.9385C35.3198 58.8511 35.3995 58.7771 35.446 58.7166V58.7233Z" fill="#B89B5E"/>
<path d="M74.6379 76.9933C74.2792 76.9933 73.9205 76.9933 73.5617 76.9933C73.3757 76.9933 73.2828 76.9328 73.2894 76.731C73.296 76.2133 73.3027 75.7022 73.296 75.1844C73.296 74.9962 73.3758 74.9289 73.5485 74.9289C74.2925 74.9289 75.0364 74.9357 75.7804 74.9357C75.9399 74.9357 75.9996 75.0096 75.9996 75.1643C75.9996 75.6955 75.993 76.2334 75.9996 76.7647C75.9996 76.926 75.9199 76.9798 75.7738 76.9798C75.3952 76.9798 75.0232 76.9798 74.6445 76.9798L74.6379 76.9933Z" fill="#B89B5E"/>
<path d="M18.733 17.927C18.6333 17.9068 18.5735 17.9001 18.5204 17.8799C17.8295 17.6379 17.1321 17.4025 16.4478 17.1403C16.3748 17.1134 16.2951 16.9318 16.3216 16.8511C16.4811 16.3401 16.6538 15.8425 16.8464 15.3449C16.8796 15.2642 17.0523 15.17 17.1188 15.1969C17.8229 15.4323 18.5138 15.7013 19.2179 15.9501C19.4238 16.024 19.4504 16.1249 19.3773 16.3132C19.2046 16.7839 19.0452 17.268 18.8791 17.7387C18.8525 17.8127 18.7795 17.8732 18.7396 17.927H18.733Z" fill="#B89B5E"/>
<path d="M19.6758 5.6148C20.0411 5.07686 20.3799 4.56581 20.7386 4.06149C20.7718 4.01442 20.9578 4.01442 21.0243 4.06149C21.642 4.47839 22.2465 4.91547 22.8577 5.3391C23.0038 5.43997 23.0171 5.55428 22.9175 5.69549C22.6252 6.1124 22.3462 6.54275 22.0406 6.95294C21.9875 7.0269 21.7948 7.08742 21.7417 7.04708C21.0575 6.5831 20.3799 6.10567 19.6824 5.60808L19.6758 5.6148Z" fill="#B89B5E"/>
<path d="M27.4879 8.66763C27.4547 8.72143 27.4348 8.74832 27.4148 8.78194C27.1093 9.21902 26.8037 9.64938 26.5114 10.0932C26.4118 10.2478 26.3055 10.2747 26.166 10.1739C25.5549 9.75024 24.9437 9.31989 24.3326 8.88953C24.1997 8.79539 24.1732 8.67436 24.2794 8.52642C24.5717 8.10951 24.8574 7.67916 25.1497 7.26225C25.236 7.13449 25.3357 7.08069 25.5017 7.20173C26.0996 7.63209 26.7107 8.04227 27.3086 8.4659C27.3816 8.5197 27.4281 8.60039 27.4946 8.67435L27.4879 8.66763Z" fill="#B89B5E"/>
<path d="M16.4144 0.853992C16.4675 0.874165 16.5273 0.887613 16.5672 0.921235C17.1783 1.35159 17.7828 1.78867 18.3939 2.2123C18.56 2.32661 18.5334 2.44093 18.4471 2.57541C18.1747 2.9856 17.8891 3.38905 17.6101 3.79251C17.4839 3.97407 17.3643 4.00769 17.1717 3.85976C16.5937 3.4294 16.0092 3.02594 15.418 2.61576C15.2785 2.52162 15.2386 2.42075 15.3316 2.28627C15.6239 1.85591 15.9295 1.43228 16.2217 1.00193C16.2682 0.934683 16.2948 0.853992 16.3347 0.7733C16.3612 0.800197 16.3878 0.827095 16.4144 0.847268V0.853992Z" fill="#B89B5E"/>
<path d="M29.7526 10.194C30.2907 10.5639 30.7823 10.9068 31.2738 11.2498C31.4465 11.3708 31.6193 11.4784 31.772 11.6196C31.8318 11.6734 31.8982 11.8281 31.8717 11.8751C31.5329 12.3929 31.1808 12.9039 30.8155 13.4352C30.1047 12.9376 29.4271 12.4736 28.7629 11.9962C28.7031 11.9558 28.6566 11.781 28.6898 11.7339C29.0219 11.2296 29.3673 10.7387 29.746 10.194H29.7526Z" fill="#B89B5E"/>
<path d="M36.3822 14.9011C36.3357 15.0019 36.3091 15.0759 36.2693 15.1364C35.9969 15.5466 35.7113 15.95 35.4389 16.3535C35.3393 16.5014 35.2396 16.5552 35.0669 16.4275C34.4824 15.9971 33.8912 15.5802 33.2867 15.17C33.1007 15.0423 33.0675 14.9481 33.207 14.7598C33.5125 14.3497 33.7982 13.926 34.1104 13.5226C34.1569 13.4621 34.3229 13.4284 34.3761 13.4621C34.9806 13.8588 35.5784 14.2757 36.1696 14.6926C36.2493 14.7464 36.3091 14.8271 36.3822 14.8943V14.9011Z" fill="#B89B5E"/>
<path d="M50.8965 60.122C50.9231 57.2642 53.1484 55.1057 55.7457 54.9981C58.8014 54.8703 61.0666 57.3381 61.0732 60.122C61.0732 62.926 58.8612 65.2728 56.0114 65.293C53.2148 65.3131 50.8832 62.9731 50.9031 60.1153L50.8965 60.122ZM55.9716 63.2421C57.5924 63.3228 59.0472 61.7963 59.0405 60.1691C59.0339 58.4275 57.6788 57.0557 55.9516 57.0557C54.2976 57.0557 52.9491 58.4544 52.9292 60.1489C52.9092 61.7694 54.3574 63.3228 55.9716 63.2488V63.2421Z" fill="#B89B5E"/>
<path d="M13.9232 46.0749C16.3478 46.0413 18.7126 47.8972 18.9783 50.7281C19.2507 53.6532 17.1449 56.1009 14.3749 56.3429C11.4454 56.5985 9.11379 54.4332 8.84808 51.683C8.58901 48.926 10.6483 46.0817 13.9232 46.0682V46.0749ZM16.9656 51.1988C16.9323 49.4102 15.5174 48.0183 13.7372 48.1258C12.1495 48.22 10.8476 49.5312 10.8741 51.2526C10.8941 53.048 12.289 54.2988 13.8302 54.3122C15.6436 54.3256 17.0054 52.9203 16.9656 51.1988Z" fill="#B89B5E"/>
</svg>
