<svg width="104" height="74" viewBox="0 0 104 74" fill="none" xmlns="http://www.w3.org/2000/svg">
<g clip-path="url(#clip0_295_509)">
<path d="M56.958 35.3103C58.64 33.6475 60.2181 32.085 62.508 32.9343C63.6671 33.3643 64.6026 35.7009 64.5301 37.4749C64.4451 39.6502 62.9804 40.0695 61.563 40.5497C61.5882 40.693 61.5788 40.8686 61.6355 40.9081C64.3569 42.725 65.0593 45.4737 64.9774 48.9356C64.8105 55.8557 64.9302 62.783 64.927 69.7067C64.927 72.8962 63.9758 73.957 61.122 73.9642C58.8668 73.9713 56.6115 73.9713 54.3531 73.9642C51.4364 73.9534 50.4852 72.8747 50.46 69.5706C50.4568 69.0975 50.46 68.628 50.46 68.0009H14.4704C14.4704 68.7678 14.483 69.4702 14.4704 70.169C14.4232 72.6095 13.3207 73.9176 11.1568 73.9606C8.53303 74.0108 5.90925 74.0072 3.28862 73.9606C1.08061 73.9248 0.0159798 72.6955 0.00968022 70.187C-0.00921856 62.4927 0.00653043 54.7913 0.000230833 47.0899C0.000230833 44.9326 0.567194 43.1192 2.22084 41.8757C2.64291 41.5567 3.01459 41.1517 3.5658 40.6429C1.75782 40.0766 0.381356 39.1915 0.365607 36.9696C0.353008 35.1885 1.41449 33.393 2.70591 32.8447C4.26821 32.1817 5.75176 32.8698 7.92197 35.3784C8.34404 34.4466 8.75667 33.5973 9.12519 32.7193C10.4765 29.4975 11.834 26.2758 13.1475 23.0361C13.916 21.1439 15.1319 20.291 16.9902 20.2981C27.3247 20.3376 37.6624 20.334 47.9968 20.2981C49.7796 20.291 50.9828 21.1116 51.7388 22.925C53.446 27.0104 55.1752 31.0851 56.958 35.3067V35.3103ZM52.5514 67.8504C52.0916 71.5595 52.2869 71.8211 55.2823 71.8247C57.2257 71.8247 59.1692 71.7745 61.1094 71.839C62.4985 71.8892 63.0749 71.3409 63.0529 69.6601C62.9836 63.6897 63.0277 57.7156 63.0277 51.7452C63.0277 46.7734 61.1892 42.9615 57.5124 40.3096C57.1344 40.0372 56.6588 39.815 56.2241 39.8043C54.5547 39.772 52.8853 39.8509 51.2159 39.858C46.5542 39.8795 41.8925 39.901 37.2277 39.8939C34.1944 39.8867 31.1612 39.8114 28.1311 39.8007C23.9544 39.7863 19.7715 39.686 15.598 39.8437C12.1647 39.9727 8.46374 38.679 5.48403 41.8398C4.07607 43.3306 1.91216 44.1513 1.90901 46.9108C1.89956 54.6157 1.91531 62.3171 1.89011 70.0221C1.88696 71.2298 2.31218 71.8175 3.35476 71.8211C5.925 71.8283 8.49838 71.8283 11.0718 71.8247C12.1081 71.8247 12.6089 71.2262 12.5774 70.0364C12.5616 69.3949 12.5774 68.7535 12.5774 67.8468C10.1331 67.8468 7.84008 67.9185 5.55647 67.7966C4.98321 67.7644 4.43515 67.0978 3.87763 66.7251C4.45404 66.3739 5.01786 65.7396 5.60372 65.7145C8.1708 65.6034 10.7757 65.3884 13.3113 65.7396C16.4044 66.166 18.2785 65.1196 18.9116 61.543C19.1573 60.1561 19.9605 59.7333 21.2141 59.744C27.7751 59.8085 34.3456 60.0128 40.8941 59.6759C44.2675 59.5039 46.4377 60.3246 47.0866 64.3455C47.2566 65.4027 47.8866 65.693 48.8126 65.6786C52.0664 65.6213 55.3201 65.6536 58.5739 65.6607C59.0967 65.6607 59.6542 65.5926 60.133 65.7718C60.448 65.8901 60.8386 66.3954 60.8417 66.7323C60.8449 67.0727 60.4669 67.5959 60.1582 67.7214C59.6826 67.9077 59.1251 67.8432 58.6022 67.8468C56.5769 67.8575 54.5484 67.8504 52.5609 67.8504H52.5514ZM9.28898 37.5286H55.6792C53.7263 32.816 51.8963 28.2791 49.9371 23.8209C49.6599 23.1866 48.7433 22.5415 48.1165 22.5344C37.675 22.4555 27.2334 22.4591 16.7918 22.5272C16.1965 22.5308 15.3114 23.0934 15.0563 23.6776C13.0876 28.1966 11.2419 32.7838 9.28583 37.5286H9.28898ZM45.4392 65.5855C45.0486 64.5103 44.8376 63.6288 44.4187 62.8977C44.1635 62.4533 43.5903 61.9803 43.1588 61.9767C36.0339 61.9193 28.9122 61.9229 21.7874 61.9767C21.3496 61.9767 20.7637 62.4354 20.518 62.8762C20.0865 63.6503 19.866 64.5784 19.5038 65.5819H45.4361L45.4392 65.5855ZM7.17547 37.5824C6.26518 36.7151 5.49033 35.7368 4.52334 35.1705C4.10757 34.9268 3.07443 35.3461 2.7437 35.8371C2.45707 36.2564 2.54212 37.4104 2.86655 37.8726C3.5091 38.7865 5.8809 38.6145 7.17232 37.5824H7.17547ZM57.8085 37.4856C58.9014 39.1843 60.1204 38.4819 61.2228 38.2203C61.7268 38.102 62.5552 37.611 62.5552 37.2885C62.5552 36.6076 62.2402 35.7583 61.7961 35.3031C61.5126 35.0128 60.6685 35.0989 60.2559 35.3676C59.3897 35.9374 58.6432 36.7402 57.8116 37.482L57.8085 37.4856Z" fill="#B89B5E"/>
<path d="M55.8647 24.1434C56.8632 25.0501 57.6034 25.6844 58.309 26.3653C59.6602 27.6698 60.0571 29.4724 59.2602 31.1747C59.0492 31.6262 58.435 31.8377 58.0066 32.1602C57.8239 31.6298 57.3735 30.9776 57.5089 30.5941C58.016 29.1714 57.4963 28.3256 56.564 27.5444C55.8458 26.9423 55.0426 26.4012 54.4946 25.6343C54.0882 25.068 53.7449 24.0825 53.9024 23.459C54.0599 22.8354 54.8127 22.2584 55.4206 21.9645C55.9624 21.6994 56.6585 21.8248 57.2884 21.8176C69.1474 21.6671 81.0064 21.5202 92.8654 21.3732C93.4292 21.3661 93.9962 21.3732 94.7395 21.3732C94.5096 20.6995 94.3741 20.2014 94.1789 19.7355C92.5378 15.8042 90.8558 11.8979 89.2589 7.94508C88.7549 6.69795 88.0525 6.10305 86.8493 6.10305C76.6156 6.11739 66.3819 6.11739 56.1482 6.10305C55.0143 6.10305 54.3276 6.6657 53.8552 7.8519C52.6866 10.7834 51.4361 13.6718 50.2077 16.5675C49.8801 17.338 49.625 18.5134 48.6076 17.8469C48.3021 17.6462 48.2643 16.3489 48.4974 15.7504C49.6722 12.6935 50.9951 9.71185 52.2299 6.68361C52.9732 4.85951 54.2111 3.94208 55.9498 3.93849C66.341 3.92416 76.7321 3.92416 87.1233 3.93491C88.9408 3.93491 90.1534 4.96343 90.9188 6.83413C92.5693 10.8694 94.2734 14.876 95.9648 18.9184C100.034 15.7468 101.606 15.625 102.932 18.2805C104.362 21.1439 103.761 22.7458 100.541 24.4588C100.979 24.8494 101.389 25.2078 101.795 25.5733C103.238 26.8742 104.006 28.5335 104.003 30.6694C103.987 38.4245 104.009 46.1833 103.994 53.9384C103.987 56.3753 102.929 57.5794 100.812 57.6009C98.2421 57.626 95.6687 57.6153 93.0985 57.6045C90.6007 57.5974 89.5644 56.4255 89.5329 53.6051C89.5266 52.9672 89.5329 52.3257 89.5329 51.4979C88.3328 51.4979 87.2966 51.4979 86.2603 51.4979C80.5402 51.4979 74.8202 51.4979 69.097 51.4979C68.6781 51.4979 68.2025 51.6269 67.8529 51.4441C67.4906 51.2578 67.0182 50.7596 67.0245 50.4049C67.0308 50.0501 67.5284 49.4982 67.8812 49.4086C68.5332 49.2437 69.2356 49.3512 69.9191 49.3512C74.6942 49.3512 79.4662 49.3512 84.2476 49.3512C83.983 46.2442 83.4948 45.6421 81.019 45.721C76.729 45.8571 72.439 46.0722 68.1489 46.28C66.8607 46.3409 66.0953 45.6099 66.3063 44.1513C66.511 42.7357 66.3536 41.6463 65.3677 40.6321C65.0779 40.3346 65.2763 39.428 65.2511 38.7972C65.7582 38.9262 66.3788 38.8832 66.7473 39.2094C68.0103 40.3275 68.8482 41.7359 68.2119 44.0223C69.2293 43.8288 70.0136 43.56 70.8011 43.5492C75.0438 43.4847 79.2866 43.4417 83.5262 43.5241C84.0145 43.5349 84.8271 44.3054 84.9185 44.8501C85.624 49.0108 87.9391 49.8458 91.2621 49.405C93.5394 49.1004 95.8734 49.3333 98.1823 49.3548C98.9288 49.362 99.9493 49.0861 99.9209 50.4765C99.8957 51.7237 98.9508 51.4836 98.2484 51.4907C96.053 51.5051 93.8544 51.4979 91.4322 51.4979C91.4322 52.3795 91.4259 53.1285 91.4322 53.8811C91.4448 54.992 91.9362 55.4686 92.9221 55.4543C95.4923 55.4221 98.0657 55.4149 100.636 55.4543C101.738 55.4722 102.113 54.8988 102.11 53.7126C102.091 46.0148 102.107 38.317 102.088 30.6192C102.088 30.096 101.994 29.5441 101.823 29.0567C101.13 27.0857 96.4026 23.502 94.5442 23.5199C82.2663 23.6561 69.9884 23.7994 57.7105 23.9463C57.2128 23.9535 56.7152 24.0359 55.8679 24.1184L55.8647 24.1434ZM96.8971 21.2586C97.8641 22.6956 99.039 22.1724 100.041 22.0685C100.611 22.0076 101.546 21.4342 101.59 20.9969C101.66 20.2981 101.266 19.3484 100.79 18.8467C100.516 18.56 99.5871 18.7535 99.1429 19.0725C98.3334 19.6531 97.6625 20.4881 96.9003 21.255L96.8971 21.2586Z" fill="#B89B5E"/>
<path d="M46.8154 6.44353C46.072 6.98467 45.398 7.32871 44.8909 7.87343C43.5364 9.32484 42.3742 9.04531 41.0954 7.69425C40.0307 6.56896 38.8118 5.63003 37.3975 4.77353C38.1408 6.81982 38.8842 8.86254 39.6244 10.9088C40.7709 14.084 40.7048 14.2058 37.7471 14.2668C36.8211 14.2847 35.8919 14.2668 34.9658 14.2668C34.9123 14.4173 34.8588 14.5714 34.8052 14.7219C35.3848 15.4422 36.062 16.098 36.5029 16.9151C36.7644 17.3989 36.6541 18.1408 36.7108 18.7679C36.1691 18.6174 35.4667 18.6604 35.1139 18.2805C34.0083 17.1015 33.0035 15.7898 32.0271 14.4675C31.7594 14.1055 31.5231 13.4282 31.6491 13.0626C31.7657 12.7186 32.3673 12.4427 32.7767 12.3961C34.4272 12.2205 36.0872 12.1452 37.9361 12.0162C36.8179 8.94496 35.7627 6.04574 34.7107 3.14294C34.5312 2.64839 34.2729 2.16459 34.2036 1.64853C34.1343 1.11456 34.2477 0.54475 34.2823 -0.00714111C34.7989 0.0752842 35.4415 -0.0393945 35.81 0.268804C37.9235 2.02841 40.0181 3.82743 42.0277 5.74113C42.8435 6.51879 43.401 6.47579 44.1822 5.78055C45.0452 5.01005 45.987 4.34707 46.9319 3.70917C47.8044 3.12144 48.4753 3.32212 48.5982 4.58717C48.7651 6.30377 48.9352 8.02753 48.9635 9.7513C48.9698 10.1598 48.4186 10.5827 48.1226 10.9984C47.8013 10.6795 47.2721 10.4143 47.1965 10.0272C46.9792 8.94855 46.9445 7.82326 46.8122 6.43637L46.8154 6.44353Z" fill="#B89B5E"/>
<path d="M85.3658 37.4211C85.2335 35.511 86.0902 34.1133 88.0683 33.4181C90.4149 32.5974 92.6828 31.4865 95.0136 30.6013C97.2216 29.7627 98.6422 31.2607 98.1917 33.8589C97.6353 37.0699 95.9669 39.0015 93.1867 39.6537C91.5992 40.0264 90.018 40.4493 88.4274 40.7934C86.2572 41.2628 85.2461 40.2558 85.3658 37.4211ZM96.2641 32.6046C95.7822 32.7049 95.379 32.73 95.0199 32.8769C92.9599 33.7263 90.9126 34.6186 88.8494 35.4644C87.5738 35.9876 86.9816 36.8799 87.5297 38.8152C89.1518 38.4066 90.7897 37.7508 92.456 37.6361C94.9884 37.4605 96.1916 36.0879 96.3113 33.2998C96.3176 33.1851 96.2956 33.0669 96.2641 32.6082V32.6046Z" fill="#B89B5E"/>
<path d="M61.1128 13.4784C61.7427 13.4784 62.3727 13.4784 63.0026 13.4784C65.8532 13.4855 67.321 14.8796 67.7525 18.1551C67.8155 18.6425 67.3966 19.2159 67.2013 19.7499C66.7855 19.4094 66.08 19.1371 66.0044 18.7213C65.5319 16.0658 64.1208 15.2451 61.9034 15.6179C61.1852 15.7397 60.4324 15.7039 59.7048 15.6214C58.1519 15.4494 56.955 15.6609 56.6085 17.8326C56.4983 18.5242 55.7613 19.1872 55.1722 19.6352C54.873 19.8645 54.2745 19.5814 53.8115 19.5277C53.8556 19.0475 53.7958 18.5135 53.9659 18.1014C54.3281 17.2198 54.8321 16.4134 55.2384 15.5533C55.8305 14.3026 56.6841 13.5214 57.9661 13.4891C59.015 13.464 60.0639 13.482 61.1128 13.482V13.4748V13.4784Z" fill="#B89B5E"/>
<path d="M82.0592 13.4784C82.6356 13.4784 83.212 13.4784 83.7885 13.4784C86.8564 13.4784 88.2202 14.6825 88.7809 18.0512C88.8659 18.5565 88.4879 19.1585 88.3242 19.714C87.8737 19.3664 87.1997 19.1299 87.0075 18.6496C85.8169 15.6537 85.8516 15.6357 83.0482 15.6357C82.1065 15.6357 81.1521 15.7433 80.2229 15.6107C78.6889 15.3956 77.8574 16.1769 77.4574 17.7681C77.3566 18.1658 77.3156 18.6604 77.0857 18.9256C76.7675 19.2875 76.2951 19.4739 75.8856 19.7319C75.6935 19.2445 75.2462 18.6747 75.3438 18.2805C76.2069 14.7362 77.1865 13.1487 80.1693 13.4676C80.793 13.5357 81.4261 13.4784 82.0529 13.4784H82.0592Z" fill="#B89B5E"/>
<path d="M19.0121 53.8452C18.7853 56.3252 17.6167 57.6046 15.6859 57.1709C13.2227 56.6226 10.7533 56.0636 8.34686 55.2716C7.61925 55.0314 6.89165 54.1248 6.52312 53.3113C6.05695 52.2827 5.88686 51.05 5.71363 49.8817C5.4081 47.8067 6.74361 46.1904 8.49805 46.8104C11.5345 47.8891 14.5457 49.1434 17.4246 50.6737C18.2152 51.093 18.4987 52.7522 19.0152 53.8452H19.0121ZM16.5962 55.1569C16.7747 53.4463 16.3001 52.3437 15.1725 51.8491C13.3739 51.0679 11.5722 50.283 9.76427 49.5269C9.11541 49.2581 8.43505 49.0753 7.45546 48.7492C7.74839 50.0788 7.89644 51.0571 8.18622 51.971C8.34056 52.4583 8.68388 53.1177 9.04926 53.2217C11.5156 53.9277 14.0102 54.5082 16.593 55.1533L16.5962 55.1569Z" fill="#B89B5E"/>
<path d="M46.2867 53.6374C46.0505 51.6449 47.1466 50.4945 48.9672 49.8136C51.0524 49.0359 53.0966 48.1078 55.144 47.2011C56.3157 46.6814 57.4748 46.3302 58.5426 47.3695C59.6104 48.4052 59.3174 49.7061 58.9773 51.0034C58.7977 51.6843 58.8355 52.5265 58.489 53.0497C57.9032 53.9349 57.2008 55.0207 56.3535 55.3218C54.0667 56.1353 51.6855 56.6191 49.3294 57.1602C47.2978 57.6261 46.1135 56.3503 46.2867 53.641V53.6374ZM48.3089 55.1784C50.3342 54.6588 52.2084 54.1714 54.0856 53.7019C56.7441 53.0389 57.2543 52.29 57.1976 48.8066C56.6748 48.9786 56.1928 49.1005 55.733 49.294C53.7266 50.1361 51.7579 51.1002 49.7169 51.8133C48.1955 52.3473 48.0002 53.4081 48.3058 55.1784H48.3089Z" fill="#B89B5E"/>
<path d="M36.1438 34.9197C36.484 31.4758 38.2132 29.7162 40.9126 29.6982C42.4812 29.6875 44.0529 29.6624 45.6215 29.7054C47.7697 29.7628 50.0092 32.5222 49.88 34.9555C49.8611 35.3175 49.6438 35.8837 49.4139 35.9626C49.0926 36.0701 48.6296 35.8945 48.3114 35.6795C48.0752 35.5182 47.8831 35.1204 47.8201 34.7943C47.3224 32.1567 45.779 31.4937 43.6529 31.8556C43.2938 31.9166 42.9158 31.913 42.5568 31.8556C40.2543 31.4937 38.5691 32.1208 38.1061 35.1025C38.0431 35.5039 37.2462 36.0952 36.906 36.0056C36.5249 35.9052 36.2792 35.1383 36.1406 34.9197H36.1438Z" fill="#B89B5E"/>
<path d="M22.0208 29.691C22.6476 29.691 23.2775 29.7233 23.9044 29.6874C27.2305 29.4975 27.9078 31.5689 28.692 34.5971C28.7928 34.9877 28.2479 35.597 28.0022 36.1023C27.618 35.7941 27.1864 35.5361 26.8683 35.1562C26.6699 34.9232 26.6132 34.5111 26.547 34.1635C26.2006 32.3215 25.2052 31.6513 23.5862 31.8412C22.5499 31.9631 21.4948 31.8628 20.449 31.8628C18.1812 31.8628 17.9292 32.0778 17.2677 34.5649C17.2236 34.7369 17.2205 34.9662 17.1197 35.0666C16.7291 35.45 16.3102 35.7905 15.9007 36.1453C15.6519 35.5791 15.0818 34.891 15.2046 34.4645C16.1653 31.103 17.0535 29.4832 20.1435 29.691C20.7703 29.734 21.4003 29.6982 22.0271 29.6982L22.0208 29.691Z" fill="#B89B5E"/>
</g>
<defs>
<clipPath id="clip0_295_509">
<rect width="104" height="74" fill="white"/>
</clipPath>
</defs>
</svg>
