<svg width="107" height="77" viewBox="0 0 107 77" fill="none" xmlns="http://www.w3.org/2000/svg">
<g clip-path="url(#clip0_295_620)">
<path d="M0 64.5944C0.753912 64.0191 0.884192 63.2341 0.843613 62.34C0.792355 61.2021 0.80517 60.0578 0.841477 58.9178C0.89487 57.2131 2.07166 56.0496 3.76315 56.0218C5.36495 55.9961 6.97743 56.1266 8.56427 55.9747C9.62146 55.8742 10.7662 55.5983 11.6589 55.0528C14.6319 53.2348 17.5215 51.2777 20.4197 49.3399C21.7972 48.418 23.2858 47.9646 24.9346 47.9667C30.0241 47.9731 35.1135 47.9753 40.2051 47.9667C41.8154 47.9646 43.2827 48.3816 44.641 49.2564C47.3641 51.0082 50.1405 52.6744 52.8251 54.4818C54.2005 55.4079 55.6571 55.8485 57.2717 56.0667C61.7461 56.672 66.2097 57.3436 70.6734 58.0238C73.0077 58.3809 74.4707 60.0899 74.5049 62.4384C74.5156 63.1271 74.5946 63.6533 75.1841 64.1966C75.6283 64.6073 75.8995 65.4714 75.8504 66.1002C75.7372 67.5119 75.4275 68.915 75.1029 70.2988C74.7889 71.6442 73.6207 72.4955 72.1919 72.5126C70.6606 72.5318 69.1314 72.5382 67.6001 72.504C67.0042 72.4912 66.6305 72.6088 66.4019 73.2419C66.1884 73.8323 65.789 74.352 65.4216 74.9873H88.3594C88.3594 73.0772 88.3807 71.1309 88.3209 69.1866C88.3167 69.0155 87.7742 68.7225 87.4794 68.7182C84.8824 68.6818 82.2832 68.6968 79.684 68.6968C79.4342 68.6968 79.1245 68.7866 78.9493 68.6711C78.582 68.4316 78.2873 68.0829 77.9626 67.7792C78.2809 67.4627 78.5542 67.0606 78.9344 66.8574C79.212 66.7076 79.6306 66.8146 79.9873 66.8146C86.1809 66.8146 92.3745 66.8146 98.566 66.8146C98.9889 66.8146 99.4118 66.8146 99.9286 66.8146V60.3551C99.4972 60.3551 99.0807 60.3551 98.6664 60.3551C91.7979 60.3551 84.9272 60.3551 78.0587 60.3551C77.7747 60.3551 77.4308 60.4557 77.2173 60.3316C76.8158 60.0985 76.489 59.7349 76.1323 59.4269C76.489 59.1082 76.8222 58.5563 77.2087 58.5157C78.3706 58.3938 79.5537 58.4686 80.7284 58.4686C82.3665 58.4686 84.0046 58.5029 85.6385 58.4323C85.9908 58.4173 86.4692 58.0943 86.6401 57.7778C87.11 56.9051 87.4495 55.9597 87.8404 55.0443C88.9403 52.4691 90.9286 51.2285 93.6859 51.1793C95.1702 51.1515 96.6567 51.175 98.2072 51.175V42.2708H48.0774C48.0774 43.5456 48.0774 44.8097 48.0774 46.0738C48.0774 46.431 48.1778 46.8374 48.0389 47.1304C47.8659 47.494 47.4409 48.0523 47.2188 48.0116C46.8387 47.941 46.3368 47.5261 46.2343 47.1582C46.0698 46.5679 46.1894 45.8963 46.1894 45.1968C45.8327 45.1626 45.5636 45.1198 45.2924 45.1156C43.351 45.0813 42.6227 44.4504 42.3088 42.5147C42.2468 42.1275 42.2383 41.7126 42.0803 41.3682C41.95 41.0795 41.6787 40.7415 41.399 40.656C40.0876 40.2539 39.3892 39.5202 39.3743 38.1214C39.3337 34.6992 39.3294 31.277 39.3786 27.8569C39.4021 26.227 40.4058 25.3137 42.0397 25.2859C43.3553 25.2624 44.6709 25.2816 46.1766 25.2816C46.1766 24.871 46.1766 24.4988 46.1766 24.1266C46.1766 21.8102 46.1723 19.4917 46.1766 17.1753C46.1809 15.8491 46.7041 14.8546 47.9578 14.2685C48.2653 14.1252 48.543 13.7787 48.6946 13.4579C49.0897 12.6237 49.4208 11.7575 49.7518 10.8933C50.3135 9.42606 51.3472 8.69029 52.934 8.70954C54.6063 8.73092 56.2807 8.71167 57.953 8.71167C69.5564 8.71167 81.1598 8.71167 92.7632 8.71167C95.2898 8.71167 95.9092 9.13304 96.8532 11.4537C97.0667 11.9799 97.3038 12.4996 97.4853 13.0386C97.7117 13.7038 98.0705 14.1637 98.7497 14.4845C99.777 14.9658 100.178 15.9048 100.172 17.032C100.161 19.3484 100.172 21.6669 100.172 23.9833C100.172 24.3683 100.172 24.7533 100.172 25.2752C101.347 25.2752 102.44 25.3415 103.523 25.2603C105.039 25.1469 106.233 25.5768 107 26.9521V38.9299C106.393 39.486 105.868 40.2667 105.155 40.5298C104.473 40.78 104.3 41.0752 104.202 41.6848C103.715 44.707 103.433 44.953 100.435 45.1519C100.375 45.1562 100.319 45.2204 100.174 45.3102C100.174 49.4917 100.166 53.7267 100.196 57.9596C100.196 58.1842 100.475 58.4943 100.702 58.6141C101.513 59.0376 101.917 59.6621 101.908 60.5797C101.898 61.8973 101.962 63.2191 101.893 64.5345C101.821 65.9291 102.417 67.5204 100.875 68.5556C100.832 68.5834 100.828 68.6904 100.828 68.7588C100.826 70.8442 100.828 72.9318 100.828 75.0771C101.682 75.0771 102.398 75.0172 103.096 75.0985C103.547 75.152 104.236 75.3145 104.343 75.6033C104.48 75.9776 104.142 76.5273 104.01 77H1.28144C1.17465 76.5187 0.86497 75.9498 1.02301 75.5819C1.14902 75.2867 1.83886 75.1049 2.28309 75.0985C5.08944 75.0557 7.89579 75.0792 10.7021 75.0728C10.9584 75.0728 11.2147 75.0215 11.4859 74.9937C10.9883 74.1167 10.5398 73.3254 10.0785 72.5169C8.39128 72.5169 6.72327 72.5361 5.05527 72.5126C2.68888 72.4784 0.792355 70.8186 0.392974 68.4808C0.269102 67.7557 0.130279 67.0328 0 66.3077C0 65.7366 0 65.1676 0 64.5966L0 64.5944ZM48.1265 24.1181V40.2517H98.2264V24.1181H48.1265ZM54.3927 70.5598C54.869 66.96 57.135 64.6351 60.2767 64.4147C63.6832 64.1752 65.9022 66.1622 67.111 70.6026C68.8217 70.6026 70.5602 70.6539 72.2923 70.5598C72.6404 70.5405 73.1359 70.0315 73.2576 69.6486C73.5588 68.7054 73.6912 67.7086 73.8748 66.729C74.1226 65.3986 74.0948 65.3751 72.6917 65.3687C72.1236 65.3666 71.549 65.3986 70.9852 65.343C69.2019 65.1634 68.0742 63.8993 68.1468 62.1048C68.1789 61.3069 68.3711 60.5156 68.5035 59.6322C65.1974 59.1445 61.9084 58.5777 58.6001 58.1927C55.7318 57.8591 53.0857 57.1511 50.6937 55.3972C48.4618 53.7609 46.0783 52.3108 43.665 50.9505C42.627 50.3665 41.352 49.9409 40.1752 49.9152C35.1605 49.804 30.1437 49.8831 25.1268 49.8575C23.76 49.8511 22.5512 50.2083 21.4171 50.9676C18.6364 52.8241 15.8172 54.6208 13.0472 56.4923C11.6098 57.4634 10.0742 57.9596 8.34002 57.9189C6.88132 57.8847 5.42261 57.9168 3.96391 57.9104C3.30824 57.9083 2.79353 58.1606 2.77004 58.8494C2.71878 60.368 2.75509 61.8887 2.75509 63.3966C3.82082 63.5977 4.21379 63.1721 4.20311 62.2673C4.19884 61.7689 4.09633 61.2321 4.2501 60.7829C4.37184 60.43 4.80966 59.9637 5.11507 59.9573C5.42048 59.953 5.92451 60.4086 6.0078 60.7444C6.15731 61.3497 6.08896 62.0171 6.05479 62.6566C5.96723 64.357 4.9677 65.3131 3.25699 65.3666C2.84265 65.3794 2.42832 65.3666 1.91148 65.3666C2.06525 66.4895 2.13786 67.4841 2.34717 68.4466C2.57569 69.501 3.2997 70.3651 4.32912 70.4571C6.17653 70.6239 8.04956 70.5042 9.8991 70.5042C10.5569 66.6905 12.8464 64.4618 16.1034 64.3976C19.4245 64.3335 21.6499 66.4317 22.5939 70.5555H54.3906L54.3927 70.5598ZM98.2691 22.0883C98.2691 21.0638 98.2734 20.1055 98.2691 19.1473C98.2521 15.6331 98.6664 16.0096 95.1467 15.9989C93.1541 15.9925 91.1614 16.0031 89.1688 15.9903C88.511 15.986 87.96 15.6438 88.1009 14.9829C88.1778 14.6278 88.7716 14.3284 89.1902 14.1252C89.4507 13.999 89.8202 14.1017 90.1406 14.1017C91.9773 14.1017 93.8161 14.1017 95.6678 14.1017C95.2556 11.1757 94.6106 10.5918 91.9004 10.5939C79.2697 10.5939 66.639 10.5939 54.0083 10.5939C53.5812 10.5939 53.1327 10.5255 52.7333 10.6345C52.3574 10.7372 51.8769 10.949 51.7124 11.257C51.2532 12.1189 50.935 13.0536 50.5014 14.1017H52.0627C60.5671 14.1017 69.0695 14.1017 77.5739 14.1017C79.5666 14.1017 81.5592 14.1102 83.5518 14.0974C84.1947 14.0931 84.7393 14.2535 84.7564 14.9829C84.7756 15.7486 84.2417 16.0096 83.5433 16.001C83.3297 15.9989 83.1161 16.001 82.9026 16.001C71.9442 16.001 60.9857 16.001 50.0273 16.001C49.7069 16.001 49.3289 15.8962 49.0812 16.031C48.701 16.2384 48.1436 16.5978 48.1244 16.9186C48.0304 18.6147 48.0795 20.3194 48.0795 22.0904H98.267L98.2691 22.0883ZM20.9515 75.0151H45.4419V72.5169C37.8152 72.5169 30.2804 72.5126 22.7434 72.534C22.5213 72.534 22.2116 72.7222 22.092 72.9147C21.6883 73.5671 21.353 74.2622 20.9515 75.0151ZM105.097 32.9389C105.097 31.3347 105.08 29.7305 105.106 28.1264C105.116 27.4398 104.83 27.1532 104.155 27.166C103.16 27.1853 102.163 27.1938 101.165 27.1639C100.42 27.1425 100.161 27.4847 100.166 28.197C100.183 31.4053 100.183 34.6115 100.166 37.8198C100.161 38.515 100.448 38.7759 101.127 38.7566C102.122 38.7267 103.122 38.7203 104.115 38.7588C104.86 38.7887 105.125 38.4829 105.11 37.7492C105.076 36.1451 105.099 34.5409 105.099 32.9389H105.097ZM46.1766 33.0415C46.1766 31.4031 46.1616 29.7626 46.1851 28.1242C46.1958 27.4441 45.9267 27.1489 45.2411 27.166C44.2459 27.1917 43.2485 27.1874 42.2533 27.166C41.5933 27.151 41.2473 27.4163 41.2495 28.0986C41.2516 31.3411 41.2559 34.5837 41.2452 37.8241C41.2431 38.5107 41.5506 38.7759 42.2234 38.7566C43.2186 38.7267 44.216 38.716 45.2112 38.7566C45.9716 38.7887 46.2043 38.4636 46.1873 37.7407C46.1531 36.1729 46.1766 34.6051 46.1787 33.0373L46.1766 33.0415ZM90.2559 68.7631C90.2559 70.7031 90.2324 72.581 90.2879 74.4568C90.2943 74.6686 90.7257 75.0429 90.9671 75.0472C93.3506 75.0921 95.7362 75.0942 98.1196 75.0472C98.3845 75.0407 98.8629 74.6536 98.8693 74.4312C98.9291 72.5575 98.9035 70.6817 98.9035 68.7631H90.258H90.2559ZM20.5607 70.7116C20.5649 68.2947 18.6663 66.3419 16.2807 66.3077C13.8673 66.2756 11.8512 68.2519 11.8277 70.6774C11.802 73.073 13.8288 75.0899 16.2444 75.075C18.63 75.06 20.5564 73.1115 20.5607 70.7116ZM56.3533 70.6325C56.3362 73.1008 58.2648 75.075 60.6974 75.075C63.0595 75.075 65.0479 73.1286 65.1013 70.7566C65.1568 68.3867 63.1129 66.3162 60.7145 66.3098C58.3353 66.3034 56.3683 68.2519 56.3512 70.6325H56.3533ZM98.2691 58.4194V53.0851C96.4687 53.0851 94.8306 53.0016 93.2075 53.1043C90.8454 53.2562 89.1047 55.3395 88.6498 58.4194H98.2691ZM47.4345 72.5169C47.4345 73.0024 47.4345 73.351 47.4345 73.6975C47.4324 75.0579 47.4452 75.0728 48.7993 75.075C50.5078 75.0771 52.2143 75.075 53.9229 75.075C54.6042 75.075 55.2876 75.075 56.0266 75.075C55.5887 74.2879 55.2791 73.6505 54.8861 73.0666C54.7216 72.8227 54.3842 72.5447 54.1194 72.5404C51.9516 72.4976 49.7838 72.5169 47.4345 72.5169ZM72.5336 63.4159C72.7045 61.6706 72.3884 60.7979 71.3889 60.2653C71.171 60.1498 70.6649 60.1113 70.6542 60.1434C70.4278 60.9348 70.0989 61.7433 70.1074 62.5432C70.116 63.294 70.8443 63.4843 71.5341 63.4736C71.8459 63.4694 72.1556 63.4394 72.5336 63.418V63.4159ZM100.172 43.1136C102.163 43.3381 102.286 43.1927 102.325 40.7116H100.217C100.2 41.0025 100.176 41.242 100.172 41.4816C100.166 42.0056 100.172 42.5275 100.172 43.1157V43.1136ZM44.0302 40.6988C44.0964 43.1863 44.3399 43.4536 46.0805 43.0601V40.6988H44.0302Z" fill="#B89B5E"/>
<path d="M102.088 2.65869e-06C103.192 0.489808 103.611 1.31328 103.604 2.53886C103.564 9.13092 103.585 15.723 103.585 22.315C103.585 22.5995 103.683 22.9546 103.551 23.1535C103.325 23.4957 102.955 23.962 102.643 23.962C102.329 23.962 101.953 23.5043 101.723 23.1642C101.588 22.9674 101.686 22.6102 101.686 22.3257C101.686 15.9476 101.686 9.56939 101.686 3.19123C101.686 2.80836 101.686 2.42336 101.686 1.98275H44.6604C44.6604 2.4747 44.6604 2.95809 44.6604 3.43934C44.6604 9.74692 44.6604 16.0524 44.6604 22.36C44.6604 22.6444 44.7522 22.9909 44.6241 23.2005C44.4297 23.5214 44.0902 23.9406 43.7933 23.9577C43.4879 23.9748 43.0607 23.6198 42.8685 23.3139C42.7041 23.0508 42.7746 22.6252 42.7746 22.2723C42.7703 15.7508 42.7895 9.23145 42.7511 2.70998C42.7447 1.47798 43.1013 0.564669 44.2119 -0.00213623H102.088V2.65869e-06Z" fill="#B89B5E"/>
<path d="M31.3547 19.9644C32.226 19.1131 33.0312 18.326 33.8364 17.5389C34.6971 16.6983 35.2588 16.771 35.8162 17.8298C36.4121 18.9634 36.9759 20.1141 37.5654 21.2498C37.8814 21.8594 37.9733 22.4647 37.2664 22.8005C36.5787 23.1257 36.1451 22.7086 35.844 22.084C35.4595 21.2862 35.0345 20.5077 34.5262 19.528C33.6506 20.4456 32.8646 21.2862 32.0595 22.1075C31.0834 23.1021 30.4384 22.9952 29.9451 21.7076C29.0694 19.4147 28.2386 17.1047 27.3865 14.8032C27.3181 14.6172 27.2348 14.4332 27.0661 14.0247C26.0431 16.8224 25.097 19.404 24.153 21.9878C24.1039 22.1204 24.0612 22.2573 24.012 22.3899C23.3307 24.2422 23.3307 24.2357 21.3231 24.024C20.7572 23.9641 20.1869 23.9598 19.6188 23.917C19.0913 23.8785 18.5659 23.8272 17.8547 23.7652C17.9957 25.025 18.1003 26.2121 18.2669 27.3906C18.5424 29.3541 18.5189 29.4332 16.6395 29.8268C13.3355 30.5198 10.0273 31.1893 6.72117 31.8716C6.44566 31.9293 6.17443 32.0106 5.76009 32.1175C6.0292 32.3592 6.20646 32.5453 6.40936 32.6972C9.11532 34.7227 11.8298 36.7397 14.5358 38.7673C15.6485 39.6015 15.672 39.9074 14.7472 40.9897C13.7328 42.1746 12.7204 43.3617 11.5735 44.7028C12.9554 45.0022 14.1791 45.2867 15.4115 45.5284C16.1291 45.6695 16.8381 45.8556 16.6288 46.7732C16.4195 47.6908 15.6635 47.524 14.9779 47.3828C13.3419 47.0427 11.7038 46.7197 10.07 46.3754C8.65828 46.0781 8.4383 45.4343 9.36734 44.3178C9.95894 43.6055 10.5762 42.9147 11.1806 42.2131C11.7807 41.5158 12.3787 40.8143 13.0429 40.04C10.5463 38.1749 8.10085 36.3483 5.65544 34.5195C4.80115 33.88 3.91269 33.279 3.10966 32.5795C2.78289 32.2929 2.39632 31.7261 2.48175 31.4074C2.57572 31.0609 3.15451 30.7037 3.57738 30.6118C7.67371 29.7241 11.7828 28.8921 15.8899 28.0451C16.0244 28.0173 16.159 27.9767 16.411 27.9104C16.2294 26.4623 16.0607 25.0271 15.8706 23.5962C15.6656 22.0477 15.9283 21.7418 17.5002 21.8338C18.7069 21.9044 19.9242 21.9386 21.1138 22.1289C21.8891 22.253 22.1753 21.9942 22.4166 21.3119C23.5913 17.9923 24.7873 14.6792 26.0367 11.3874C26.2076 10.9383 26.6625 10.3886 27.0853 10.2859C27.8563 10.0955 28.0016 10.8613 28.2087 11.4302C29.1271 13.9734 30.0497 16.5122 30.9745 19.0532C31.0792 19.342 31.2137 19.6222 31.3611 19.9665L31.3547 19.9644Z" fill="#B89B5E"/>
<path d="M28.0544 26.9714C27.7448 27.7008 27.512 28.2526 27.277 28.8044C26.3864 30.8984 26.7324 30.6096 24.4985 30.6032C24.114 30.6032 23.7317 30.6032 23.3323 30.6032C23.2896 30.83 23.2533 30.9647 23.2405 31.0994C23.0668 32.9261 22.1143 34.1089 20.3829 34.6479C19.9451 34.7848 19.5137 34.9452 18.9157 35.1526C19.7999 35.8328 20.558 36.4616 21.3611 37.0242C22.1193 37.5546 22.2559 38.1364 21.7711 38.9299C21.2393 39.8004 20.7631 40.7073 20.1458 41.8046C21.5789 41.5757 22.792 41.3811 24.0051 41.1886C24.2849 41.1437 24.5647 41.0881 24.8487 41.0603C25.4809 40.9961 26.0148 41.2977 25.9358 41.903C25.8845 42.2901 25.372 42.8248 24.9769 42.9211C23.6335 43.2483 22.2517 43.4066 20.8827 43.6333C20.1458 43.7553 19.4154 43.9499 18.6743 43.9905C18.3027 44.0098 17.7666 43.8665 17.5787 43.6013C17.3972 43.3467 17.442 42.7756 17.6065 42.457C18.307 41.0988 19.0887 39.7812 19.9066 38.3332C18.8366 37.5161 17.741 36.7376 16.7244 35.8692C16.3677 35.5633 15.9961 35.0179 16.0196 34.603C16.0367 34.2949 16.639 33.9142 17.0533 33.756C18.1447 33.3346 19.2638 32.9688 20.3957 32.6694C21.1155 32.479 21.3995 32.0898 21.329 31.3818C21.3248 31.3476 21.3333 31.3112 21.3333 31.2748C21.329 28.3531 21.5362 28.6183 24.1332 28.7189C24.9811 28.751 25.4339 28.5413 25.6902 27.7029C25.97 26.7875 26.3864 25.9126 26.7623 25.0293C27.3027 23.7588 28.0331 23.6668 28.8383 24.7748C29.8207 26.1265 30.7796 27.4976 31.7493 28.8579C31.7685 28.8836 31.8091 28.8921 32.0034 28.9948C32.5672 28.4087 33.1738 27.7778 33.7803 27.1489C34.2523 26.6591 34.7905 26.396 35.348 26.9607C35.9289 27.5468 35.5658 28.0558 35.1002 28.5199C34.2673 29.3477 33.4493 30.1926 32.6014 31.0053C31.871 31.7069 31.3691 31.6577 30.7668 30.8257C29.8933 29.6172 29.0454 28.3873 28.0523 26.9735L28.0544 26.9714Z" fill="#B89B5E"/>
<path d="M72.1829 53.9214V51.3055C71.7601 51.3055 71.382 51.3055 71.004 51.3055C67.589 51.3055 64.1718 51.3034 60.7568 51.3077C60.0776 51.3077 59.3835 51.2777 59.36 50.3922C59.3344 49.4276 60.0627 49.4041 60.7803 49.4041C69.0349 49.4083 77.2895 49.4105 85.5462 49.4041C86.2638 49.4041 87.0412 49.4212 87.0412 50.3323C87.0412 51.3012 86.2296 51.3162 85.4757 51.3119C82.1312 51.2991 78.7866 51.3055 75.4421 51.3055C75.0534 51.3055 74.6668 51.3055 74.1991 51.3055V53.9257C74.5728 53.9257 74.9487 53.9257 75.3225 53.9257C78.2762 53.9257 81.2299 53.9257 84.1815 53.9235C84.8841 53.9235 85.6487 53.9064 85.6829 54.8518C85.7171 55.8122 84.9738 55.8336 84.2541 55.8314C79.8417 55.825 75.4293 55.825 71.0168 55.8314C70.3398 55.8314 69.6436 55.825 69.6222 54.9288C69.5987 53.9706 70.327 53.9171 71.0446 53.9214C71.3927 53.9235 71.743 53.9214 72.1851 53.9214H72.1829Z" fill="#B89B5E"/>
<path d="M55.4239 4.49169C57.5575 4.49169 59.6911 4.50452 61.8247 4.48527C62.5081 4.47886 63.1125 4.64569 63.1317 5.39858C63.1531 6.21991 62.5316 6.40386 61.8033 6.40172C57.4656 6.38888 53.1258 6.38888 48.7882 6.40172C48.1026 6.40172 47.5003 6.22419 47.4811 5.47772C47.4576 4.65852 48.0791 4.47672 48.8117 4.48313C51.0157 4.50452 53.2219 4.49169 55.426 4.48955L55.4239 4.49169Z" fill="#B89B5E"/>
<path d="M90.3857 64.5645C89.6062 64.5645 88.8267 64.5752 88.045 64.5602C87.4 64.5495 86.8276 64.2629 86.9771 63.5742C87.0561 63.2127 87.6371 62.7294 88.0151 62.708C89.6767 62.6139 91.3468 62.6181 93.0084 62.708C93.3587 62.7272 93.6833 63.247 94.0186 63.5357C93.694 63.8758 93.4078 64.449 93.034 64.511C92.1733 64.6565 91.2699 64.5581 90.3836 64.5581C90.3836 64.5602 90.3836 64.5624 90.3836 64.5645H90.3857Z" fill="#B89B5E"/>
<path d="M79.5497 27.75C79.2998 28.1157 79.1439 28.4365 78.9068 28.6761C76.4272 31.1765 73.9284 33.6619 71.4467 36.1601C70.9534 36.6584 70.4237 36.8745 69.8791 36.3355C69.3516 35.8136 69.6249 35.2938 70.067 34.8511C72.5808 32.3336 75.0839 29.8054 77.6297 27.3222C77.9009 27.057 78.4434 26.9457 78.8428 26.98C79.082 27.0014 79.2827 27.4441 79.5475 27.7521L79.5497 27.75Z" fill="#B89B5E"/>
<path d="M54.6935 36.3483C54.3731 36.0831 53.9439 35.9034 53.9011 35.6553C53.8392 35.2938 53.9353 34.7783 54.1724 34.5131C54.9711 33.6105 55.8617 32.7892 56.716 31.9336C58.1982 30.4514 59.6826 28.9734 61.1541 27.4805C61.6688 26.9586 62.2262 26.5073 62.8733 27.1575C63.4863 27.7735 63.0314 28.3103 62.5487 28.7916C60.2613 31.0759 57.9847 33.3688 55.6888 35.6467C55.4261 35.9055 55.0801 36.0809 54.6935 36.3483Z" fill="#B89B5E"/>
<path d="M52.2401 32.7015C51.4285 32.6566 50.9608 31.7668 51.4776 31.2064C52.8039 29.7691 54.1964 28.3873 55.6252 27.0527C55.8281 26.8623 56.5222 26.9137 56.7507 27.119C56.9793 27.3265 57.1053 28.0494 56.9365 28.2291C55.527 29.7306 54.0405 31.1593 52.5668 32.601C52.4793 32.6865 52.3041 32.6822 52.2401 32.7015Z" fill="#B89B5E"/>
<path d="M36.1388 59.7135C36.1388 61.6321 36.1388 63.4073 36.1388 65.1805C36.1388 65.4649 36.2392 65.8093 36.1174 66.0232C35.8847 66.4296 35.5237 66.7611 35.2162 67.1247C34.8979 66.7633 34.3384 66.421 34.3085 66.0382C34.1974 64.6222 34.2636 63.1913 34.2636 61.7647C34.2636 61.1294 34.2636 60.4942 34.2636 59.7862H20.0205C20.0205 60.5754 20.0205 61.3733 20.0205 62.1732C20.0226 62.8683 19.9115 63.5207 19.0359 63.5186C18.2094 63.5164 18.1218 62.8961 18.1282 62.2374C18.1389 60.8835 18.0449 59.521 18.1709 58.1778C18.2264 57.5874 18.5682 56.8324 19.0295 56.503C21.114 55.0165 23.2689 53.6283 25.4409 52.2744C25.9236 51.9728 26.5793 51.8274 27.1559 51.8231C31.6047 51.7868 36.0534 51.7782 40.5 51.8274C41.1364 51.8338 41.8433 52.0648 42.3901 52.4006C45.5723 54.3556 48.7118 56.379 51.8727 58.3681C52.9278 59.0312 53.4574 59.9466 53.4318 61.2086C53.4019 62.7058 53.4126 64.203 53.4254 65.6981C53.4318 66.389 53.3741 67.0948 52.5113 67.0926C51.6057 67.0926 51.516 66.3611 51.5203 65.6296C51.5289 64.1688 51.5075 62.7079 51.5246 61.2471C51.5374 60.2568 50.9501 59.7413 50.0937 59.7327C45.5061 59.6878 40.9207 59.7113 36.1345 59.7113L36.1388 59.7135ZM33.8899 57.7457C33.5482 56.5907 33.2 55.5191 32.9224 54.4283C32.7686 53.8251 32.444 53.6733 31.8588 53.6882C30.3681 53.7267 28.8752 53.6925 27.3845 53.7075C27.0748 53.7118 26.7096 53.7224 26.4661 53.8786C24.5653 55.0892 22.688 56.3362 20.533 57.7478H33.8899V57.7457ZM46.9926 57.8163C47.0075 57.7329 47.0246 57.6495 47.0396 57.566C45.1238 56.3554 43.2102 55.1384 41.288 53.9385C41.0873 53.8123 40.8289 53.7182 40.5982 53.716C38.6867 53.6989 36.7731 53.7053 34.6886 53.7053C35.088 55.0314 35.4255 56.2528 35.8441 57.4441C35.9103 57.6345 36.3353 57.7906 36.6001 57.8013C37.6274 57.8419 38.6568 57.8163 39.6863 57.8163C42.121 57.8163 44.5578 57.8163 46.9926 57.8163Z" fill="#B89B5E"/>
<path d="M23.2947 62.9432C22.6561 62.8769 21.6117 63.2063 21.6074 62.0171C21.6032 60.8514 22.624 61.0995 23.3694 61.0589C23.5104 61.0503 23.6535 61.0631 23.7944 61.0589C24.5013 61.0396 25.1399 61.2107 25.1122 62.0556C25.0865 62.8363 24.4693 62.9774 23.8072 62.9454C23.6663 62.9389 23.5232 62.9454 23.2968 62.9454L23.2947 62.9432Z" fill="#B89B5E"/>
<path d="M39.5178 62.9454C39.3405 62.9454 39.1654 62.9454 38.9881 62.9454C38.3218 62.9539 37.7473 62.7978 37.758 61.9893C37.7686 61.1808 38.3581 61.0503 39.0159 61.0589C39.4025 61.0631 39.7933 61.0332 40.1777 61.0567C40.8099 61.0952 41.2883 61.3305 41.2456 62.077C41.2072 62.7657 40.7416 62.9411 40.15 62.9454C39.9385 62.9454 39.7271 62.9454 39.5157 62.9454H39.5178Z" fill="#B89B5E"/>
<path d="M13.7795 70.8977C13.7368 69.4925 14.811 68.2626 15.9601 68.2862C16.3445 68.2947 16.9489 68.6712 17.0322 68.9877C17.1091 69.2893 16.6627 69.7534 16.3957 70.1085C16.1672 70.4122 15.8917 70.6881 15.5948 70.9255C15.2702 71.1865 14.8837 71.5929 14.5547 71.5651C14.228 71.5373 13.9397 71.0496 13.7773 70.8977H13.7795Z" fill="#B89B5E"/>
<path d="M58.2793 70.8293C58.3135 69.3257 59.4219 68.1814 60.5709 68.2776C60.9361 68.3076 61.4786 68.684 61.5555 68.9963C61.6303 69.2957 61.2437 69.7492 60.9895 70.0807C60.7418 70.4058 60.4236 70.6882 60.0989 70.9405C59.7679 71.1994 59.345 71.6271 59.0439 71.5672C58.6894 71.4967 58.4224 70.9833 58.2793 70.8315V70.8293Z" fill="#B89B5E"/>
</g>
<defs>
<clipPath id="clip0_295_620">
<rect width="107" height="77" fill="white"/>
</clipPath>
</defs>
</svg>
