<svg width="39" height="39" viewBox="0 0 39 39" fill="none" xmlns="http://www.w3.org/2000/svg">
<g clip-path="url(#clip0_295_173)">
<path d="M38.9999 9.15415C38.8952 9.70751 38.7673 10.253 38.5308 10.7628C38.0887 11.7154 37.6544 12.668 37.2163 13.6245C35.3124 17.7708 33.4086 21.913 31.5008 26.0593C30.8727 27.4269 30.2406 28.7945 29.6164 30.1621C29.5621 30.2846 29.5311 30.4269 29.5272 30.5613C29.5194 31.6206 29.5233 32.6838 29.5233 33.7431C29.5272 36.419 27.666 38.6008 25.068 38.9644C25.0254 38.9723 24.9827 38.9881 24.9401 39.004C18.1738 39.004 11.4076 39.004 4.63744 39.004C4.59479 38.9921 4.55214 38.9723 4.50949 38.9684C2.43114 38.7075 0.732792 37.2213 0.170553 35.1581C0.0968803 34.8814 0.0503502 34.5929 -0.0078125 34.3083C-0.0078125 24.4387 -0.0078125 14.5692 -0.0078125 4.6996C0.00382003 4.65613 0.0232076 4.61265 0.0270851 4.56917C0.376061 2.39526 1.5587 0.940711 3.60215 0.237154C3.93562 0.12253 4.29622 0.0790514 4.6452 0C11.3998 0 18.1544 0 24.9091 0C24.944 0.0118577 24.9789 0.0316206 25.0176 0.0355731C27.379 0.339921 29.1666 2.13043 29.4845 4.52569C29.5194 4.77866 29.5272 5.03557 29.5504 5.3004C29.6435 5.3004 29.7211 5.3004 29.7986 5.3004C31.6055 5.3004 33.4124 5.29644 35.2194 5.30435C35.5373 5.30435 35.8592 5.32016 36.1694 5.37945C37.4334 5.62451 38.3679 6.3004 38.8138 7.57312C38.8991 7.81423 38.9379 8.07115 38.9999 8.32016C38.9999 8.59684 38.9999 8.87352 38.9999 9.15415ZM28.4182 19.5138C28.4182 14.7589 28.4182 10.004 28.4182 5.24901C28.4182 4.52964 28.267 3.8498 27.9064 3.2332C27.096 1.8419 25.8901 1.13439 24.2964 1.13439C18.0265 1.13043 11.7566 1.13043 5.48274 1.13834C5.09111 1.13834 4.68785 1.17787 4.30398 1.26087C2.43114 1.66008 1.13993 3.29249 1.13993 5.25692C1.13605 14.7668 1.13993 24.2767 1.13993 33.7905C1.13993 33.996 1.15156 34.2016 1.18258 34.4032C1.48115 36.4229 3.16011 37.8933 5.16866 37.8933C11.5782 37.8933 17.9877 37.8933 24.3934 37.8933C26.6695 37.8933 28.4182 36.1028 28.4182 33.7787C28.4221 29.0237 28.4221 24.2688 28.4182 19.5138ZM29.5466 6.46245C29.5466 13.5296 29.5466 20.5613 29.5466 27.5968C29.7055 27.3241 29.8374 27.0435 29.9653 26.7628C32.3733 21.5138 34.7851 16.2609 37.193 11.0119C37.4606 10.4308 37.7514 9.86166 37.8561 9.21344C38.0577 7.97628 37.4257 6.91304 36.243 6.59289C35.9134 6.50198 35.5645 6.47036 35.2232 6.47036C33.4008 6.4585 31.5823 6.4664 29.7598 6.4664C29.69 6.46245 29.628 6.46245 29.5466 6.46245Z" fill="#B89B5E"/>
<path d="M4.77686 17.668C4.79237 12.4269 8.77457 7.67195 14.7498 7.49408C20.2132 7.62056 24.6103 11.83 24.7809 17.664C24.6413 23.664 20.0038 27.8538 14.7614 27.8577C9.26701 27.8577 4.78073 23.2727 4.77686 17.668ZM14.1837 18.2727C12.9623 18.2727 11.7564 18.2727 10.5466 18.2727C10.5427 18.3123 10.535 18.336 10.5388 18.3636C10.566 19.4111 10.6978 20.4466 10.9188 21.4743C10.946 21.6048 11.0274 21.6285 11.1205 21.6443C11.9541 21.7668 12.7917 21.8893 13.6253 22C13.8076 22.0237 13.9937 22.004 14.1837 22.004C14.1837 20.751 14.1837 19.5138 14.1837 18.2727ZM19.0073 18.2767C17.7626 18.2767 16.5606 18.2767 15.3508 18.2767C15.3508 19.5297 15.3508 20.7668 15.3508 22.0079C15.3857 22.0119 15.4129 22.0198 15.4361 22.0198C16.452 21.9921 17.4563 21.8538 18.449 21.6364C18.5692 21.6087 18.6041 21.5415 18.6234 21.4348C18.7243 20.7866 18.8406 20.1423 18.922 19.4941C18.9724 19.0949 18.9802 18.6917 19.0073 18.2767ZM10.5117 17.0791C11.768 17.0791 12.9739 17.0791 14.1837 17.0791C14.1837 15.8459 14.1837 14.6285 14.1837 13.415C14.1566 13.4071 14.1372 13.3953 14.1178 13.3953C13.0902 13.4269 12.0705 13.5573 11.0701 13.7905C11.0119 13.8063 10.9382 13.8933 10.9227 13.9605C10.8296 14.4348 10.7288 14.9091 10.6668 15.3874C10.6009 15.9407 10.566 16.502 10.5117 17.0791ZM15.3469 17.083C16.5722 17.083 17.7781 17.083 18.9841 17.083C18.9879 17.0435 18.9957 17.0158 18.9957 16.9921C18.9492 15.9763 18.8328 14.9723 18.6196 13.9802C18.5924 13.8577 18.542 13.7984 18.4218 13.7787C17.8906 13.6917 17.3594 13.581 16.8282 13.5099C16.3396 13.4466 15.8471 13.4229 15.3469 13.3834C15.3469 14.6285 15.3469 15.8459 15.3469 17.083ZM23.0981 20.7352C23.0632 20.7549 23.0438 20.7629 23.0283 20.7747C22.0357 21.5652 20.9034 22.0712 19.7053 22.4387C19.5579 22.4822 19.4843 22.5494 19.4377 22.7036C19.1702 23.6443 18.8057 24.5415 18.3016 25.3755C18.131 25.6561 17.941 25.921 17.7588 26.1937C19.6898 25.83 22.6948 22.7629 23.0981 20.7352ZM11.7641 26.1897C11.7486 26.1621 11.7447 26.1344 11.7292 26.1186C10.9576 25.1186 10.4613 23.9802 10.1084 22.7747C10.0464 22.5613 9.93782 22.4704 9.74395 22.4111C8.60784 22.0672 7.54152 21.5771 6.58765 20.8498C6.545 20.8182 6.49847 20.7866 6.44031 20.7431C6.70786 22.6245 9.81762 25.8024 11.7641 26.1897ZM17.782 9.18973C17.7898 9.24112 17.7898 9.25693 17.7937 9.26483C18.5769 10.2965 19.0887 11.4625 19.4455 12.7075C19.4804 12.83 19.554 12.8656 19.6626 12.8972C20.8608 13.2648 21.993 13.7668 22.9934 14.5455C23.0128 14.5613 23.0399 14.5692 23.1136 14.6087C22.0861 11.9882 20.3295 10.2055 17.782 9.18973ZM11.6827 9.23321C10.5039 9.6759 9.4415 10.3716 8.51865 11.3044C7.6307 12.2016 6.49072 14.0316 6.49459 14.5692C7.52213 13.7629 8.68539 13.249 9.91456 12.8735C9.98047 12.8538 10.0464 12.7589 10.0735 12.6838C10.279 12.1463 10.4341 11.5889 10.6784 11.0712C10.9848 10.4348 11.3531 9.834 11.6827 9.23321ZM11.3066 22.8538C11.3066 22.8538 11.3027 22.8735 11.3105 22.8893C11.6284 23.8498 12.0472 24.7549 12.6753 25.5455C13.0088 25.9644 13.4004 26.3202 13.889 26.5494C13.9782 26.5929 14.0751 26.6206 14.1798 26.6561C14.1798 25.4625 14.1798 24.3004 14.1798 23.1621C13.2143 23.0632 12.2605 22.9565 11.3066 22.8538ZM23.5518 18.2767C22.3963 18.2767 21.2602 18.2767 20.1551 18.2767C20.0504 19.2727 19.9457 20.249 19.841 21.2451C20.1357 21.1265 20.4342 21.0158 20.7251 20.8854C21.5781 20.502 22.3691 20.0316 22.9934 19.3044C23.2377 19.0119 23.4432 18.6838 23.5518 18.2767ZM9.68966 21.2411C9.58497 20.2372 9.48028 19.2609 9.37946 18.2767C8.25886 18.2767 7.12663 18.2767 5.97888 18.2767C6.0797 18.6522 6.25806 18.9644 6.49072 19.2451C7.34377 20.2648 8.49151 20.7945 9.68966 21.2411ZM15.3547 23.166C15.3547 24.3162 15.3547 25.4783 15.3547 26.6443C15.7463 26.5534 16.2155 26.249 16.5994 25.838C17.3671 25.0119 17.8363 24.0158 18.2008 22.9565C18.2124 22.917 18.2202 22.8735 18.2241 22.8538C17.2624 22.9565 16.3163 23.0632 15.3547 23.166ZM9.68578 14.1818C8.88314 14.4625 8.11539 14.8142 7.42132 15.3123C6.94438 15.6561 6.52173 16.0514 6.22317 16.5692C6.13398 16.7233 6.06807 16.8933 5.98664 17.0751C7.15377 17.0751 8.28212 17.0751 9.38722 17.0751C9.48415 16.1107 9.58109 15.1581 9.68578 14.1818ZM19.8449 14.166C19.9496 15.1621 20.0504 16.1146 20.1512 17.0712C21.264 17.0712 22.3924 17.0712 23.5634 17.0712C22.8112 15.4032 21.3455 14.7708 19.8449 14.166ZM11.3143 12.4941C12.2915 12.3874 13.2298 12.2885 14.1798 12.1858C14.1798 11.0593 14.1798 9.917 14.1798 8.72333C12.5435 9.47827 11.9154 10.9644 11.3143 12.4941ZM15.3508 12.1858C16.3124 12.2885 17.2508 12.3913 18.2202 12.498C18.1194 12.2372 18.0263 11.9723 17.9177 11.7115C17.5726 10.8893 17.1422 10.1186 16.5102 9.48617C16.1806 9.15811 15.8161 8.89329 15.3508 8.75495C15.3508 9.917 15.3508 11.0514 15.3508 12.1858Z" fill="#B89B5E"/>
<path d="M14.7734 29.7984C17.887 29.7984 21.0045 29.8024 24.1182 29.7945C24.5447 29.7945 24.7696 30.0711 24.7773 30.3676C24.789 30.7075 24.4982 30.9605 24.1104 30.9605C17.887 30.9605 11.6597 30.9605 5.43631 30.9605C5.08346 30.9605 4.85468 30.7945 4.79652 30.502C4.73836 30.2134 4.87407 29.9407 5.13774 29.8419C5.23856 29.8063 5.35488 29.7984 5.46345 29.7984C8.56934 29.7945 11.6713 29.7945 14.7734 29.7984C14.7734 29.7945 14.7734 29.7945 14.7734 29.7984Z" fill="#B89B5E"/>
<path d="M14.7886 4.42292C17.879 4.42292 20.9694 4.42292 24.0598 4.42292C24.1373 4.42292 24.2149 4.41897 24.2924 4.43478C24.5638 4.47826 24.7694 4.69565 24.781 4.95257C24.7926 5.19763 24.5871 5.47431 24.3351 5.53755C24.2614 5.55731 24.18 5.56522 24.1024 5.56522C17.8984 5.56522 11.6905 5.56522 5.4865 5.56522C5.38956 5.56522 5.28874 5.56126 5.19568 5.53755C4.94365 5.47036 4.78467 5.24506 4.78467 4.97628C4.78467 4.71937 4.94752 4.51383 5.20732 4.45455C5.30038 4.43478 5.40119 4.43083 5.49813 4.43083C8.59626 4.42292 11.6905 4.42292 14.7886 4.42292Z" fill="#B89B5E"/>
<path d="M14.781 33.4387C17.0067 33.4387 19.2286 33.4387 21.4542 33.4387C21.9118 33.4387 22.1832 33.7826 22.063 34.2055C21.9971 34.4308 21.8497 34.5652 21.621 34.6008C21.5434 34.6126 21.4659 34.6126 21.3883 34.6126C16.9602 34.6126 12.5321 34.6126 8.1001 34.6166C7.85194 34.6166 7.6348 34.5612 7.49908 34.3241C7.29745 33.9723 7.48357 33.5415 7.87908 33.4624C7.96826 33.4427 8.06132 33.4427 8.15051 33.4427C10.3568 33.4387 12.567 33.4387 14.781 33.4387Z" fill="#B89B5E"/>
</g>
<defs>
<clipPath id="clip0_295_173">
<rect width="39" height="39" fill="white"/>
</clipPath>
</defs>
</svg>
