<svg width="46" height="41" viewBox="0 0 46 41" fill="none" xmlns="http://www.w3.org/2000/svg">
<g clip-path="url(#clip0_295_180)">
<path d="M32.0617 9.51621C32.6 9.25777 32.8459 8.88395 32.9387 8.40399C32.999 8.07632 33.1196 7.79942 33.4955 7.79942C33.8713 7.79942 33.9919 8.08093 34.0476 8.4086C34.1682 9.07317 34.623 9.45621 35.2122 9.6962C36.0752 10.0469 36.98 10.13 37.8987 10.0377C38.2467 10.0054 38.5066 10.0792 38.6272 10.4161C39.0541 11.5884 39.9681 12.2991 41.0307 12.8206C41.5643 13.0836 41.722 13.4113 41.6756 13.9697C41.5735 15.165 41.1327 16.2357 40.6177 17.3064C40.2372 18.0956 39.931 18.9447 39.7593 19.8031C39.3557 21.8291 38.7664 23.7628 37.7317 25.5719C37.4626 26.0427 37.5786 26.7303 37.5275 27.1872C38.7664 27.5333 39.88 27.8518 40.9982 28.1425C41.1327 28.1748 41.3462 28.0871 41.4575 27.981C42.4134 27.0995 43.3367 27.0995 44.26 28.0041C44.6451 28.3825 45.0303 28.7609 45.4061 29.1486C46.1856 29.9562 46.2042 30.9623 45.4107 31.7422C45.1231 32.0238 45.0627 32.2591 45.1695 32.6514C45.3133 33.196 45.3875 33.7775 45.3922 34.3405C45.42 36.2742 45.4015 38.2079 45.4015 40.1416C45.4015 40.8616 45.2669 40.9908 44.5431 40.9908C37.2445 40.9908 29.9413 40.9908 22.6427 40.9908C21.5663 40.9908 21.5663 40.9908 21.4642 39.8601C21.274 39.8601 21.0744 39.8601 20.8749 39.8601C14.2352 39.8601 7.59088 39.8601 0.95118 39.8601C0.111358 39.8693 0 39.7586 0 38.9048C0 26.2596 0 13.6144 0 0.964543C0 0.0784556 0.0835183 0 0.992939 0C11.0337 0 21.0698 0 31.1106 0C31.9968 0 32.0617 0.0646105 32.0617 0.946083C32.0617 3.60435 32.0617 6.25799 32.0617 8.91625C32.0617 9.09624 32.0617 9.27623 32.0617 9.51621ZM30.9946 1.06607C21.0095 1.06607 11.0615 1.06607 1.1043 1.06607C1.1043 13.6513 1.1043 26.2042 1.1043 38.7802C7.9064 38.7802 14.676 38.7802 21.506 38.7802C21.506 36.9295 21.506 35.1066 21.506 33.2421C21.1348 33.2421 20.7496 33.2421 20.3645 33.2421C19.585 33.2421 18.8102 33.2467 18.0307 33.2329C17.7152 33.2283 17.5203 33.0529 17.5203 32.7252C17.5203 32.4022 17.7059 32.2314 18.0214 32.2084C18.1884 32.1945 18.3601 32.2037 18.5271 32.2037C19.6175 32.2037 20.7079 32.2037 21.9653 32.2037C21.2322 31.5853 20.7821 30.9761 20.9677 30.0531C20.281 30.0531 19.6407 30.0531 19.0004 30.0531C17.5992 30.0531 16.1933 30.0531 14.792 30.0485C14.4533 30.0485 14.1749 29.9331 14.1656 29.5409C14.1563 29.1301 14.4301 28.9963 14.8013 28.9917C14.8848 28.9917 14.9683 28.9917 15.0565 28.9917C16.6944 28.9917 18.3369 28.9224 19.9748 29.0055C21.1301 29.0655 22.0952 28.8855 22.7819 27.8794C22.8376 27.7964 22.9258 27.741 23.0093 27.6764C23.6171 27.2241 24.5497 27.1503 25.0694 27.681C25.5891 28.2117 26.0345 28.161 26.6098 27.8841C26.9393 27.7272 27.3151 27.6487 27.677 27.5795C28.2199 27.4779 28.7674 27.4133 29.4263 27.3118C29.3427 26.6472 29.4216 25.9319 29.1525 25.3873C28.5215 24.132 27.9601 22.8675 27.6213 21.5061C27.4404 20.7907 27.3058 20.0616 27.1342 19.3462C27.046 18.9817 26.8418 18.834 26.415 18.834C22.6474 18.857 18.8751 18.8478 15.1075 18.8478C14.9405 18.8478 14.7271 18.8986 14.6111 18.8155C14.4301 18.6909 14.212 18.4786 14.1981 18.2894C14.1888 18.1371 14.4301 17.9248 14.6064 17.8187C14.7317 17.7402 14.9358 17.791 15.1029 17.791C18.7545 17.791 22.4061 17.791 26.0577 17.791C26.2387 17.791 26.4196 17.791 26.6655 17.791C26.5866 17.6387 26.5449 17.551 26.4985 17.4725C25.8489 16.3742 25.4081 15.2112 25.3153 13.919C25.2736 13.3744 25.4452 13.0698 25.9556 12.816C27.0182 12.2945 27.9322 11.5837 28.3637 10.4161C28.489 10.0792 28.7396 10.0146 29.0922 10.0239C29.7232 10.0469 30.3589 10.0008 31.0038 9.98694C30.9946 6.96871 30.9946 4.04277 30.9946 1.06607ZM35.6066 39.9247C37.212 39.9247 38.7896 39.9247 40.4089 39.9247C40.4089 39.7032 40.4089 39.5232 40.4089 39.3386C40.4089 38.1294 40.4136 36.9203 40.4089 35.7066C40.4089 35.3327 40.5481 35.0558 40.9518 35.0697C41.3137 35.0835 41.4622 35.342 41.4575 35.6973C41.4529 36.2834 41.4575 36.8742 41.4575 37.4603C41.4575 38.2771 41.4575 39.094 41.4575 39.9293C42.4412 39.9293 43.3599 39.9293 44.2925 39.9293C44.3111 39.8232 44.3343 39.7401 44.3343 39.6616C44.3343 37.7787 44.3343 35.8958 44.325 34.0128C44.325 33.7452 44.2879 33.4775 44.2322 33.2144C43.6383 30.3254 40.5388 28.6779 38.321 28.5348C38.4741 28.7102 38.5854 28.8486 38.7014 28.9824C39.1886 29.5409 39.184 29.6978 38.655 30.1916C37.7224 31.0684 36.7852 31.9407 35.8479 32.8129C35.2493 33.3713 35.1519 33.3713 34.4745 32.7806C34.4374 33.0344 34.3724 33.2329 34.3863 33.4267C34.4142 33.7267 34.493 34.0221 34.5487 34.3174C34.9106 36.1911 35.2586 38.0556 35.6066 39.9247ZM22.601 39.9293C23.5707 39.9293 24.4894 39.9293 25.4406 39.9293C25.4406 38.5171 25.4452 37.1418 25.4406 35.7665C25.4406 35.3789 25.5612 35.0697 25.9881 35.0743C26.3871 35.0789 26.5031 35.3881 26.5031 35.7481C26.5031 36.8419 26.5031 37.931 26.5031 39.0248C26.5031 39.3201 26.5031 39.6201 26.5031 39.9385C28.1364 39.9385 29.7 39.9385 31.2683 39.9385C31.2915 39.8555 31.3147 39.7955 31.324 39.7309C31.7184 37.6356 32.1221 35.545 32.5025 33.4452C32.535 33.2606 32.4561 33.0529 32.4051 32.6929C32.0478 33.1914 31.7137 33.436 31.3101 33.0668C30.2151 32.0653 29.1386 31.0454 28.0575 30.0347C27.7698 29.767 27.7698 29.4809 28.0204 29.1901C28.1921 28.9917 28.3684 28.7978 28.6236 28.5117C27.3012 28.6594 26.2108 29.0655 25.2179 29.7116C23.8166 30.6254 22.7448 31.8622 22.6334 33.5513C22.4943 35.6558 22.601 37.7787 22.601 39.9293ZM26.9254 16.0696C27.0924 16.3788 27.1898 16.6372 27.3569 16.8403C27.4775 16.9833 27.6863 17.1449 27.858 17.1449C31.607 17.1633 35.3607 17.1587 39.1097 17.1495C39.2582 17.1495 39.4624 17.0895 39.5366 16.9833C39.7361 16.7064 39.8753 16.3926 40.0563 16.065C39.3649 15.8111 38.7664 15.525 38.1307 15.3773C37.4951 15.225 37.2074 14.8235 37.0403 14.2651C36.9754 14.0389 36.8779 13.8082 36.8826 13.5821C36.9151 12.7698 36.9847 11.9622 37.045 11.1315C35.8108 11.0299 34.4745 10.85 33.4862 9.73773C32.4979 10.8638 31.1569 11.0299 29.7743 11.1453C30.2336 12.3498 30.3403 13.5174 29.7696 14.6574C29.6443 14.9066 29.3659 15.1373 29.1061 15.2527C28.4101 15.5527 27.6909 15.788 26.9254 16.0696ZM28.5911 21.1046C29.0829 22.9552 29.7047 24.672 31.0178 26.0427C32.535 27.621 34.3538 27.6487 35.9082 26.1073C37.2955 24.732 37.9219 22.969 38.4091 21.1C35.1287 23.0152 31.8901 23.0106 28.5911 21.1046ZM27.8905 18.2156C27.9972 18.8986 28.4008 19.5493 29.0644 20.0708C30.396 21.1184 31.955 21.4968 33.6068 21.4738C35.2076 21.4553 36.7109 21.063 37.9823 20.02C38.553 19.5539 38.9566 18.977 39.1469 18.2109C35.3653 18.2156 31.6441 18.2156 27.8905 18.2156ZM34.5394 39.9432C34.1868 38.0695 33.8481 36.2604 33.5094 34.4559C33.4723 34.4605 33.4305 34.4605 33.3934 34.4651C33.0547 36.2788 32.7206 38.0971 32.3772 39.9432C33.1335 39.9432 33.8017 39.9432 34.5394 39.9432ZM30.4378 27.0257C30.3357 27.4041 30.4146 27.6672 30.7672 27.9071C31.5467 28.4333 32.3076 28.9917 33.0547 29.5639C33.3377 29.7762 33.5326 29.8178 33.8388 29.5824C34.5951 28.9917 35.3746 28.4333 36.1634 27.8933C36.4696 27.681 36.581 27.4595 36.4557 27.1087C33.8899 28.7332 33.1567 28.724 30.4378 27.0257ZM29.0968 29.5639C29.9738 30.3808 30.8043 31.1515 31.6488 31.9407C32.0107 31.4746 32.3401 31.0592 32.6974 30.5977C31.7601 29.9193 30.86 29.264 29.9506 28.604C29.649 28.9455 29.3938 29.2317 29.0968 29.5639ZM35.2633 31.9453C36.1356 31.1238 36.9661 30.3485 37.8059 29.5593C37.5043 29.2224 37.2352 28.9271 36.9522 28.6086C36.0289 29.2778 35.1333 29.9285 34.2054 30.6023C34.5626 31.0592 34.8921 31.4746 35.2633 31.9453ZM26.5634 15.0727C27.2873 14.8097 27.9647 14.5743 28.6328 14.3159C28.7396 14.2743 28.8463 14.1497 28.8927 14.0389C29.185 13.3098 29.1618 12.576 28.9252 11.9391C28.1225 12.5344 27.3244 13.1298 26.531 13.7344C26.4428 13.799 26.3639 13.9513 26.3732 14.0528C26.415 14.3805 26.4938 14.7081 26.5634 15.0727ZM40.3857 15.0635C40.7476 13.9513 40.7476 13.9513 39.8336 13.3513C39.7083 13.2682 39.5737 13.1898 39.4624 13.0929C39.0123 12.6867 38.5669 12.276 38.0936 11.8422C37.8338 12.5668 37.8059 13.2682 38.0658 13.9697C38.1214 14.1174 38.2746 14.2789 38.423 14.3389C39.0587 14.5974 39.7083 14.8189 40.3857 15.0635ZM22.2855 31.0361C23.0928 30.2331 23.8677 29.4624 24.6425 28.6963C24.1832 28.2717 23.8909 28.2625 23.4269 28.7148C23.0418 29.0886 22.6659 29.4716 22.2947 29.8593C21.84 30.33 21.8539 30.6162 22.2855 31.0361ZM42.2834 28.7009C43.0769 29.4993 43.8378 30.2608 44.6034 31.0315C45.0349 30.6669 45.0674 30.3162 44.6359 29.8731C44.2415 29.4624 43.8378 29.0609 43.4249 28.6686C42.9933 28.2533 42.6732 28.281 42.2834 28.7009ZM33.5001 31.4146C32.9526 31.8484 32.9526 32.0053 33.5094 32.4853C33.6254 32.2776 33.7367 32.0791 33.8527 31.8715C33.7275 31.7053 33.6115 31.5576 33.5001 31.4146Z" fill="#B89B5E"/>
<path d="M7.47968 34.9359C6.3661 34.9359 5.24788 34.9359 4.13431 34.9359C3.50328 34.9359 3.34088 34.7836 3.34088 34.179C3.33624 32.1438 3.33624 30.1131 3.34088 28.0779C3.34088 27.4641 3.49864 27.3118 4.12967 27.3118C6.37538 27.3072 8.62109 27.3072 10.8714 27.3118C11.521 27.3118 11.6509 27.4456 11.6509 28.0733C11.6556 30.1085 11.6556 32.1391 11.6509 34.1744C11.6509 34.8066 11.5164 34.9359 10.8714 34.9359C9.73931 34.9359 8.60717 34.9359 7.47968 34.9359ZM10.5791 33.879C10.5791 32.0192 10.5791 30.2101 10.5791 28.3963C8.50973 28.3963 6.47746 28.3963 4.44054 28.3963C4.44054 30.2377 4.44054 32.0468 4.44054 33.879C6.49602 33.879 8.51901 33.879 10.5791 33.879Z" fill="#B89B5E"/>
<path d="M7.4936 4.92423C8.62573 4.92423 9.75787 4.91962 10.89 4.92423C11.5396 4.92885 11.6509 5.04422 11.6509 5.69956C11.6509 7.73479 11.6556 9.76541 11.6509 11.8006C11.6509 12.4098 11.5164 12.5437 10.9039 12.5437C8.63965 12.5483 6.37538 12.5483 4.11575 12.5437C3.494 12.5437 3.34088 12.3914 3.34088 11.7683C3.33624 9.75156 3.33624 7.73479 3.34088 5.71802C3.34088 5.06268 3.48008 4.92885 4.15287 4.92423C5.2618 4.91962 6.38002 4.92423 7.4936 4.92423ZM10.5838 11.4868C10.5838 9.62696 10.5838 7.82248 10.5838 5.9903C8.52365 5.9903 6.49138 5.9903 4.44054 5.9903C4.44054 7.83171 4.44054 9.65003 4.44054 11.4868C6.50066 11.4868 8.51901 11.4868 10.5838 11.4868Z" fill="#B89B5E"/>
<path d="M7.48407 23.7397C6.35194 23.7397 5.2198 23.7444 4.08766 23.7397C3.4984 23.7351 3.336 23.5782 3.336 22.9875C3.33136 20.9384 3.33136 18.8847 3.336 16.8357C3.336 16.2772 3.4984 16.1157 4.06446 16.1157C6.34266 16.1111 8.62549 16.1111 10.9037 16.1157C11.5161 16.1157 11.6414 16.2495 11.6414 16.868C11.6461 18.917 11.6461 20.9707 11.6414 23.0198C11.6414 23.5921 11.4976 23.7351 10.9222 23.7397C9.78083 23.7444 8.63477 23.7397 7.48407 23.7397ZM10.5882 22.6829C10.5882 20.8277 10.5882 19.0232 10.5882 17.2049C8.51877 17.2049 6.47721 17.2049 4.44494 17.2049C4.44494 19.0509 4.44494 20.8554 4.44494 22.6829C6.50041 22.6829 8.51877 22.6829 10.5882 22.6829Z" fill="#B89B5E"/>
<path d="M21.1301 7.66555C19.1025 7.66555 17.0795 7.66555 15.0518 7.66555C14.8987 7.66555 14.7038 7.7117 14.6064 7.63786C14.4301 7.50403 14.212 7.30096 14.1934 7.10713C14.1795 6.95945 14.4254 6.75177 14.6017 6.6364C14.7085 6.56256 14.8987 6.60409 15.0472 6.60409C19.1164 6.60409 23.1856 6.60409 27.2548 6.60409C27.4079 6.60409 27.5935 6.56256 27.7002 6.63178C27.8765 6.74716 28.1317 6.95022 28.1224 7.10252C28.1085 7.29173 27.8858 7.4948 27.7048 7.63325C27.6074 7.70709 27.4125 7.66094 27.2594 7.66094C25.2132 7.66555 23.1716 7.66555 21.1301 7.66555Z" fill="#B89B5E"/>
<path d="M21.172 9.80693C22.1186 9.80693 23.0651 9.81154 24.007 9.80231C24.3921 9.7977 24.768 9.85308 24.7819 10.3146C24.8004 10.7853 24.4292 10.8592 24.0395 10.8545C22.1139 10.8499 20.1884 10.8545 18.2628 10.8545C17.887 10.8545 17.5065 10.8176 17.5158 10.3238C17.5251 9.84385 17.8963 9.80231 18.2767 9.80231C19.2465 9.80693 20.2116 9.80693 21.172 9.80693Z" fill="#B89B5E"/>
<path d="M21.1717 22.046C20.2112 22.046 19.2461 22.046 18.2856 22.046C17.9145 22.046 17.5247 22.0322 17.5201 21.5338C17.5154 21.0492 17.8773 20.9984 18.2671 20.9984C20.1926 21.003 22.1182 21.003 24.0438 20.9984C24.4428 20.9984 24.7954 21.0769 24.7908 21.5384C24.7862 21.9722 24.4382 22.046 24.0623 22.046C23.0972 22.0414 22.1368 22.046 21.1717 22.046Z" fill="#B89B5E"/>
<path d="M31.6811 15.5804C31.6857 15.5481 31.6857 15.5112 31.695 15.4789C31.9316 14.7405 31.7043 14.182 31.115 13.679C30.6557 13.2867 30.8181 12.8437 31.398 12.7006C31.463 12.6822 31.528 12.6545 31.5929 12.6545C32.2425 12.6683 32.6369 12.3545 32.8875 11.7591C32.9849 11.5284 33.2865 11.2561 33.5138 11.2376C33.6948 11.2238 34.001 11.5238 34.0892 11.7499C34.3258 12.3591 34.7434 12.6083 35.3744 12.6683C35.6204 12.6914 36.0008 12.8852 36.0379 13.0652C36.089 13.2867 35.9173 13.6467 35.7271 13.8221C35.2956 14.2236 35.045 14.6251 35.2492 15.225C35.3002 15.3773 35.3048 15.5619 35.2909 15.7235C35.2538 16.0927 35.0311 16.2496 34.6599 16.1942C34.5764 16.1804 34.4882 16.1527 34.4233 16.1065C33.7922 15.6496 33.1937 15.6912 32.5348 16.0927C32.0523 16.3926 31.6532 16.1204 31.6811 15.5804ZM32.6369 13.6329C32.7436 13.9651 32.8596 14.3297 32.9571 14.6435C33.2958 14.6435 33.6902 14.6435 34.0149 14.6435C34.1309 14.3066 34.2655 13.9328 34.3629 13.6513C34.0613 13.4206 33.7505 13.1852 33.5046 12.996C33.2262 13.2037 32.9153 13.4298 32.6369 13.6329Z" fill="#B89B5E"/>
<path d="M6.73254 31.6176C7.40997 30.9254 7.98996 30.3392 8.56066 29.7485C8.8205 29.4762 9.11281 29.3101 9.43297 29.6101C9.75776 29.9147 9.59072 30.21 9.32161 30.4731C8.63026 31.1607 7.93892 31.8438 7.25221 32.536C6.92742 32.8637 6.62118 32.8775 6.29639 32.5406C6.0644 32.296 5.81384 32.0699 5.58649 31.8253C5.36377 31.5807 5.33129 31.3038 5.57721 31.0638C5.82776 30.8192 6.10151 30.8654 6.33351 31.1053C6.45879 31.2392 6.56087 31.3961 6.73254 31.6176Z" fill="#B89B5E"/>
<path d="M6.72766 9.22544C7.40509 8.53319 7.98507 7.95169 8.55578 7.36097C8.81562 7.09329 9.10329 6.91331 9.42344 7.2179C9.74824 7.52711 9.58584 7.81786 9.32137 8.08553C8.63002 8.77317 7.93867 9.45619 7.25197 10.1485C6.93182 10.4715 6.62094 10.4992 6.29615 10.1577C6.06415 9.9177 5.8136 9.69156 5.58624 9.44235C5.36353 9.20237 5.32641 8.92085 5.56768 8.68087C5.8136 8.43627 6.09199 8.47781 6.32863 8.71317C6.45855 8.84239 6.55598 9.00392 6.72766 9.22544Z" fill="#B89B5E"/>
<path d="M6.80199 20.3523C7.41445 19.7247 7.99444 19.1432 8.56515 18.5525C8.82498 18.2802 9.1173 18.114 9.43745 18.4186C9.76225 18.7278 9.58593 19.0232 9.32145 19.2863C8.63011 19.9739 7.93876 20.6569 7.25206 21.3492C6.92726 21.6768 6.61639 21.6861 6.29624 21.3492C6.08744 21.1323 5.86937 20.92 5.65593 20.7077C5.3961 20.4492 5.29866 20.1539 5.58633 19.8724C5.85545 19.6093 6.13848 19.7016 6.3844 19.9462C6.49111 20.0616 6.61639 20.177 6.80199 20.3523Z" fill="#B89B5E"/>
</g>
<defs>
<clipPath id="clip0_295_180">
<rect width="46" height="41" fill="white"/>
</clipPath>
</defs>
</svg>
